<svg width="168" height="168" viewBox="0 0 168 168" fill="none" xmlns="http://www.w3.org/2000/svg">
<path d="M73.4903 32.3631C73.4662 31.1917 71.5543 30.3847 70.622 29.2059L70.7604 29.1123C71.2319 29.2965 71.4347 29.3604 71.9528 29.3535C73.0891 29.8605 73.9544 30.8137 74.8808 31.5442C79.6919 35.3383 81.5987 40.5589 83.9136 46.0568C85.4864 49.7923 86.2908 54.8809 86.7667 58.9877C87.6859 56.1806 90.6315 50.3128 93.489 48.9928C95.773 46.5701 98.9836 44.8293 102.192 43.9909C102.906 43.8045 104.687 43.1236 105.273 43.5791C105.311 43.5502 103.227 44.2066 102.975 44.2973C99.3977 45.5838 97.2177 47.4147 94.5934 50.0463C93.788 51.3352 92.5452 53.2571 91.9922 54.6709C88.3344 64.0246 88.3146 74.1674 88.7222 84.0434C88.8409 86.9175 89.3841 91.109 89.088 93.654C91.3051 89.6518 97.6409 81.781 100.712 78.6197C107.573 71.5594 117.319 66.8603 120.44 56.7687C121.431 55.9263 120.757 55.7411 121.615 54.5851C121.569 55.5533 121.26 56.6146 121.756 57.564C121.475 60.0209 119.659 64.1483 118.478 66.3411C120.542 65.4501 122.103 65.2795 124.31 64.9537C125.156 64.9316 126.535 64.7623 127.147 65.2246C127.062 65.7257 127.038 65.6244 126.661 66.0609C124.888 66.4145 119.002 69.1757 117.561 70.1849C111.533 74.4074 105.859 80.9787 102.213 87.332C108.468 84.9989 115.684 82.9032 122.353 84.7935C122.798 85.0885 123.128 85.2998 123.597 85.5552C123.348 85.9254 123.179 86.1249 123.089 86.5708C121.208 86.5943 118.589 86.5201 116.807 86.835C112.962 87.3552 112.1 88.044 108.61 89.4831C86.1463 98.7476 91.4978 130.501 91.5561 149.971C91.5699 154.592 92.5504 160.404 91.8771 165.238C88.4939 164.465 78.6226 165.039 74.4164 164.88C75.1436 162.028 76.6919 158.829 77.5366 155.838C80.181 146.474 82.3206 137.703 79.038 128.142C76.9254 121.989 74.5403 118.389 67.8518 116.692C63.6119 115.616 60.3158 115.059 55.9176 115.929C55.317 115.619 54.6757 115.86 54.0085 116.017C53.538 115.809 53.5937 115.921 53.3862 115.557C54.0761 114.603 56.1529 114.869 57.0374 114.059C60.4113 113.149 65.5809 113.015 68.9979 113.491C70.4243 113.687 71.839 113.961 73.2355 114.311C74.1943 114.561 77.26 115.88 77.8257 115.689C77.6298 114.309 70.196 101.838 69.0623 100.284C63.7857 93.0468 56.0725 85.5523 46.7654 84.2964C44.618 84.0065 42.576 83.9821 40.4554 83.9411C39.6378 83.7396 39.2232 84.0455 38.526 83.6896L38.416 83.172C42.3346 82.0939 47.3988 82.2854 51.3733 83.1447C52.1448 83.3114 55.487 84.3694 55.9923 84.2086C55.9281 83.3995 54.8238 81.3342 54.6172 79.8928L54.6002 79.7676C54.7691 79.0026 54.6471 78.2507 54.5708 77.4706C54.9196 76.9349 54.9905 76.8119 55.16 76.1901L55.198 76.0471C55.6331 76.5865 56.3992 78.7751 56.7381 79.5747C57.5152 81.4072 58.6533 83.4892 59.99 84.9893C62.027 87.1645 64.7902 88.7592 67.0684 90.6791C71.9918 94.8282 76.4909 99.3654 80.3732 104.514C81.0596 105.424 82.2846 108.344 83.3382 108.407C83.5286 108.109 83.2612 103.658 83.241 102.941L82.5959 85.5466C82.2977 78.5618 82.6881 71.454 81.7811 64.4513C81.5253 62.4762 81.1302 60.5886 79.98 58.9553C75.2687 52.2646 71.1713 48.0648 63.1365 46.3178C63.1207 45.8737 63.0962 45.7904 62.9604 45.3658C63.9349 45.3925 64.7713 45.4165 65.7438 45.5165C68.9309 46.2243 74.429 48.4408 77.008 50.5331C78.3448 51.6176 79.8244 53.1322 81.2322 54.303C80.1562 47.2166 78.0818 37.9078 73.4903 32.3631Z" fill="#443F34"/>
<path d="M93.4863 48.9922C95.7703 46.5694 98.981 44.8287 102.189 43.9903C102.903 43.8038 104.684 43.123 105.271 43.5785C105.309 43.5495 103.225 44.206 102.973 44.2967C99.3951 45.5832 97.215 47.414 94.5907 50.0456L94.4342 49.8394C95.293 47.953 99.6906 45.6386 99.9202 45.1764C98.9692 45.5273 98.2153 45.8247 97.3235 46.3096C96.3051 46.8633 94.5076 48.8103 93.4863 48.9922Z" fill="#A7C94E"/>
<path d="M148.19 37.6492C148.481 37.5772 148.672 37.5925 148.967 37.593L149.2 37.8479C149.56 40.2666 146.322 49.0698 144.991 51.3528C140.846 58.4582 132.809 59.7793 125.512 61.7348L124.756 61.7852C123.448 60.4841 127.143 51.3389 127.923 49.5563C131.717 40.8786 139.726 38.8476 148.19 37.6492Z" fill="#A7C94E"/>
<path d="M108.682 46.5215C109.148 46.582 109.229 46.5622 109.593 46.8294C111.153 49.2953 111.241 57.0066 110.765 59.8557C109.858 65.0659 107.85 67.4622 104.322 70.9333C101.146 74.0578 99.4006 74.8042 95.9843 77.2808L95.2506 77.5369C93.5978 77.1153 94.3049 65.907 94.2667 63.8109C94.1639 58.1833 98.86 52.7059 103.354 49.8495C105.198 48.6777 107.026 48.0438 108.682 46.5215Z" fill="#A7C94E"/>
<path d="M116.117 90.2787C119.917 89.8865 123.756 90.3727 127.339 91.7C126.258 94.1748 123.982 97.8789 122.203 99.8735C117.623 105.009 114.468 106.524 107.902 106.998C105.645 107.137 97.5148 107.795 96.5664 105.887C96.6078 104.207 99.8988 99.8046 101.16 98.4128C105.803 93.2913 109.015 90.5662 116.117 90.2787Z" fill="#A7C94E"/>
<path d="M24.6211 59.992C30.6475 59.9043 37.1533 60.143 42.2895 63.8354C46.027 66.5226 51.5915 76.3513 52.2461 80.8967C48.3282 81.1551 41.2191 79.6385 37.3808 78.3143C36.3492 77.9585 34.7629 76.9433 33.914 76.2821C29.6899 72.9919 27.824 69.5464 26.0921 64.5806C25.6253 63.2427 24.8031 61.396 24.6211 59.992Z" fill="#A7C94E"/>
<path d="M59.8369 64.959C61.0763 65.464 62.5437 65.7037 63.8522 66.2415C66.3738 67.2781 68.7082 68.7204 70.9812 70.2103C78.6452 75.2336 79.3956 85.2386 79.5059 93.5767C75.0378 92.8787 65.4711 86.5829 62.803 82.7109C60.1065 78.7974 58.9166 69.4835 59.8369 64.959Z" fill="#A7C94E"/>
<path d="M99.6053 16.4658L100.246 16.533C102.222 18.152 102.315 31.5463 101.216 34.1215C99.3893 38.3975 92.0728 45.9617 88.174 47.9874C87.6701 48.1384 87.7263 48.2075 87.2678 48.0701C85.4663 45.5488 85.7762 32.4915 86.8811 29.2183C88.575 24.2004 95.02 18.7209 99.6053 16.4658Z" fill="#A7C94E"/>
<path d="M44.8174 94.3611C47.3508 94.1418 52.4882 94.0643 54.7292 94.9457C59.0894 96.6603 66.8932 103.378 68.769 107.543C66.0209 108.752 62.3592 109.089 59.3592 109.469C58.8296 109.49 57.538 109.696 56.977 109.762C49.1001 110.696 43.5989 106.502 38.8075 100.796C37.5627 99.3137 37.2141 98.3147 35.7148 97.1017C40.3085 95.2184 39.4416 95.087 44.8174 94.3611Z" fill="#A7C94E"/>
<path d="M58.4254 120.156C58.8234 120.087 58.6625 120.067 59.0487 120.198C59.9216 122.362 57.3468 131.144 56.3807 133.49C55.9056 134.627 55.3171 135.713 54.6242 136.732C50.7281 142.575 44.2074 144.929 37.6212 146.256L37.1098 146.315C36.8482 145.796 37.11 144.057 37.1819 143.413C37.6836 138.916 38.414 133.892 40.9194 130.036C42.9281 126.944 45.7949 125.452 49.0099 123.963C53.1991 121.792 53.694 121.042 58.4254 120.156Z" fill="#A7C94E"/>
<path d="M94.1875 110.608C96.6925 110.75 99.2682 110.461 101.773 110.825C106.452 111.504 111.33 112.633 114.915 115.865C115.998 116.823 116.965 117.906 117.795 119.09C118.889 120.68 122.74 128.246 122.84 130.137C122.02 130.241 120.345 130.149 119.442 130.16C115.179 130.213 109.384 129.64 105.632 127.393C101.314 124.807 97.3625 117.995 95.0335 113.498C94.7634 112.976 94.3396 111.226 94.1875 110.608Z" fill="#A7C94E"/>
<path d="M130.515 69.8414C134.915 69.5106 138.008 69.7244 141.888 71.9761C143.545 72.9373 149.1 76.0875 149.565 77.6825C149.548 77.8839 149.456 78.2395 149.292 78.3526C145.51 80.9611 139.694 83.7741 135.137 84.1384C130.654 84.3535 129.025 84.1105 124.956 82.018C121.563 80.2734 118.244 79.045 115.549 76.1145C118.646 73.0333 126.261 70.3706 130.515 69.8414Z" fill="#A7C94E"/>
<path d="M75.8117 7.15039C79.358 9.56887 83.1452 13.5946 84.3464 17.8596C85.2373 21.0229 84.7204 25.1312 83.9822 28.2709C83.7618 29.2088 82.7793 32.5673 81.9707 33.0497C79.3351 31.8113 74.5677 25.3389 73.3396 22.5015C71.8047 18.9559 73.2768 10.0667 75.8117 7.15039Z" fill="#A7C94E"/>
<path d="M49.6409 28.1055C53.5844 28.2137 57.2067 27.8236 61.0233 29.2655C64.6496 30.6358 67.4334 33.4764 69.3669 36.7848C69.9127 37.7187 72.538 42.2861 72.4816 43.1197C66.1206 43.3309 57.8924 42.9995 54.1233 37.3277C52.8137 35.3568 49.2803 30.4751 49.6409 28.1055Z" fill="#A7C94E"/>
<path d="M15.8555 72.7734C22.4769 71.8791 29.2541 75.2968 33.5884 80.132C31.6079 81.478 26.3226 83.2897 23.8946 83.9676C22.7707 84.0727 19.2801 84.4615 18.0412 84.2622C14.675 83.721 9.63438 80.0389 7.04437 77.674C6.76508 77.419 6.75016 77.1745 6.79414 76.8822C8.16236 75.5096 13.8866 73.1051 15.8555 72.7734Z" fill="#A7C94E"/>
<path d="M128.708 21.2383L128.988 21.3051C129.5 21.9266 129.811 22.9631 130.197 23.7014C131.95 27.1202 133.454 31.9921 132.45 35.871C131.379 40.0095 127.836 44.4246 125.113 47.5564L124.777 47.568C124.415 47.3427 124.419 47.2212 124.209 46.8529C121.705 42.4458 120.168 35.6142 121.473 30.6919C122.061 28.4737 126.458 22.4367 128.708 21.2383Z" fill="#A7C94E"/>
<path d="M152.231 54.8053C155.159 54.6721 156.336 55.0076 159.104 56.1594C160.422 56.7077 165.398 59.6484 165.798 60.7118C165.767 61.9535 164.293 62.5379 163.374 63.1002C160.262 65.0028 156.854 65.9737 153.235 66.3159C153.161 66.3157 153.088 66.3148 153.015 66.3128C148.637 66.1946 142.383 63.3548 139.33 60.1494C143.422 56.9664 147.031 55.2766 152.231 54.8053Z" fill="#A7C94E"/>
<path d="M130.394 92.6572C134.823 93.5415 138.795 95.1406 142.549 97.7976C146.481 100.58 147.791 106.903 148.645 111.387C148.741 111.893 148.738 112.3 148.424 112.728C143.139 111.739 138.859 110.709 135.09 106.581C132.309 103.535 131.612 100.266 130.693 96.3402C130.41 95.1336 130.051 93.8736 130.394 92.6572Z" fill="#A7C94E"/>
<path d="M151.277 81.7752C151.511 81.749 151.747 81.7304 151.983 81.7191C157.035 81.465 159.512 82.4287 163.651 85.3991C164.715 86.1634 165.44 86.477 166.475 87.4133C164.908 90.3824 158.736 92.375 155.579 92.9565C151.083 93.5817 146.587 91.5644 142.703 89.486C141.676 88.9366 140.509 88.2476 140.189 87.0864C140.462 85.0631 148.986 81.9953 151.277 81.7752Z" fill="#A7C94E"/>
<path d="M124.887 105.631C128.61 105.007 136.978 110.552 138.709 113.871C138.913 114.262 137.311 114.723 137.08 114.88C133.587 117.238 130.608 117.384 126.585 117.501C126.522 117.502 126.459 117.502 126.396 117.501C122.059 117.425 119.843 115.592 116.471 113.135C115.132 112.159 113.417 110.886 112.277 109.715C114.828 107.63 121.525 106.13 124.887 105.631Z" fill="#A7C94E"/>
<path d="M56.5715 0.588379C63.4053 3.0179 69.5186 7.79528 69.8265 15.5507C69.8839 16.9945 70.2555 23.6781 69.562 24.496C65.6743 22.556 59.5328 18.0524 57.3806 14.2406C55.9399 11.6889 55.7766 3.06917 56.5715 0.588379Z" fill="#A7C94E"/>
<path d="M35.0484 106.122C38.2519 106.124 48.1364 110.365 49.2775 113.188C49.1573 115.691 40.4349 117.454 38.2125 117.775C35.046 118.221 31.3482 117.257 28.7185 115.438C27.8238 114.819 23.6682 111.69 23.3594 110.79C23.7433 108.767 32.9903 106.264 35.0484 106.122Z" fill="#A7C94E"/>
<path d="M44.8142 42.4131C47.548 42.8963 52.8385 50.215 53.4955 53.0703C54.4979 57.428 53.5002 64.356 51.3373 68.238C48.7701 68.0189 42.4155 58.6999 42.2705 55.5576C42.0991 51.8459 42.5642 45.416 44.8142 42.4131Z" fill="#A7C94E"/>
<path d="M11.3611 87.1596C14.5606 86.6687 18.5631 87.5393 21.5933 88.5332C20.0297 91.6885 16.1777 94.8483 13.154 96.6639C12.6743 96.952 11.2684 97.2419 10.6719 97.3786C8.60514 97.4588 1.40687 97.4892 0.234375 95.5909C0.287556 95.3828 0.301477 95.3006 0.437936 95.1294C4.08803 90.5461 5.25524 88.0467 11.3611 87.1596Z" fill="#A7C94E"/>
<path d="M45.6122 16.8932C47.9428 16.701 49.755 16.9229 51.9253 17.9041C53.4636 18.5997 58.4376 21.6483 58.9091 23.0239C58.5119 24.4586 51.6137 26.2232 50.0087 26.5365C49.6758 26.5377 49.1507 26.7066 48.78 26.7223C44.3702 26.9086 39.2668 23.9183 36.8535 20.3421C38.8293 18.4707 42.9262 17.2104 45.6122 16.8932Z" fill="#A7C94E"/>
<path d="M28.6553 90.4265C31.9048 89.9387 35.237 90.6844 38.3194 91.5226C36.7592 94.0833 36.1345 95.3351 33.6819 97.2637C30.9723 99.3942 30.4268 100.359 26.8334 100.977C24.7926 101.03 18.5857 101.084 17.3125 99.5147C17.3143 98.9728 17.7805 98.5961 18.0687 98.0953C20.2512 94.3021 24.2167 90.9993 28.6553 90.4265Z" fill="#A7C94E"/>
<path d="M116.232 26.2441C116.796 26.1836 117.412 26.0751 117.954 26.2054C118.074 27.5716 116.86 32.07 116.262 33.3395C113.937 38.2765 108.848 40.6472 103.735 41.5109C103.233 41.638 102.604 41.7161 102.082 41.7939C102.154 38.7273 103.85 33.2378 105.855 30.8175C108.349 27.8056 112.488 26.6045 116.232 26.2441Z" fill="#A7C94E"/>
<path d="M27.9246 120.008C30.6788 119.86 35.9713 120.09 38.3873 121.321C36.8207 124.891 33.395 127.46 30.1239 129.479C29.7374 129.717 28.4586 129.946 27.9497 130.045C25.879 130.369 18.5225 130.287 17.5234 128.392C17.3548 126.729 22.6841 122.281 24.0083 121.27C24.813 120.657 26.8589 120.189 27.9246 120.008Z" fill="#A7C94E"/>
<path d="M59.5164 49.7498C62.3241 49.6086 65.8711 49.5179 68.5446 50.7596C70.3167 51.5826 77.1041 58.928 76.1868 60.635C75.5592 60.8772 74.7601 60.8026 74.0735 60.7894C70.0788 60.8012 65.7243 61.0182 62.3034 58.6185C60.929 57.6543 55.7772 51.5162 56.846 50.133C57.569 49.8228 58.7014 49.8084 59.5164 49.7498Z" fill="#A7C94E"/>
<path d="M146.607 95.5681C148.476 95.5286 155.97 97.119 157.95 97.8668C161.481 99.2012 164.21 105.133 165.505 108.605C162.455 109.126 156.218 108.685 153.543 106.629C150.501 104.292 147.234 99.2367 146.607 95.5681Z" fill="#A7C94E"/>
<path d="M122.352 84.7935C128.449 86.4199 135.433 88.9356 140.028 93.4549C137.3 92.3453 130.329 87.5359 127.383 87.2389C126.399 86.9577 124.195 86.7158 123.087 86.5707C123.178 86.1249 123.346 85.9253 123.595 85.5552C123.126 85.2997 122.796 85.0884 122.352 84.7935Z" fill="#A7C94E"/>
<path d="M124.309 64.9532C128.795 64.5182 134.574 64.5023 138.956 65.4706C139.991 65.6501 143.287 66.1954 144.027 66.8324C142.664 67.0027 140.424 66.3785 139.005 66.0866C134.822 65.2265 130.831 65.0037 126.659 66.0604C127.036 65.6239 127.061 65.7252 127.145 65.2242C126.533 64.7619 125.154 64.9312 124.309 64.9532Z" fill="#A7C94E"/>
<path d="M42.9258 120.774C46.3139 117.775 52.6652 114.957 57.0357 114.06C56.1512 114.87 54.0744 114.603 53.3844 115.558C53.592 115.921 53.5363 115.809 54.0068 116.017C54.674 115.86 55.3153 115.619 55.9159 115.929C51.9151 116.489 46.2632 118.381 43.3466 121.142L43.2654 121.219L42.9258 120.774Z" fill="#443F34"/>
<path d="M55.4851 66.334L55.786 66.3755C55.911 66.7036 55.8777 67.0565 55.8783 67.4152L55.8577 67.5288C55.7169 68.2778 55.4593 68.7706 55.2748 69.4724C54.695 71.6226 54.6678 73.8842 55.1957 76.0476L55.1576 76.1906C54.9881 76.8124 54.9172 76.9355 54.5685 77.4712C54.6448 78.2512 54.7667 79.0031 54.5979 79.7681C53.498 75.412 54.1828 70.5647 55.4851 66.334Z" fill="#443F34"/>
<path d="M120.437 56.7691C122.423 49.7892 119.808 49.6227 119.531 43.8555C121.114 47.7845 122.192 50.9726 121.938 55.244C121.9 55.882 121.933 56.9815 121.753 57.5643C121.258 56.615 121.566 55.5537 121.613 54.5854C120.754 55.7415 121.428 55.9266 120.437 56.7691Z" fill="#A7C94E"/>
<path d="M63.1348 26.4062C65.928 26.6311 69.6323 27.7404 71.9504 29.3536C71.4323 29.3605 71.2295 29.2966 70.758 29.1124L70.6196 29.206C71.5519 30.3848 73.4638 31.1918 73.4878 32.3632C70.278 29.0333 67.8183 27.8872 63.4536 26.9299L63.1348 26.4062Z" fill="#443F34"/>
<path d="M40.456 83.9409C37.5416 83.9666 34.8479 84.1219 32.039 85.0061C31.4977 85.1766 30.8788 85.374 30.3163 85.3037L30.1348 85.0699C33.3704 84.0305 34.784 83.4876 38.4166 83.1719L38.5266 83.6894C39.2238 84.0454 39.6384 83.7394 40.456 83.9409Z" fill="#443F34"/>
<path d="M54.1387 46.5577L54.1589 46.4218C55.3297 45.3848 61.2442 45.4085 62.9588 45.3652C63.0946 45.7898 63.1192 45.8732 63.135 46.3172C60.6794 45.8681 57.9919 46.0008 55.5324 46.3917C55.0458 46.4692 54.6335 46.544 54.1387 46.5577Z" fill="#443F34"/>
<path d="M55.4844 66.3338C55.7423 65.7322 56.2618 64.4165 56.6037 63.9282L56.9732 63.8917L56.9792 63.8283L56.7324 63.753L56.9786 63.9847L56.7596 63.7299L56.9807 63.6211C57.2002 64.5866 56.2763 66.4822 55.8776 67.415C55.8769 67.0563 55.9103 66.7034 55.7852 66.3753L55.4844 66.3338Z" fill="#443F34"/>
<path d="M63.4545 26.9296C62.3849 26.7545 61.6343 26.7469 60.4766 26.497L60.511 26.5176L60.7068 26.1562C61.505 26.2228 62.3491 26.2752 63.1356 26.406L63.4545 26.9296Z" fill="#443F34"/>
<path d="M42.9236 120.774L43.2632 121.22C42.7342 121.516 42.592 121.618 41.9914 121.743L41.8633 121.623C42.1936 121.165 42.4394 121.062 42.9236 120.774Z" fill="#443F34"/>
</svg>
