<?xml version="1.0"?>
<svg xmlns="http://www.w3.org/2000/svg" width="25" height="24" viewBox="0 0 25 24" fill="none">
<rect width="24.7363" height="24.0003" fill="#FFF6CB"/>
<g>
<path d="M11.2972 3.43018C15.4385 3.43032 18.7952 6.78784 18.7952 10.9292C18.7952 12.3994 18.3675 13.7669 17.6351 14.9233C17.4526 15.2114 17.477 15.5914 17.7181 15.8325L20.2542 18.3696C20.522 18.6374 20.522 19.0716 20.2542 19.3394L19.7073 19.8862C19.4396 20.154 19.0054 20.154 18.7376 19.8862L16.2005 17.3501C15.9594 17.109 15.5793 17.0846 15.2913 17.2671C14.1349 17.9995 12.7674 18.4272 11.2972 18.4272C7.15583 18.4272 3.79831 15.0705 3.79817 10.9292C3.79817 6.78775 7.15574 3.43018 11.2972 3.43018ZM14.0999 11.5718C14.0156 11.3682 13.7337 11.3684 13.6488 11.5718L13.5277 11.8647C13.3207 12.3636 12.9338 12.7623 12.4486 12.978L12.1048 13.1304C11.9079 13.2179 11.9079 13.5048 12.1048 13.5923L12.4691 13.7534C12.9421 13.9639 13.3221 14.349 13.5325 14.8315L13.6507 15.1021C13.7373 15.3001 14.0116 15.3002 14.098 15.1021L14.2161 14.8315C14.4267 14.349 14.8065 13.9639 15.2796 13.7534L15.6429 13.5923C15.8392 13.5046 15.8394 13.2179 15.6429 13.1304L15.2991 12.978C14.8139 12.7623 14.428 12.3636 14.221 11.8647L14.0999 11.5718ZM10.2542 5.75537C10.1084 5.40523 9.62386 5.4054 9.47785 5.75537L9.08528 6.70166C8.74629 7.51792 8.11448 8.17017 7.32063 8.52295L6.28645 8.98193C5.94796 9.13265 5.948 9.62512 6.28645 9.77588L7.35285 10.2495C8.1271 10.5932 8.74809 11.2223 9.09309 12.0122L9.48078 12.8999C9.62998 13.2409 10.1024 13.2409 10.2513 12.8999L10.639 12.0122C10.9837 11.2227 11.6044 10.5931 12.3782 10.2495L13.4456 9.77588C13.7837 9.62495 13.7839 9.13267 13.4456 8.98193L12.4124 8.52295C11.6182 8.1706 10.9859 7.51858 10.6468 6.70166L10.2542 5.75537Z" fill="#F5D74D"/>
</g>
<defs>

</defs>
</svg>
