<?xml version="1.0" encoding="UTF-8"?> <svg xmlns="http://www.w3.org/2000/svg" width="25" height="24" viewBox="0 0 25 24" fill="none"><rect y="0.000305176" width="24.7363" height="24.0003" rx="3" fill="#FFD4AF" fill-opacity="0.5"></rect><path d="M12.4901 10.9226V13.2613H15.8228C15.387 14.6783 14.2026 15.6924 12.4901 15.6924C10.4506 15.6924 8.79746 14.0393 8.79746 12.0005C8.79746 9.96167 10.4506 8.30847 12.4901 8.30847C13.4069 8.30847 14.2442 8.6445 14.89 9.19781L16.6123 7.47545C15.5247 6.48451 14.0778 5.87979 12.4901 5.87979C9.109 5.87979 6.36816 8.62001 6.36816 12.0005C6.36816 15.3809 9.109 18.1211 12.4901 18.1211C17.629 18.1211 18.7631 13.3164 18.2594 10.9306L12.4901 10.9226Z" fill="#D87928"></path></svg> 