<svg width="25" height="24" viewBox="0 0 25 24" fill="none" xmlns="http://www.w3.org/2000/svg">
<rect width="24.7363" height="24.0003" rx="3" fill="#6FE68B" fill-opacity="0.17"/>
<path d="M7.03483 6.13346C6.4455 6.13346 5.96816 6.61079 5.96816 7.20012V8.80012V17.3335C5.96818 17.4749 6.02437 17.6105 6.12439 17.7106C6.22441 17.8106 6.36005 17.8668 6.5015 17.8668H18.2348C18.3763 17.8668 18.5119 17.8106 18.6119 17.7106C18.712 17.6105 18.7682 17.4749 18.7682 17.3335V8.26679V7.20012C18.7682 6.61079 18.2908 6.13346 17.7015 6.13346H7.03483ZM7.03483 8.80012H17.7015V16.8001H7.03483V8.80012ZM8.63483 9.86679C8.56416 9.86579 8.49399 9.87885 8.42841 9.9052C8.36283 9.93156 8.30313 9.97068 8.2528 10.0203C8.20247 10.0699 8.16251 10.1291 8.13523 10.1943C8.10795 10.2595 8.0939 10.3294 8.0939 10.4001C8.0939 10.4708 8.10795 10.5408 8.13523 10.606C8.16251 10.6712 8.20247 10.7303 8.2528 10.7799C8.30313 10.8296 8.36283 10.8687 8.42841 10.895C8.49399 10.9214 8.56416 10.9345 8.63483 10.9335H16.1015C16.1722 10.9345 16.2423 10.9214 16.3079 10.895C16.3735 10.8687 16.4332 10.8296 16.4835 10.7799C16.5339 10.7303 16.5738 10.6712 16.6011 10.606C16.6284 10.5408 16.6424 10.4708 16.6424 10.4001C16.6424 10.3294 16.6284 10.2595 16.6011 10.1943C16.5738 10.1291 16.5339 10.0699 16.4835 10.0203C16.4332 9.97068 16.3735 9.93156 16.3079 9.9052C16.2423 9.87885 16.1722 9.86579 16.1015 9.86679H8.63483ZM8.63483 12.0001C8.34043 12.0001 8.1015 12.2391 8.1015 12.5335V15.2001C8.1015 15.4945 8.34043 15.7335 8.63483 15.7335H11.3015C11.5959 15.7335 11.8348 15.4945 11.8348 15.2001V12.5335C11.8348 12.2391 11.5959 12.0001 11.3015 12.0001H8.63483ZM13.4348 12.0001C13.1404 12.0001 12.9015 12.2391 12.9015 12.5335V15.2001C12.9015 15.4945 13.1404 15.7335 13.4348 15.7335H16.1015C16.3959 15.7335 16.6348 15.4945 16.6348 15.2001V12.5335C16.6348 12.2391 16.3959 12.0001 16.1015 12.0001H13.4348Z" fill="#3C8F50"/>
</svg>
