<?xml version="1.0" encoding="UTF-8"?> <svg xmlns="http://www.w3.org/2000/svg" width="25" height="24" viewBox="0 0 25 24" fill="none"><rect y="0.000305176" width="24.7363" height="24.0003" rx="3" fill="#BDE25F" fill-opacity="0.17"></rect><path d="M18.3682 6.00046L15.0203 6.50621L15.9948 7.48072L14.0594 9.41616L13.0429 8.46386L10.4685 11.1024L9.53099 10.1649L6.55936 13.0761L7.44382 13.9778L9.52112 11.9412L10.4784 12.8985L13.0824 10.2315L14.0877 11.174L16.8879 8.37381L17.8624 9.34832L18.3682 6.00046ZM16.4734 11.0531V18.0005H17.7366V11.0531H16.4734ZM13.9471 12.3162V18.0005H15.2103V12.3162H13.9471ZM11.4208 13.5794V18.0005H12.684V13.5794H11.4208ZM8.89448 14.8426V18.0005H10.1576V14.8426H8.89448ZM6.36816 16.1057V18.0005H7.63132V16.1057H6.36816Z" fill="#7D963D"></path></svg> 