<?xml version="1.0" encoding="UTF-8"?> <svg xmlns="http://www.w3.org/2000/svg" width="25" height="24" viewBox="0 0 25 24" fill="none"><rect width="24.7363" height="24.0003" rx="3" fill="#67D1EF" fill-opacity="0.17"></rect><path d="M10.0247 6.25491L9.54752 6.63616C9.41798 6.74026 6.36816 9.21706 6.36816 12.4219C6.36816 14.1303 7.16714 15.0584 7.79841 15.5261C7.66862 15.7383 7.54795 15.9485 7.44721 16.15C7.14642 16.7515 6.95967 17.2525 6.95967 17.7454H8.14269C8.14269 17.6468 8.2517 17.1866 8.50545 16.6791C8.75921 16.1716 9.14067 15.5801 9.62262 15.0293C10.4612 14.071 11.5808 13.2557 12.8748 13.0596C12.8879 13.0577 12.9008 13.0555 12.914 13.0538C13.0948 13.0282 13.2791 13.0134 13.4663 13.0134V14.1964C11.8171 14.1964 10.5143 15.5681 9.78436 16.8582C10.477 17.0084 11.3806 17.1539 12.2833 17.1539C15.5573 17.1539 16.9077 15.1284 18.099 13.3415L18.3682 12.9383L18.025 12.5951C17.9452 12.5153 16.0476 10.6473 13.4663 10.6473C11.8281 10.6473 10.6519 11.4972 9.82595 12.5073C9.87887 11.9046 9.91722 11.2821 9.91722 10.6473H8.7342C8.7342 12.0535 8.56155 13.475 8.34602 14.4413C7.97064 14.1005 7.55118 13.4904 7.55118 12.4219C7.55118 10.4835 9.02078 8.77428 9.80631 7.9994C10.1092 8.49272 10.5345 9.27501 10.8137 10.1552C11.1544 9.96648 11.5157 9.8055 11.9055 9.69075C11.3696 8.06765 10.4453 6.81636 10.3909 6.7436L10.0247 6.25491Z" fill="#3A8195"></path></svg> 