<svg width="24" height="24" viewBox="0 0 24 24" fill="none" xmlns="http://www.w3.org/2000/svg">
<rect width="24" height="24" rx="3" fill="#FFD4AF" fill-opacity="0.5"/>
<path d="M16.3977 5.37607C15.3254 5.37607 14.4527 6.24872 14.4527 7.32107C14.4527 7.62044 14.5264 7.90067 14.6477 8.15428L12.2393 10.5627H9.14704C8.87846 9.80986 8.16495 9.26607 7.32107 9.26607C6.24873 9.26607 5.37607 10.1387 5.37607 11.2111C5.37607 12.2834 6.24873 13.1561 7.32107 13.1561C8.16495 13.1561 8.87846 12.6123 9.14704 11.8594H12.2393L14.6477 14.2679C14.5264 14.5215 14.4527 14.8017 14.4527 15.1011C14.4527 16.1734 15.3254 17.0461 16.3977 17.0461C17.4701 17.0461 18.3427 16.1734 18.3427 15.1011C18.3427 14.0287 17.4701 13.1561 16.3977 13.1561C16.0984 13.1561 15.8181 13.2297 15.5645 13.3511L13.4245 11.2111L15.5645 9.07106C15.8181 9.19245 16.0984 9.26607 16.3977 9.26607C17.4701 9.26607 18.3427 8.39341 18.3427 7.32107C18.3427 6.24872 17.4701 5.37607 16.3977 5.37607Z" fill="#D87928"/>
</svg>
