<svg width="25" height="24" viewBox="0 0 25 24" fill="none" xmlns="http://www.w3.org/2000/svg">
<rect width="24.7363" height="24.0003" rx="3" fill="#67D1EF" fill-opacity="0.17"/>
<path d="M12.3682 4.52016C8.79817 4.52016 5.90817 7.41016 5.90817 10.9802C5.90817 11.2182 5.90803 11.4222 5.94203 11.6602H10.4643C10.3963 11.4562 10.3282 11.2182 10.3282 10.9802C10.3282 9.85816 11.2462 8.94016 12.3682 8.94016C13.4902 8.94016 14.4082 9.85816 14.4082 10.9802C14.4082 11.2182 14.3739 11.4562 14.3059 11.6602H18.7943C18.8283 11.4222 18.8282 11.2182 18.8282 10.9802C18.8282 7.41016 15.9382 4.52016 12.3682 4.52016ZM12.3682 10.3002C12.1878 10.3002 12.0149 10.3718 11.8873 10.4993C11.7598 10.6268 11.6882 10.7998 11.6882 10.9802C11.6882 11.1605 11.7598 11.3335 11.8873 11.461C12.0149 11.5885 12.1878 11.6602 12.3682 11.6602C12.5485 11.6602 12.7215 11.5885 12.849 11.461C12.9765 11.3335 13.0482 11.1605 13.0482 10.9802C13.0482 10.7998 12.9765 10.6268 12.849 10.4993C12.7215 10.3718 12.5485 10.3002 12.3682 10.3002ZM5.22817 12.3402C5.02417 12.3402 4.88817 12.4762 4.88817 12.6802V19.1402C4.88817 19.3442 5.02417 19.4802 5.22817 19.4802H19.5082C19.7122 19.4802 19.8482 19.3442 19.8482 19.1402V12.6802C19.8482 12.4762 19.7122 12.3402 19.5082 12.3402H5.22817ZM10.3282 14.0402H14.4082C14.6122 14.0402 14.7482 14.1762 14.7482 14.3802C14.7482 14.5842 14.6122 14.7202 14.4082 14.7202H10.3282C10.1242 14.7202 9.98817 14.5842 9.98817 14.3802C9.98817 14.1762 10.1242 14.0402 10.3282 14.0402Z" fill="#3A8195"/>
</svg>
