<svg width="25" height="22" viewBox="0 0 25 22" fill="none" xmlns="http://www.w3.org/2000/svg">
<rect y="0.906281" width="24.7521" height="20.996" rx="3" fill="#51CAA7" fill-opacity="0.17"/>
<path d="M6.40046 6.28235C6.12878 6.28235 5.86822 6.39028 5.67611 6.58239C5.484 6.7745 5.37607 7.03505 5.37607 7.30674C5.37607 7.57842 5.484 7.83898 5.67611 8.03109C5.86822 8.2232 6.12878 8.33113 6.40046 8.33113C6.67215 8.33113 6.93271 8.2232 7.12482 8.03109C7.31693 7.83898 7.42485 7.57842 7.42485 7.30674C7.42485 7.03505 7.31693 6.7745 7.12482 6.58239C6.93271 6.39028 6.67215 6.28235 6.40046 6.28235ZM9.13217 6.62381V7.98967H19.3761V6.62381H9.13217ZM6.40046 10.3799C6.12878 10.3799 5.86822 10.4878 5.67611 10.6799C5.484 10.8721 5.37607 11.1326 5.37607 11.4043C5.37607 11.676 5.484 11.9365 5.67611 12.1287C5.86822 12.3208 6.12878 12.4287 6.40046 12.4287C6.67215 12.4287 6.93271 12.3208 7.12482 12.1287C7.31693 11.9365 7.42485 11.676 7.42485 11.4043C7.42485 11.1326 7.31693 10.8721 7.12482 10.6799C6.93271 10.4878 6.67215 10.3799 6.40046 10.3799ZM9.13217 10.7214V12.0872H19.3761V10.7214H9.13217ZM6.40046 14.4775C6.12878 14.4775 5.86822 14.5854 5.67611 14.7775C5.484 14.9696 5.37607 15.2302 5.37607 15.5019C5.37607 15.7735 5.484 16.0341 5.67611 16.2262C5.86822 16.4183 6.12878 16.5263 6.40046 16.5263C6.67215 16.5263 6.93271 16.4183 7.12482 16.2262C7.31693 16.0341 7.42485 15.7735 7.42485 15.5019C7.42485 15.2302 7.31693 14.9696 7.12482 14.7775C6.93271 14.5854 6.67215 14.4775 6.40046 14.4775ZM9.13217 14.8189V16.1848H19.3761V14.8189H9.13217Z" fill="#3C9379"/>
</svg>
