<svg width="25" height="24" viewBox="0 0 25 24" fill="none" xmlns="http://www.w3.org/2000/svg">
<rect width="24.7363" height="24.0003" rx="3" fill="#6FE68B" fill-opacity="0.17"/>
<path d="M12.3682 4.63348C9.86463 4.63348 7.83483 6.66328 7.83483 9.16682C7.83483 12.5668 11.8015 13.7002 11.8015 15.9668C11.8015 16.2796 12.0554 16.5335 12.3682 16.5335C12.681 16.5335 12.9348 16.2796 12.9348 15.9668C12.9348 13.7002 16.9015 12.5668 16.9015 9.16682C16.9015 6.66328 14.8717 4.63348 12.3682 4.63348ZM12.3682 8.03348C12.9943 8.03348 13.5015 8.54065 13.5015 9.16682C13.5015 9.79298 12.9943 10.3002 12.3682 10.3002C11.742 10.3002 11.2348 9.79298 11.2348 9.16682C11.2348 8.54065 11.742 8.03348 12.3682 8.03348ZM9.18399 13.9591C6.82949 14.3615 5.0015 15.2279 5.0015 16.5335C5.0015 18.3933 8.7075 19.3668 12.3682 19.3668C16.0288 19.3668 19.7348 18.3933 19.7348 16.5335C19.7348 15.2279 17.9068 14.3615 15.5523 13.9591C15.5064 14.005 15.4599 14.0505 15.414 14.0953C15.104 14.4007 14.8157 14.6877 14.5839 14.9597C17.1974 15.2674 18.6015 16.0734 18.6015 16.5335C18.6015 17.1109 16.4011 18.2335 12.3682 18.2335C8.3352 18.2335 6.13483 17.1109 6.13483 16.5335C6.13483 16.0734 7.53894 15.2674 10.1524 14.9597C9.92008 14.6877 9.63173 14.4007 9.32233 14.0953C9.277 14.0505 9.23045 14.005 9.18399 13.9591Z" fill="#498D41"/>
</svg>
