<?xml version="1.0"?>
<svg xmlns="http://www.w3.org/2000/svg" width="25" height="24" viewBox="0 0 25 24" fill="none">
<rect width="24.7363" height="24.0003" fill="#DCF0EA"/>
<g>
<path d="M18.0348 3.50015V4.3496C17.3265 4.5621 16.6182 5.20015 16.6182 6.33349C16.6182 7.67932 17.7512 8.1046 18.4596 8.38793C19.3096 8.7421 19.4515 8.81265 19.4515 9.16682C19.4515 9.52099 19.3098 9.87515 18.7432 9.87515C18.1765 9.87515 18.0348 9.52099 18.0348 9.16682H16.6182C16.6182 9.87515 17.0432 10.8674 18.0348 11.1507V12.0002H19.4515V11.1507C20.4432 10.8674 20.8682 9.87515 20.8682 9.16682C20.8682 7.82099 19.7351 7.39571 19.0268 7.11238C18.1768 6.75821 18.0348 6.68765 18.0348 6.33349C18.0348 5.76682 18.389 5.62515 18.7432 5.62515C19.3098 5.62515 19.4515 5.97932 19.4515 6.33349H20.1598H20.8682C20.8682 5.62515 20.4432 4.63293 19.4515 4.3496V3.50015H18.0348ZM6.7015 6.33349C5.92021 6.33349 5.28483 6.96886 5.28483 7.75015V14.8335C5.28483 15.6148 5.92021 16.2502 6.7015 16.2502H3.86817V17.6668H20.8682V16.2502H18.0348C18.8161 16.2502 19.4515 15.6148 19.4515 14.8335V13.4168H18.0362V14.8335H6.7015V7.75015H15.2015V6.33349H6.7015Z" fill="#3C9379"/>
</g>
<defs>

</defs>
</svg>
