<svg width="25" height="24" viewBox="0 0 25 24" fill="none" xmlns="http://www.w3.org/2000/svg">
<rect width="24.7363" height="24.0003" rx="3" fill="#BDE25F" fill-opacity="0.17"/>
<g clip-path="url(#clip0_1296_2)">
<path d="M11.7682 5.40015C11.6029 5.40015 11.4682 5.53491 11.4682 5.70015V8.02515L10.2682 11.1001V17.4001C10.3924 17.7494 10.7768 18.0001 11.1682 18.0001H16.8682C17.5303 18.0001 18.0682 17.4623 18.0682 16.8001C18.0682 16.5529 17.9897 16.3255 17.8619 16.1345C18.3295 15.9705 18.6682 15.5228 18.6682 15.0001C18.6682 14.706 18.5627 14.44 18.3869 14.2314C18.735 14.0216 18.9682 13.6361 18.9682 13.2001C18.9682 12.906 18.8627 12.64 18.6869 12.4314C19.035 12.2216 19.2682 11.8361 19.2682 11.4001C19.2682 10.738 18.7303 10.2001 18.0682 10.2001H13.6807C13.8635 9.62124 14.1682 8.5853 14.1682 8.10015C14.1682 6.97046 13.3408 5.40015 12.5275 5.40015H11.7682ZM5.76817 10.2001C5.68262 10.2001 5.60059 10.2388 5.54317 10.3033C5.48574 10.3677 5.45762 10.4521 5.46817 10.5376L6.36817 17.7376C6.38692 17.8876 6.51699 18.0001 6.66817 18.0001H9.36817C9.5334 18.0001 9.66817 17.8666 9.66817 17.7001V10.5001C9.66817 10.3349 9.5334 10.2001 9.36817 10.2001H5.76817ZM8.31817 15.9001C8.5666 15.9001 8.76817 16.1017 8.76817 16.3501C8.76817 16.5986 8.5666 16.8001 8.31817 16.8001C8.06973 16.8001 7.86817 16.5986 7.86817 16.3501C7.86817 16.1017 8.06973 15.9001 8.31817 15.9001Z" fill="#7D963D"/>
</g>
<defs>
<clipPath id="clip0_1296_2">
<rect width="15" height="15" fill="white" transform="translate(4.86817 4.50015)"/>
</clipPath>
</defs>
</svg>
