<svg width="25" height="27" viewBox="0 0 25 27" fill="none" xmlns="http://www.w3.org/2000/svg">
<rect y="0.404297" width="24.7521" height="26.3077" rx="3" fill="#6FE68B" fill-opacity="0.17"/>
<path d="M17.8205 7.33592H14.5663C14.2451 6.43137 13.3903 5.78036 12.3761 5.78036C11.3618 5.78036 10.5071 6.43137 10.1858 7.33592H6.93163C6.07218 7.33592 5.37607 8.03203 5.37607 8.89148V19.7804C5.37607 20.6398 6.07218 21.3359 6.93163 21.3359H17.8205C18.68 21.3359 19.3761 20.6398 19.3761 19.7804V8.89148C19.3761 8.03203 18.68 7.33592 17.8205 7.33592ZM9.26496 17.447H7.70941V15.8915H9.26496V17.447ZM8.48718 13.947C7.84318 13.947 7.32052 13.4244 7.32052 12.7804C7.32052 12.1364 7.84318 11.6137 8.48718 11.6137C9.13118 11.6137 9.65385 12.1364 9.65385 12.7804C9.65385 13.4244 9.13118 13.947 8.48718 13.947ZM12.3761 7.33592C12.8054 7.33592 13.1538 7.68437 13.1538 8.1137C13.1538 8.54303 12.8054 8.89148 12.3761 8.89148C11.9467 8.89148 11.5983 8.54303 11.5983 8.1137C11.5983 7.68437 11.9467 7.33592 12.3761 7.33592ZM17.0427 17.447H11.5983V15.8915H17.0427V17.447ZM17.0427 13.5581H11.5983V12.0026H17.0427V13.5581Z" fill="#3C8F50"/>
</svg>
