<svg width="25" height="24" viewBox="0 0 25 24" fill="none" xmlns="http://www.w3.org/2000/svg">
<rect width="24.7363" height="24.0003" rx="3" fill="#94C1FF" fill-opacity="0.17"/>
<path d="M12.2626 3.42407C12.0977 3.45045 11.9468 3.54333 11.8479 3.67521L9.92247 5.59416C9.73784 5.78538 9.67788 6.06882 9.78338 6.3128C9.88229 6.56337 10.1262 6.72105 10.39 6.72105H11.7088V19.909C11.7022 20.2717 11.9925 20.5761 12.3617 20.5761C12.7244 20.5827 13.021 20.2923 13.0276 19.9296V6.72105H14.3464C14.6101 6.72105 14.854 6.56337 14.9529 6.3128C15.0585 6.06882 14.9998 5.78538 14.8151 5.59416L12.8898 3.67521C12.7908 3.54333 12.6451 3.45045 12.4802 3.42407H12.2626ZM7.64678 8.03985C7.48194 8.06622 7.331 8.15911 7.23209 8.29098L5.3067 10.2099C5.12207 10.4012 5.0621 10.6846 5.16761 10.9286C5.26652 11.1791 5.51044 11.3368 5.7742 11.3368H7.09299V15.9526V17.2714C7.09299 17.3518 7.06332 19.2496 4.45541 19.2496C4.09142 19.2496 3.79601 19.5443 3.79601 19.909C3.79601 20.2736 4.09142 20.5684 4.45541 20.5684C7.5849 20.5684 8.41179 18.4122 8.41179 17.2714V15.9732V15.9526V11.3368H9.73058C9.99434 11.3368 10.2383 11.1791 10.3372 10.9286C10.4427 10.6846 10.384 10.4012 10.1994 10.2099L8.27398 8.29098C8.17507 8.15911 8.02929 8.06622 7.86444 8.03985H7.64678ZM16.8783 8.03985C16.7135 8.06622 16.5625 8.15911 16.4636 8.29098L14.5382 10.2099C14.3536 10.4012 14.2937 10.6846 14.3992 10.9286C14.4981 11.1791 14.742 11.3368 15.0058 11.3368H16.3245V15.9526V17.2714C16.3245 18.4115 17.1514 20.5684 20.2809 20.5684C20.6449 20.5684 20.9403 20.2736 20.9403 19.909C20.9403 19.5443 20.6449 19.2496 20.2809 19.2496C17.7528 19.2496 17.6466 17.4686 17.6433 17.2714V15.9732V15.9526V11.3368H18.9621C19.2259 11.3368 19.4698 11.1791 19.5687 10.9286C19.6742 10.6846 19.6156 10.4012 19.4309 10.2099L17.5055 8.29098C17.4066 8.15911 17.2608 8.06622 17.096 8.03985H16.8783Z" fill="#3D6396"/>
</svg>
