<?xml version="1.0" encoding="UTF-8"?> <svg xmlns="http://www.w3.org/2000/svg" width="26" height="24" viewBox="0 0 26 24" fill="none"><rect x="0.736328" width="24.7363" height="24.0003" rx="3" fill="#94C1FF" fill-opacity="0.17"></rect><path d="M9.48164 6.00015L7.60449 6.0107L7.60986 7.21046L8.74883 7.2046L10.5615 11.9463L9.90284 13.0945C9.44162 13.8976 10.0024 15.0007 10.871 15.0007H17.5049V13.801H10.871C10.8097 13.801 10.8027 13.7878 10.8355 13.7307L11.4823 12.6012H15.5912C15.9906 12.6012 16.3592 12.3647 16.5529 11.9837L18.5343 8.09271C18.7384 7.69319 18.4732 7.20226 18.054 7.20226H9.94044L9.48164 6.00015ZM10.9032 15.6006C10.6114 15.6006 10.3315 15.727 10.1252 15.952C9.91883 16.177 9.80291 16.4822 9.80291 16.8004C9.80291 17.1186 9.91883 17.4237 10.1252 17.6487C10.3315 17.8737 10.6114 18.0002 10.9032 18.0002C11.195 18.0002 11.4749 17.8737 11.6812 17.6487C11.8876 17.4237 12.0035 17.1186 12.0035 16.8004C12.0035 16.4822 11.8876 16.177 11.6812 15.952C11.4749 15.727 11.195 15.6006 10.9032 15.6006ZM16.4046 15.6006C16.1128 15.6006 15.8329 15.727 15.6266 15.952C15.4202 16.177 15.3043 16.4822 15.3043 16.8004C15.3043 17.1186 15.4202 17.4237 15.6266 17.6487C15.8329 17.8737 16.1128 18.0002 16.4046 18.0002C16.6964 18.0002 16.9763 17.8737 17.1826 17.6487C17.389 17.4237 17.5049 17.1186 17.5049 16.8004C17.5049 16.4822 17.389 16.177 17.1826 15.952C16.9763 15.727 16.6964 15.6006 16.4046 15.6006Z" fill="#3D6396"></path></svg> 