<?xml version="1.0" encoding="UTF-8"?> <svg xmlns="http://www.w3.org/2000/svg" width="25" height="25" viewBox="0 0 25 25" fill="none"><rect y="0.499847" width="24.7363" height="24.0003" rx="3" fill="#67D1EF" fill-opacity="0.17"></rect><path d="M8.00453 8.5C5.99653 8.5 4.36816 10.2912 4.36816 12.5C4.36816 14.7088 5.99653 16.5 8.00453 16.5H10.9136V14.9H8.00453C6.79944 14.9 5.82271 13.8256 5.82271 12.5C5.82271 11.1744 6.79944 10.1 8.00453 10.1H10.9136V8.5H8.00453ZM13.8227 8.5V10.1H16.7318C17.9369 10.1 18.9136 11.1744 18.9136 12.5C18.9136 13.8256 17.9369 14.9 16.7318 14.9H13.8227V16.5H16.7318C18.7398 16.5 20.3682 14.7088 20.3682 12.5C20.3682 10.2912 18.7398 8.5 16.7318 8.5H13.8227ZM8.7318 11.7V13.3H16.0045V11.7H8.7318Z" fill="#3A8195"></path></svg> 