<?xml version="1.0" encoding="UTF-8"?> <svg xmlns="http://www.w3.org/2000/svg" width="120" height="62" viewBox="0 0 120 62" fill="none"><g clip-path="url(#clip0_519_616)"><path d="M77.8216 0L43.7791 25.8892L45.3322 25.325L58.7379 20.4839L67.0716 19.9445L71.4889 16.3902L79.4472 19.3119L84.8787 20.3284L80.0788 15.6277L78.4365 11.8183L76.0423 9.90873L75.9416 7.09011L80.7123 6.98614L87.4734 11.9427L99.4099 20.7087L96.7896 15.083L99.3313 11.143L101.346 15.083L107.873 21.2143L110.667 18.904L119.999 25.883L110.314 15.6544L107.369 17.787L99.0291 7.20385L92.5904 12.9451L93.8812 10.5805L77.8216 0Z" fill="white"></path><mask id="mask0_519_616" style="mask-type:luminance" maskUnits="userSpaceOnUse" x="0" y="0" width="120" height="62"><path d="M120 0H0V62H120V0Z" fill="white"></path></mask><g mask="url(#mask0_519_616)"><path d="M120 25.8892L119.302 25.1517L119.322 25.1926C119.364 25.2943 119.412 25.3934 119.466 25.4893L120 25.8892ZM117.954 24.3155C118.192 24.3122 118.429 24.361 118.647 24.4586L118.335 24.1289C118.209 24.1037 118.082 24.0906 117.954 24.0898C117.844 24.0909 117.734 24.0986 117.625 24.1129L117.9 24.3191C117.918 24.3191 117.936 24.3191 117.954 24.3191M116.54 22.2362L116.147 21.8203C115.658 21.5705 115.245 21.1938 114.949 20.7291C114.871 20.6054 114.804 20.4756 114.747 20.3408L114.389 19.9632C114.459 20.2795 114.585 20.5805 114.761 20.8518C115.182 21.5023 115.809 21.9903 116.54 22.2362ZM111.505 18.2606C111.701 18.0126 111.878 17.7497 112.035 17.4742L111.872 17.3027C111.713 17.5897 111.53 17.8632 111.326 18.1202C111.104 18.4001 110.889 18.6676 110.677 18.92L110.859 19.0559C111.07 18.8053 111.284 18.5379 111.502 18.2615M110.056 15.841L109.756 16.0569C109.411 17.1232 108.898 18.0634 108.248 18.234C107.694 18.3797 107.094 17.9381 106.461 16.9233C105.791 15.9271 105.013 15.0094 104.141 14.1873C103.147 13.2829 102.301 12.2268 101.635 11.0577C101.421 10.6374 101.227 10.2002 101.041 9.77631L101.021 9.7301L100.438 8.99168C100.577 9.28402 100.709 9.57726 100.836 9.86783C101.023 10.2944 101.218 10.7351 101.435 11.1607C102.114 12.3492 102.974 13.424 103.982 14.3464C104.843 15.1566 105.61 16.0612 106.271 17.0432C106.871 18.0029 107.465 18.4872 108.038 18.4872C108.127 18.4871 108.216 18.4754 108.303 18.4526C109.108 18.2411 109.693 17.0717 110.054 15.841M100.601 12.2662C99.4906 11.0973 98.4766 9.83969 97.5689 8.50562L97.3993 8.65668C97.9798 9.5365 98.622 10.3736 99.3208 11.1616L99.3332 11.143L99.3747 11.2229C99.7281 11.6264 100.081 12.0227 100.435 12.4172C100.665 12.6714 100.893 12.9246 101.116 13.177C101.653 13.783 102.241 14.3863 102.81 14.9693C104.096 16.1916 105.243 17.5542 106.23 19.0319C106.913 20.1542 107.587 20.7203 108.291 20.7647C108.336 20.7647 108.379 20.7647 108.424 20.7647L108.769 20.4794C108.619 20.5267 108.461 20.5471 108.304 20.5399C107.679 20.5008 107.067 19.9694 106.42 18.9146C105.427 17.423 104.271 16.0475 102.975 14.8138C102.401 14.2255 101.817 13.6266 101.287 13.0286C101.062 12.7756 100.835 12.5218 100.604 12.267M98.5796 12.3132C97.9444 11.4247 97.2252 10.4605 96.4416 9.51417L96.2737 9.66434C97.0689 10.6285 97.8057 11.613 98.4497 12.5158L98.5796 12.3132ZM96.2287 13.3716C96.04 12.9314 95.7623 12.5356 95.4132 12.2093C95.1589 11.9578 94.9374 11.6747 94.7542 11.3669L94.7374 11.3331L94.5227 11.2247L94.3416 11.3864L94.5722 11.502C94.7632 11.8143 94.99 12.103 95.2481 12.3621C95.5728 12.6649 95.8334 13.0306 96.014 13.4373C96.1327 13.9734 96.0705 14.534 95.8373 15.0306C95.7061 15.3661 95.6202 15.7179 95.582 16.0765C95.4627 17.9132 96.7649 18.17 98.0257 18.4188L98.379 18.4908L98.2607 18.2366L98.0725 18.1984C96.8012 17.9478 95.703 17.731 95.8099 16.0924C95.8468 15.754 95.9285 15.4219 96.0529 15.1052C96.3018 14.5635 96.3639 13.9537 96.2296 13.3725M93.7771 16.5758L94.013 16.7536C94.0015 16.6141 93.9971 16.4692 93.9953 16.3261C94.0203 15.9787 93.9618 15.6304 93.8248 15.3105C93.6957 15.0668 93.5015 14.8643 93.2641 14.7258C93.0266 14.5873 92.7554 14.5184 92.481 14.5267C92.0963 14.5371 91.7191 14.6372 91.3794 14.8191L91.5852 14.9702C91.8652 14.8348 92.1705 14.7606 92.481 14.7524C92.7154 14.7454 92.9471 14.8043 93.15 14.9225C93.3529 15.0408 93.519 15.2136 93.6296 15.4216C93.7463 15.7088 93.7947 16.0194 93.7709 16.3288C93.7709 16.4123 93.7709 16.4959 93.7771 16.5794M93.6366 11.0363L93.7453 10.8382L92.3317 10.1273C91.9925 9.66523 91.6718 9.44131 91.3493 9.44131C90.3642 9.44131 89.805 11.6628 89.4799 13.4249L89.6822 13.5733C89.9817 11.9445 90.5215 9.66346 91.3493 9.66346C91.5958 9.66346 91.8715 9.8705 92.1665 10.2793L92.1824 10.3015L93.6366 11.0363ZM88.4993 7.23937C88.5161 7.1825 88.5364 7.13362 88.554 7.07942L88.3614 6.95235C88.3358 7.02699 88.3067 7.0963 88.2837 7.17628C88.2064 7.52639 88.1933 7.88773 88.2448 8.24259C88.2748 8.49534 88.2789 8.75052 88.2572 9.00412C88.2124 9.2868 88.1414 9.56466 88.0452 9.83407C87.884 10.2475 87.8036 10.6883 87.8084 11.1323C87.8326 11.5388 87.8944 11.9422 87.993 12.3372L88.2775 12.5461C88.1456 12.0804 88.063 11.6021 88.031 11.119C88.029 10.7049 88.1051 10.2942 88.2554 9.90871C88.3566 9.62425 88.4311 9.33093 88.4781 9.03255C88.5019 8.76333 88.4981 8.49236 88.4666 8.22393C88.4189 7.8989 88.4291 7.56792 88.4966 7.24648M86.6564 10.3583C86.9175 8.92986 87.0236 7.47707 86.9726 6.02554L86.7332 5.86737C86.8084 7.35499 86.7085 8.84634 86.4355 10.3104C86.3966 10.5769 86.3595 10.8364 86.3251 11.0923L86.5309 11.2434C86.5698 10.9537 86.6122 10.6587 86.6564 10.3548M84.9495 10.0838L85.1925 10.2615C85.1765 9.54881 85.0068 8.84813 84.6951 8.20794L84.6509 8.13063L84.5626 8.15462C84.4565 8.18483 84.3223 8.23282 84.1694 8.28702C83.7776 8.43891 83.3719 8.55172 82.9582 8.6238L83.2153 8.81218C83.5652 8.73108 83.9093 8.62658 84.2454 8.4994C84.3549 8.4603 84.4548 8.42475 84.5405 8.39632C84.781 8.92817 84.9192 9.50105 84.9478 10.0847M82.5995 6.02554C82.7779 5.65485 82.8763 5.25037 82.8882 4.83869C82.9 4.42702 82.8251 4.01748 82.6684 3.637C82.3265 3.0061 81.6003 2.58224 80.3122 2.2659C79.7932 2.15451 79.2656 2.08881 78.7352 2.06952C77.7935 2.11558 76.8626 1.85031 76.0848 1.31421L75.9028 1.45283C76.7221 2.04553 77.7166 2.3421 78.7246 2.29433C79.2418 2.31283 79.7565 2.37645 80.2627 2.48449C81.4837 2.78484 82.1666 3.17315 82.4714 3.74452C82.6115 4.09776 82.6764 4.47662 82.662 4.85666C82.6475 5.23669 82.554 5.60946 82.3875 5.9509C82.3138 6.14289 82.2298 6.33067 82.1357 6.51338C81.9345 6.88358 81.781 7.27803 81.6789 7.68722L81.883 7.83739C81.9698 7.40815 82.123 6.99527 82.3371 6.6138C82.4362 6.4228 82.5247 6.22642 82.6021 6.02554M76.4497 3.81472C75.7774 3.45508 75.1891 2.95521 74.7243 2.34854L74.5476 2.48449C75.0326 3.11742 75.6465 3.63881 76.3481 4.01376C77.6318 4.68821 77.8155 4.89614 77.8138 6.57381V6.82706L78.0011 6.65734C78.191 6.46842 78.3681 6.26684 78.5312 6.05398C79.0109 5.46395 79.6063 4.73086 80.1399 4.73086C80.2758 4.71436 80.4137 4.73047 80.5422 4.77789C80.6708 4.82531 80.7863 4.90268 80.8794 5.00366C81.1321 5.36532 80.8909 6.06553 80.6956 6.62801C80.6523 6.7533 80.6135 6.87149 80.579 6.98345H80.7186L80.7972 7.04121C80.8299 6.93547 80.8679 6.82439 80.9085 6.70532C81.1197 6.09397 81.3821 5.33333 81.064 4.87659C80.9527 4.74557 80.8114 4.64366 80.6523 4.57959C80.4932 4.51552 80.321 4.4912 80.1505 4.50871C79.5003 4.50871 78.8669 5.28801 78.358 5.91536L78.0417 6.30456L78.0276 6.01133C77.9675 4.74064 77.6742 4.46073 76.4515 3.81827M74.4283 5.1254C74.0038 4.58904 73.6586 3.99374 73.4035 3.35798L73.2198 3.49749C73.4796 4.13424 73.8282 4.73055 74.2552 5.26846C74.5092 5.57018 74.7944 5.84392 75.106 6.08508C75.4695 6.33825 75.7595 6.68421 75.9461 7.08742L76.1864 7.08209C75.9914 6.60903 75.6655 6.20223 75.2473 5.91003C74.9473 5.67853 74.6728 5.4155 74.4283 5.1254ZM73.6288 6.7302C73.3761 6.17572 73.1137 5.60168 72.7975 5.03298C72.7029 4.86148 72.6075 4.69265 72.5121 4.52382L72.3204 4.18171L72.1437 4.31944L72.3204 4.63578C72.4152 4.80402 72.51 4.97315 72.6049 5.14317C72.9167 5.70476 73.1765 6.27435 73.4283 6.82528C73.9785 8.41141 74.9907 9.79423 76.3331 10.7938C76.4789 10.8897 76.6158 10.9786 76.7413 11.0603C77.2872 11.4158 77.6486 11.6459 77.6521 11.8681C77.6556 12.0902 77.3623 12.3675 76.6388 12.8651C76.3737 13.0428 76.1299 13.2516 75.8923 13.4507C75.409 13.9401 74.8035 14.2895 74.1395 14.4619C73.5489 14.5781 72.9389 14.5463 72.3635 14.3693C71.788 14.1923 71.2647 13.8756 70.8397 13.4471C70.7187 13.3014 70.5994 13.161 70.4863 13.0232C69.9407 12.4129 69.4483 11.7564 69.0145 11.0612C68.7974 10.6706 68.6274 10.2554 68.5083 9.82429C68.3573 9.08723 67.954 8.42684 67.3686 7.95824L67.1786 8.10308C67.7577 8.54179 68.1549 9.18055 68.2936 9.89627C68.4185 10.3444 68.5965 10.7757 68.8237 11.1812C69.2643 11.8866 69.7638 12.5531 70.3167 13.1734C70.4324 13.3103 70.5508 13.4507 70.6701 13.5964C71.1206 14.0547 71.6765 14.3941 72.2886 14.5846C72.9007 14.7751 73.5501 14.8108 74.1792 14.6885C74.8829 14.5103 75.5257 14.1444 76.0398 13.6293C76.273 13.4329 76.5151 13.2312 76.7695 13.0561C77.5947 12.4883 77.8853 12.1773 77.88 11.8698C77.8756 11.5268 77.4957 11.2816 76.8667 10.8755C76.7413 10.7949 76.6058 10.7061 76.4603 10.6089C75.1541 9.63077 74.1694 8.28128 73.6332 6.73464M72.3469 7.80096C71.8168 6.97812 71.2744 6.12951 70.8503 5.304L70.6736 5.44174C71.0994 6.26635 71.6375 7.10785 72.1623 7.92358L72.3098 8.15373C72.5388 8.48712 72.8021 8.79538 73.0952 9.07343C73.5982 9.46808 73.9383 10.0359 74.0502 10.6676C74.1019 10.9498 74.0699 11.241 73.9582 11.505C73.8465 11.769 73.66 11.9942 73.4221 12.1524C73.1904 12.2551 72.9333 12.2856 72.6842 12.24C72.4351 12.1944 72.2053 12.0748 72.0244 11.8965C71.4417 11.2873 71.0311 10.5327 70.8353 9.71055C70.7152 9.33856 70.573 8.97417 70.4095 8.61936C70.0892 7.87968 69.573 7.24275 68.9173 6.77819L68.7291 6.92125C69.3834 7.36586 69.8971 7.9901 70.2089 8.71977C70.3683 9.06659 70.5069 9.42266 70.6241 9.78608C70.8339 10.6485 71.2695 11.4386 71.8857 12.0742C72.1012 12.2795 72.3725 12.4157 72.6651 12.4654C72.9577 12.5151 73.2585 12.4761 73.529 12.3532C73.8064 12.1755 74.0254 11.9192 74.1582 11.6165C74.2911 11.3139 74.3319 10.9784 74.2755 10.6525C74.1651 9.96574 73.801 9.34627 73.256 8.91792C72.9744 8.65037 72.7212 8.35406 72.5006 8.03377L72.3469 7.80096ZM68.427 11.9454C67.7988 10.7013 67.1512 9.43242 66.0416 8.95969L65.8314 9.11964C66.9489 9.51861 67.5983 10.8009 68.23 12.0476C68.5784 12.8181 69.0196 13.5427 69.5437 14.2051C69.9912 14.6768 70.5307 15.0504 71.1286 15.3025C71.4155 15.4353 71.693 15.588 71.959 15.7592C72.1702 15.9023 72.3513 16.04 72.5095 16.1609C73.2074 16.694 73.5917 16.9882 74.704 16.2089C74.9986 15.9955 75.28 15.7643 75.5468 15.5166C76.0708 14.9655 76.7376 14.5727 77.4719 14.3828C77.8543 14.3224 78.2431 14.3152 78.6274 14.3615C78.9337 14.3908 79.2417 14.397 79.5489 14.3801L79.4535 14.1597C79.1832 14.1688 78.9127 14.1611 78.6433 14.1366C78.2374 14.0879 77.8268 14.0966 77.4233 14.1624C76.6513 14.3586 75.9499 14.7694 75.3993 15.3478C75.1394 15.5896 74.865 15.8151 74.5777 16.0231C73.6005 16.7091 73.3213 16.4959 72.6481 15.9814C72.4865 15.8579 72.3036 15.7148 72.0863 15.5717C71.8119 15.3951 71.5259 15.2375 71.2302 15.0999C70.6588 14.8597 70.1425 14.504 69.7133 14.0549C69.2021 13.4066 68.7717 12.6978 68.4314 11.9445M65.6865 10.8631C65.4058 10.6788 65.0835 10.5687 64.7494 10.5429C64.4152 10.5171 64.08 10.5765 63.7747 10.7156C63.7376 10.7307 63.7013 10.7511 63.6642 10.768L62.3743 11.7454C61.6165 12.545 61.0624 13.5173 60.7594 14.5792C60.6613 15.0235 60.5747 15.5175 60.4943 15.9565C60.3751 16.749 60.2036 17.5327 59.9811 18.3024C59.7857 18.7919 59.5282 19.2539 59.2151 19.677C59.0384 19.9436 58.8529 20.2218 58.6991 20.4963L58.7407 20.4812L58.9783 20.4661C59.11 20.2449 59.2566 20.0218 59.4024 19.8041C59.7274 19.3629 59.9947 18.8815 60.1975 18.3717C60.4233 17.5921 60.5975 16.7984 60.7187 15.9956C60.8071 15.5015 60.884 15.0528 60.9776 14.628C61.4128 13.0576 62.4487 11.7243 63.8586 10.9199C64.1302 10.7937 64.4294 10.7393 64.7277 10.7618C65.0261 10.7844 65.3138 10.8831 65.5637 11.0488C66.107 11.4657 66.5313 12.0196 66.7934 12.6545C67.0095 13.1083 67.2782 13.5348 67.5939 13.9252C68.2244 14.5855 68.924 15.1754 69.6806 15.6846L70.0799 15.9778C70.2796 16.1262 70.4881 16.2942 70.709 16.471C70.8203 16.5598 70.9342 16.6487 71.0509 16.7438L71.2275 16.5989C71.0985 16.4976 70.9714 16.3955 70.8459 16.2942C70.625 16.1164 70.4157 15.9476 70.2098 15.7957C70.0808 15.6997 69.9448 15.6028 69.814 15.5051C69.0697 15.0044 68.381 14.4247 67.76 13.7759C67.4563 13.3989 67.1977 12.9873 66.9896 12.5496C66.7087 11.8811 66.2578 11.2988 65.6821 10.8613M59.284 14.1722C59.3123 14.1207 59.3441 14.0736 59.3724 14.0256L58.9553 14.3428C58.8 14.7292 58.692 15.1333 58.6338 15.546C58.5772 16.0693 58.412 16.5749 58.1488 17.0299C57.9579 17.3338 57.7751 17.6395 57.5939 17.9416C56.6645 19.4949 55.7873 20.9628 54.0486 21.7324C53.5733 21.9939 53.1263 22.3042 52.7146 22.6583L53.3869 22.4157C53.6226 22.2341 53.8742 22.0743 54.1387 21.9385C55.9427 21.1388 56.8386 19.6424 57.7856 18.0571C57.9623 17.7568 58.1479 17.4529 58.3369 17.1499C58.6157 16.6695 58.7917 16.1359 58.8538 15.5833C58.9131 15.0913 59.0572 14.6135 59.2796 14.1713M56.3535 16.319L55.4763 16.9864C54.9703 17.5258 54.4353 18.0369 53.8737 18.5174C53.6201 18.736 53.3604 18.9431 53.1095 19.1394C52.2868 19.7117 51.5839 20.4408 51.0404 21.2854C50.7213 21.8652 50.4337 22.462 50.179 23.0733C50.0907 23.2687 50.0023 23.4669 49.914 23.6642L50.2073 23.5584C50.2656 23.4269 50.3257 23.2918 50.384 23.1639C50.6355 22.5607 50.9192 21.9716 51.2339 21.3991C51.7644 20.5801 52.4486 19.8729 53.2482 19.3172C53.5008 19.1154 53.7632 18.9075 54.0194 18.6854C54.8681 17.9691 55.6494 17.1758 56.3535 16.3155M48.1789 22.7098C48.2124 22.6272 48.2548 22.5392 48.2928 22.4539L47.9174 22.7391C47.7222 23.1318 47.502 23.5115 47.2583 23.8757C47.0516 24.1991 46.8422 24.5279 46.6743 24.8416L46.9977 24.7252C47.1355 24.487 47.2927 24.2409 47.4473 23.9983C47.7268 23.5905 47.9715 23.1589 48.1789 22.7098ZM60.975 18.8062C60.6763 19.2949 60.4532 19.8265 60.3132 20.3826L60.5474 20.3675C60.6872 19.857 60.8971 19.3686 61.1711 18.9164C61.4817 18.4199 61.708 17.8749 61.8407 17.3036C61.8938 16.9312 61.9122 16.5545 61.8955 16.1786C61.8858 15.2323 61.8761 14.2531 62.7154 13.7999C63.6227 13.3103 64.394 14.046 65.1334 14.7578C65.3683 14.9954 65.6195 15.216 65.8852 15.418C66.2333 15.6668 66.5567 15.8703 66.8685 16.0667C67.5515 16.4559 68.1761 16.9406 68.7238 17.5062C68.8554 17.6484 68.9791 17.7888 69.1002 17.9238L69.3051 18.1531L69.4818 18.0118L69.2698 17.7737C69.1479 17.6359 69.0233 17.4955 68.8899 17.3516C68.3299 16.7724 67.6916 16.2752 66.994 15.8747C66.6848 15.6801 66.365 15.4784 66.0222 15.2332C65.7655 15.0369 65.5226 14.8231 65.2951 14.5934C64.5318 13.8621 63.6669 13.033 62.6155 13.5999C61.657 14.118 61.6676 15.2136 61.6773 16.1769C61.693 16.5382 61.6759 16.9001 61.6261 17.2583C61.4982 17.8056 61.2802 18.3276 60.9811 18.8027M62.7481 20.2244L63.0131 20.2075C63.3652 19.4652 63.8688 18.8057 64.4911 18.2722C65.8985 17.2396 67.1477 18.0811 68.3563 18.8942L68.3731 18.9057L68.5568 18.7573L68.4818 18.7067C67.2661 17.8892 65.8905 16.9642 64.3586 18.0891C63.6744 18.6737 63.1253 19.4015 62.7498 20.2218M74.8851 17.6333L75.1333 17.7221C75.2979 17.5604 75.4344 17.3721 75.5371 17.165C75.664 16.8766 75.8762 16.6345 76.1449 16.4719C76.6732 16.3042 77.2328 16.2613 77.7802 16.3466C78.1727 16.3849 78.568 16.3849 78.9605 16.3466C79.5215 16.2809 80.089 16.2977 80.6453 16.3963L80.9059 16.4292L80.6409 16.168C80.0751 16.0715 79.4986 16.0568 78.9287 16.1244C78.5541 16.1602 78.1769 16.1602 77.8023 16.1244C77.2122 16.0318 76.6086 16.0833 76.0424 16.2746C75.7355 16.4563 75.4919 16.7292 75.3454 17.0557C75.241 17.2826 75.0841 17.4809 74.8877 17.6342M76.9383 18.313C76.9259 18.3335 76.9171 18.3539 76.9047 18.3744L77.1176 18.4526L77.1291 18.4312C77.7882 17.3569 78.2007 17.3649 79.5294 17.5471C79.9557 17.6295 80.3731 17.7526 80.776 17.915C81.4357 18.2164 82.1533 18.3681 82.8778 18.3593L82.6604 18.146C82.0373 18.0998 81.4262 17.9496 80.852 17.7017C80.4347 17.5337 80.0021 17.4069 79.5604 17.3232C78.1804 17.1303 77.6671 17.125 76.9383 18.3122M80.1364 18.6765C79.6831 18.6838 79.2428 18.8305 78.8748 19.0968L79.1399 19.1928C79.4482 19.0115 79.7971 18.9116 80.1541 18.9022C80.7942 18.9113 81.4193 19.098 81.9608 19.4416C82.5807 19.8504 83.3214 20.0327 84.059 19.9578C84.1782 19.9339 84.2948 19.8982 84.4071 19.8512L84.2233 19.6735C84.156 19.6999 84.0869 19.7215 84.0166 19.7384C83.3299 19.8039 82.6417 19.6298 82.0677 19.2452C81.4883 18.8835 80.8218 18.6878 80.1399 18.6791" fill="#8AA050"></path><path d="M89.9967 27.9943H85.355V30.8281H89.9967V27.9943Z" fill="white"></path><path d="M120 45.2864V36.5417C120 33.5036 118.305 31.626 115.48 31.626C114.693 31.6426 113.921 31.8486 113.23 32.2267C112.538 32.6049 111.947 33.1442 111.505 33.7995V31.9219H106.839V45.2864H111.505V38.0487C111.505 36.5666 112.339 35.7757 113.469 35.7757C114.599 35.7757 115.361 36.5666 115.361 38.0487V45.2864H120ZM105.769 38.6165V38.5668C105.662 36.6795 104.84 34.9054 103.471 33.6097C102.103 32.3139 100.292 31.5953 98.413 31.6017C96.5336 31.608 94.7281 32.339 93.3684 33.6439C92.0086 34.9489 91.1981 36.7286 91.1037 38.6165V38.6663C91.1163 39.6079 91.3166 40.5374 91.6926 41.3999C92.0686 42.2623 92.6128 43.0401 93.2929 43.6873C93.9731 44.3345 94.7753 44.8379 95.6522 45.1678C96.5292 45.4978 97.463 45.6474 98.3984 45.608C99.3414 45.6473 100.283 45.4964 101.167 45.1643C102.051 44.8321 102.86 44.3255 103.547 43.6741C104.233 43.0227 104.783 42.2398 105.165 41.3714C105.546 40.5029 105.75 39.5666 105.767 38.6174M101.248 38.6672C101.267 39.0492 101.209 39.4312 101.078 39.79C100.946 40.1488 100.743 40.4769 100.481 40.7542C100.219 41.0315 99.9035 41.2523 99.554 41.4032C99.2046 41.554 98.8282 41.6317 98.4479 41.6315C98.0641 41.6248 97.6856 41.5409 97.3345 41.3849C96.9835 41.2289 96.667 41.0039 96.4036 40.723C96.1402 40.4422 95.9353 40.1113 95.8008 39.7497C95.6664 39.3881 95.6052 39.0032 95.6208 38.6174V38.5677C95.596 38.1853 95.6492 37.8019 95.7773 37.4411C95.9054 37.0802 96.1056 36.7496 96.3656 36.4695C96.6256 36.1894 96.9398 35.9659 97.289 35.8126C97.6382 35.6594 98.0148 35.5797 98.3958 35.5784C98.7824 35.5858 99.1637 35.6707 99.5173 35.8282C99.8709 35.9856 100.19 36.2125 100.455 36.4954C100.72 36.7783 100.927 37.1117 101.063 37.4759C101.198 37.8401 101.26 38.2279 101.245 38.6165L101.248 38.6672ZM85.3514 45.2872H89.9932V31.9228H85.355L85.3514 45.2872ZM81.087 35.678H84.1791V31.9228H81.087V27.9952H76.4488V31.9228H74.8771V35.678H76.4488V41.1375C76.4488 44.324 78.0947 45.5592 80.8944 45.5592C82.0244 45.5769 83.1403 45.3047 84.1367 44.7683V41.1126C83.5883 41.3923 82.9844 41.5442 82.3698 41.5569C81.5101 41.5569 81.0923 41.1615 81.0923 40.224L81.087 35.678ZM69.4208 45.2864H74.0148V37.6036C74.0823 36.8347 73.9906 36.0602 73.7455 35.3288C73.5004 34.5974 73.1071 33.9251 72.5907 33.3543C71.5305 32.288 69.9138 31.7237 67.5311 31.7237C65.6862 31.692 63.8548 32.0454 62.1526 32.7616L63.1102 36.0494C64.281 35.5717 65.5309 35.3203 66.7943 35.3083C68.5868 35.3083 69.4447 36.0992 69.4447 37.5067V37.7288C68.4176 37.374 67.3377 37.1985 66.2518 37.2099C63.1323 37.2099 61.0447 38.6183 61.0447 41.4094V41.4592C61.0447 44.1027 62.96 45.5849 65.4903 45.5849C66.2288 45.6029 66.9624 45.4599 67.6407 45.1657C68.3191 44.8715 68.926 44.4331 69.4199 43.8806L69.4208 45.2864ZM69.4941 40.4444C69.5015 40.7479 69.4449 41.0496 69.3282 41.3296C69.2115 41.6096 69.0373 41.8616 68.817 42.0692C68.5967 42.2767 68.3353 42.4351 68.0499 42.534C67.7645 42.6328 67.4616 42.6699 67.1609 42.6428C66.9552 42.6687 66.7464 42.6504 66.5483 42.5891C66.3502 42.5277 66.1672 42.4248 66.0116 42.287C65.856 42.1492 65.7313 41.9798 65.6457 41.7899C65.5601 41.6 65.5155 41.394 65.515 41.1855V41.1357C65.515 40.1227 66.3013 39.4812 67.6521 39.4812C68.282 39.4817 68.9064 39.5988 69.4941 39.8268V40.4444ZM55.8614 45.2864H60.0137V27.9943H55.2978V37.1326L48.2248 27.9925H43.7792V45.2846H48.4951V35.7997L55.8614 45.2864ZM34.4021 38.6165V38.5668C34.3764 38.1962 34.4242 37.8243 34.5429 37.4725C34.6616 37.1208 34.8487 36.7964 35.0934 36.5181C35.338 36.2399 35.6353 36.0134 35.9678 35.8519C36.3004 35.6904 36.6616 35.5972 37.0304 35.5776C37.5279 35.5854 38.0156 35.7184 38.4489 35.9644C38.8822 36.2104 39.2474 36.5616 39.5112 36.986L42.6545 34.6143C42.0564 33.6573 41.2154 32.8781 40.2181 32.357C39.2207 31.8359 38.1033 31.5918 36.9809 31.65C36.0555 31.6206 35.1337 31.7795 34.2707 32.1169C33.4077 32.4544 32.6213 32.9636 31.9586 33.614C31.2959 34.2643 30.7705 35.0425 30.4139 35.902C30.0573 36.7614 29.8768 37.6844 29.8832 38.6157V38.6654C29.8749 39.5835 30.0494 40.4939 30.3964 41.343C30.7433 42.1922 31.2558 42.9629 31.9035 43.6098C32.5512 44.2567 33.321 44.7667 34.1677 45.1097C35.0144 45.4528 35.9207 45.6219 36.8334 45.6071C37.9976 45.6675 39.1568 45.4157 40.1925 44.8776C41.2282 44.3394 42.1032 43.5341 42.7278 42.5441L39.6083 40.2711C39.326 40.6927 38.946 41.0389 38.5011 41.28C38.0561 41.521 37.5596 41.6496 37.0542 41.6547C36.678 41.6417 36.3083 41.5514 35.968 41.3893C35.6278 41.2272 35.3242 40.9967 35.0758 40.7121C34.8275 40.4275 34.6398 40.0947 34.5242 39.7343C34.4086 39.3739 34.3677 38.9935 34.4038 38.6165M28.8522 39.9015C28.8769 39.5807 28.8769 39.2341 28.8769 38.9382C28.8769 35.0106 26.7645 31.626 22.1961 31.626C21.293 31.6197 20.3981 31.7981 19.5656 32.1504C18.7331 32.5027 17.9805 33.0215 17.3535 33.6752C16.7265 34.329 16.2381 35.1041 15.918 35.9536C15.5979 36.803 15.4528 37.709 15.4915 38.6165V38.6663C15.4915 42.7921 18.4388 45.608 22.614 45.608C23.7178 45.6474 24.8149 45.4214 25.8144 44.9488C26.8139 44.4762 27.6869 43.7706 28.361 42.8907L25.7821 40.7412C25.4136 41.1635 24.9605 41.5028 24.4527 41.7369C23.9448 41.971 23.3935 42.0947 22.8349 42.0998C22.1724 42.146 21.5158 41.9485 20.9873 41.5441C20.4588 41.1397 20.0944 40.556 19.9619 39.9015H28.8522ZM24.5294 37.5022H19.8859C20.1315 36.0201 20.9664 35.0817 22.1944 35.0817C23.4719 35.0817 24.3553 36.0201 24.5276 37.5022M15.2512 33.9203V33.8706C15.2855 33.1306 15.1681 32.3915 14.9062 31.6991C14.6443 31.0068 14.2436 30.376 13.729 29.8461C12.5743 28.6847 10.7571 27.9934 8.12963 27.9934H0V45.2855H4.76452V40.049H6.87688L10.3401 45.2855H15.8175L11.7156 39.2581C12.7865 38.855 13.7041 38.1231 14.3384 37.1662C14.9727 36.2093 15.2914 35.0759 15.2495 33.9265M10.4849 34.2473C10.4849 35.5073 9.52727 36.2973 7.93085 36.2973H4.76452V32.1209H7.90877C9.48045 32.1209 10.4876 32.8122 10.4876 34.1958L10.4849 34.2473Z" fill="white"></path><path d="M115.712 56.5799V55.3566H119.545V53.6709H115.712V52.4947H119.944V50.6851H113.522V58.3986H120V56.5808L115.712 56.5799ZM108.748 58.5524C110.014 58.5639 111.243 58.1381 112.213 57.3517V53.8917H108.552V55.4561H110.114V56.3926C109.732 56.6225 109.287 56.734 108.838 56.712C108.546 56.7198 108.256 56.6691 107.985 56.5631C107.715 56.4571 107.47 56.2982 107.267 56.0963C107.063 55.8944 106.905 55.6539 106.802 55.39C106.7 55.1261 106.655 54.8446 106.671 54.5631V54.5414C106.658 54.273 106.702 54.0049 106.798 53.7529C106.895 53.5009 107.042 53.2701 107.232 53.074C107.422 52.878 107.651 52.7206 107.905 52.6111C108.159 52.5017 108.433 52.4424 108.711 52.4368C109.426 52.431 110.116 52.69 110.639 53.1606L111.939 51.6396C111.047 50.8828 109.888 50.4846 108.701 50.5267C108.144 50.5076 107.589 50.5973 107.068 50.7904C106.548 50.9835 106.073 51.2761 105.673 51.6506C105.273 52.0251 104.954 52.4738 104.738 52.9699C104.521 53.466 104.41 53.9993 104.412 54.5378V54.5595C104.406 55.1018 104.516 55.6395 104.734 56.139C104.953 56.6386 105.275 57.0895 105.682 57.4636C106.088 57.8377 106.57 58.1271 107.097 58.3138C107.624 58.5005 108.185 58.5804 108.746 58.5488M101.964 58.3941H104.336L100.937 50.6253H98.8047L95.4173 58.3941H97.7324L98.3027 57.0061H101.393L101.964 58.3941ZM100.746 55.3421H98.9555L99.8564 53.1606L100.746 55.3421ZM95.26 58.3977L93.3551 55.7095C93.8531 55.5299 94.2799 55.2032 94.5748 54.7758C94.8697 54.3485 95.0177 53.8422 94.9977 53.3289V53.3072C95.0138 52.977 94.9593 52.6471 94.8376 52.3381C94.716 52.0291 94.5298 51.7476 94.2907 51.5111C93.9358 51.2133 93.523 50.9868 93.0765 50.8449C92.6299 50.7031 92.1585 50.6487 91.6899 50.6851H87.9176V58.3986H90.1306V56.0633H91.1112L92.7192 58.3995L95.26 58.3977ZM92.7847 53.4719C92.7847 54.0338 92.3399 54.3867 91.5982 54.3867H90.1269V52.5245H91.5869C92.3165 52.5245 92.7847 52.8331 92.7847 53.4502V53.4719ZM86.6974 54.5405V54.5188C86.6511 53.445 86.1764 52.4303 85.3727 51.6874C84.569 50.9445 83.4988 50.5311 82.3865 50.5339C81.2742 50.5367 80.2063 50.9555 79.4066 51.7024C78.6069 52.4494 78.1377 53.4665 78.0973 54.5405V54.5622C78.1435 55.6359 78.6182 56.6506 79.4219 57.3935C80.2256 58.1365 81.2958 58.5499 82.4081 58.547C83.5204 58.5442 84.5884 58.1254 85.3881 57.3785C86.1877 56.6315 86.657 55.6144 86.6974 54.5405ZM84.4282 54.5622C84.4413 54.8269 84.3989 55.0914 84.3035 55.3399C84.2082 55.5884 84.0618 55.8157 83.8732 56.0082C83.6846 56.2006 83.4577 56.3542 83.2061 56.4598C82.9544 56.5654 82.6833 56.6207 82.409 56.6224C82.1316 56.6199 81.8575 56.5635 81.6031 56.4568C81.3486 56.3501 81.1188 56.1951 80.9274 56.0011C80.736 55.807 80.5868 55.5779 80.4887 55.3271C80.3906 55.0764 80.3455 54.8092 80.3562 54.5414V54.5197C80.3433 54.2541 80.3862 53.9888 80.4824 53.7397C80.5785 53.4906 80.7259 53.2629 80.9157 53.0703C81.1054 52.8778 81.3336 52.7244 81.5864 52.6194C81.8392 52.5144 82.1114 52.46 82.3866 52.4594C82.6636 52.4616 82.9374 52.5177 83.1915 52.6244C83.4455 52.7311 83.6747 52.8863 83.8653 53.0805C84.0559 53.2748 84.204 53.5043 84.3007 53.7551C84.3974 54.0059 84.4408 54.2731 84.4282 54.5405V54.5622ZM75.2625 52.5571H77.6571V50.6841H70.666V52.5571H73.0495V58.3977H75.2625V52.5571ZM70.18 56.0171V55.9954C70.18 54.5477 69.0393 53.9786 67.2149 53.5931C66.0977 53.3506 65.8233 53.1968 65.8233 52.8439V52.8222C65.8233 52.5354 66.0855 52.3264 66.6221 52.3264C67.4306 52.3509 68.2114 52.6163 68.8576 53.0864L69.9636 51.5772C69.0284 50.8716 67.865 50.5084 66.6793 50.552C64.7631 50.552 63.5887 51.5881 63.5887 53.0204V53.0421C63.5887 54.6183 64.8999 55.0806 66.5996 55.4552C67.6944 55.7086 67.9567 55.8742 67.9567 56.2044V56.2261C67.9567 56.5564 67.6373 56.7554 67.0333 56.7554C66.0858 56.7426 65.1717 56.4159 64.4438 55.8298L63.2123 57.2513C64.2559 58.1046 65.5868 58.5594 66.9537 58.5298C68.8923 58.5298 70.1818 57.5933 70.1818 56.0171M57.5032 52.5571H59.8979V50.6841H52.9077V52.5571H55.2912V58.3977H57.5042L57.5032 52.5571ZM53.5155 58.3977L50.1197 50.6299H47.9845L44.5942 58.3977H46.9093L47.4797 57.0097H50.5702L51.1405 58.3977H53.5155ZM49.923 55.3458H48.1334L49.0343 53.1642L49.923 55.3458ZM44.5212 54.5414V54.5197C44.475 53.446 44.0003 52.4312 43.1966 51.6883C42.3929 50.9454 41.3227 50.532 40.2104 50.5348C39.0981 50.5376 38.0301 50.9564 37.2304 51.7034C36.4308 52.4503 35.9616 53.4674 35.9211 54.5414V54.5631C35.9674 55.6368 36.4421 56.6515 37.2458 57.3944C38.0495 58.1374 39.1197 58.5508 40.232 58.548C41.3443 58.5451 42.4122 58.1264 43.2119 57.3794C44.0116 56.6324 44.4808 55.6153 44.5212 54.5414ZM42.2511 54.5631C42.2642 54.8278 42.2218 55.0924 42.1264 55.3408C42.0311 55.5893 41.8847 55.8166 41.6961 56.0091C41.5075 56.2015 41.2806 56.3551 41.029 56.4607C40.7773 56.5662 40.5062 56.6216 40.2319 56.6233C39.9545 56.6208 39.6805 56.5644 39.426 56.4577C39.1715 56.351 38.9417 56.196 38.7503 56.002C38.5589 55.8079 38.4097 55.5788 38.3116 55.328C38.2135 55.0773 38.1684 54.8101 38.1791 54.5423V54.5206C38.1662 54.255 38.2091 53.9897 38.3053 53.7406C38.4014 53.4915 38.5488 53.2638 38.7386 53.0712C38.9283 52.8787 39.1565 52.7253 39.4093 52.6203C39.6621 52.5153 39.9343 52.4609 40.2095 52.4603C40.4865 52.4625 40.7603 52.5186 41.0144 52.6253C41.2685 52.732 41.4976 52.8872 41.6882 53.0815C41.8788 53.2757 42.0269 53.5052 42.1236 53.756C42.2203 54.0069 42.2637 54.274 42.2511 54.5414V54.5631ZM35.0923 56.2714V56.2497C35.1031 55.8047 34.9494 55.3706 34.6588 55.0252C34.3683 54.6798 33.9598 54.4457 33.5068 54.3649C33.8731 54.2398 34.1892 54.0064 34.4103 53.6978C34.6314 53.3891 34.7462 53.021 34.7383 52.6458V52.625C34.7439 52.3931 34.7014 52.1625 34.6132 51.9468C34.5251 51.7311 34.3931 51.5347 34.2251 51.3691C33.9263 51.1225 33.5801 50.9352 33.2063 50.818C32.8326 50.7008 32.4385 50.6559 32.0468 50.686H27.9532V58.3995H32.0739C33.9788 58.3995 35.0961 57.5951 35.0961 56.2732M32.5675 53.0882C32.5675 53.5407 32.1797 53.7605 31.5064 53.7605H30.1091V52.4033H31.5579C32.2078 52.4033 32.5618 52.6349 32.5618 53.0647L32.5675 53.0882ZM32.8812 55.9728C32.8812 56.4252 32.5066 56.6776 31.8201 56.6776H30.1091V55.258H31.7948C32.5366 55.258 32.8784 55.5294 32.8784 55.952L32.8812 55.9728ZM25.1409 57.5155L24.0686 56.4903C24.4547 55.9702 24.805 55.4261 25.1175 54.8617L23.6574 54.1568C23.4338 54.579 23.1836 54.9876 22.9082 55.3801L22.0185 54.5314C22.4602 54.3922 22.847 54.1252 23.1264 53.7666C23.4058 53.4079 23.5644 52.975 23.5806 52.5264V52.5046C23.5705 52.2207 23.4997 51.9419 23.3725 51.6857C23.2454 51.4296 23.0646 51.2016 22.8418 51.0163C22.6189 50.831 22.3587 50.6923 22.0776 50.609C21.7965 50.5256 21.5005 50.4995 21.2084 50.5321C20.901 50.5003 20.5901 50.5298 20.2949 50.6188C19.9998 50.7077 19.7266 50.8543 19.4925 51.0494C19.2584 51.2445 19.0682 51.484 18.9337 51.753C18.7992 52.0219 18.7233 52.3147 18.7107 52.6132V52.6349C18.7117 53.173 18.896 53.6957 19.2352 54.1224C18.7668 54.2723 18.3587 54.5602 18.0683 54.9456C17.7779 55.331 17.6197 55.7946 17.6159 56.2714V56.2931C17.6159 57.6928 18.8334 58.5298 20.4564 58.5298C21.3151 58.5304 22.1497 58.2551 22.8286 57.7471L23.6499 58.5515L25.1409 57.5155ZM20.3852 55.3231L21.7085 56.6233C21.4292 56.8212 21.0963 56.936 20.7505 56.9536C20.6365 56.9677 20.5207 56.9589 20.4104 56.9276C20.3002 56.8963 20.1978 56.8433 20.1098 56.7719C20.0218 56.7005 19.9501 56.6122 19.8992 56.5127C19.8482 56.4131 19.8192 56.3045 19.8139 56.1936V56.1719C19.8218 55.994 19.8788 55.8215 19.9791 55.6722C20.0795 55.523 20.2203 55.4024 20.3852 55.3231ZM21.8209 52.634C21.8209 53.0421 21.5474 53.3389 20.978 53.5814C20.7372 53.3441 20.5917 53.0316 20.5678 52.7001V52.6784C20.559 52.5921 20.5689 52.505 20.5969 52.4226C20.6249 52.3403 20.6705 52.2645 20.7306 52.2001C20.7908 52.1358 20.8642 52.0844 20.9462 52.0491C21.0281 52.0138 21.1168 51.9954 21.2066 51.9952C21.2906 51.9909 21.3746 52.004 21.453 52.0338C21.5313 52.0636 21.6021 52.1093 21.6605 52.1678C21.7189 52.2264 21.7637 52.2963 21.7917 52.373C21.8197 52.4497 21.8303 52.5313 21.8228 52.6123L21.8209 52.634ZM12.7011 58.452L15.9405 50.6832H13.5224L11.6971 55.5692L9.88403 50.6832H7.42098L10.6492 58.452H12.7011ZM7.34419 58.3968L5.4393 55.7086C5.93737 55.529 6.36418 55.2023 6.65907 54.7749C6.95396 54.3476 7.10193 53.8413 7.08196 53.328V53.3063C7.09799 52.9761 7.04349 52.6462 6.92184 52.3372C6.80019 52.0282 6.61401 51.7467 6.37489 51.5102C6.02003 51.2124 5.60724 50.9859 5.16068 50.844C4.71411 50.7022 4.24275 50.6478 3.77417 50.6841H0V58.3977H2.21299V56.0633H3.19353L4.80153 58.3995L7.34419 58.3968ZM4.86897 53.471C4.86897 54.0329 4.42412 54.3857 3.68239 54.3857H2.21299V52.5236H3.66835C4.3979 52.5236 4.86615 52.8322 4.86615 53.4493L4.86897 53.471Z" fill="white"></path></g></g><defs><clipPath id="clip0_519_616"><rect width="120" height="62" fill="white"></rect></clipPath></defs></svg> 