<?xml version="1.0" encoding="UTF-8"?> <svg xmlns="http://www.w3.org/2000/svg" width="26" height="24" viewBox="0 0 26 24" fill="none"><rect x="0.736328" width="24.7363" height="24.0003" rx="3" fill="#BDE25F" fill-opacity="0.17"></rect><path d="M10.66 6.00015C9.99206 6.00015 9.43783 6.54431 9.43783 7.20015H10.66H15.5489H16.7712C16.7712 6.54431 16.2169 6.00015 15.5489 6.00015H10.66ZM9.43783 7.80015C8.76984 7.80015 8.2156 8.34432 8.2156 9.00015H9.43783H16.7712H17.9934C17.9934 8.34432 17.4391 7.80015 16.7712 7.80015H9.43783ZM8.82671 9.60015C8.15266 9.60015 7.60449 10.1384 7.60449 10.8002V16.8002C7.60449 17.462 8.15266 18.0002 8.82671 18.0002H17.3823C18.0563 18.0002 18.6045 17.462 18.6045 16.8002V10.8002C18.6045 10.1384 18.0563 9.60015 17.3823 9.60015H8.82671ZM8.82671 10.8002H10.0489V12.0002H8.82671V10.8002ZM16.16 10.8002H17.3823V12.0002H16.16V10.8002ZM8.82671 13.2002H10.0489V14.4002H8.82671V13.2002ZM16.16 13.2002H17.3823V14.4002H16.16V13.2002ZM8.82671 15.6002H10.0489V16.8002H8.82671V15.6002ZM16.16 15.6002H17.3823V16.8002H16.16V15.6002Z" fill="#7D963D"></path></svg> 