<?xml version="1.0" encoding="UTF-8"?> <svg xmlns="http://www.w3.org/2000/svg" width="26" height="24" viewBox="0 0 26 24" fill="none"><rect x="0.736328" width="24.7363" height="24.0003" rx="3" fill="#67D1EF" fill-opacity="0.17"></rect><path d="M8.90449 7.00016C8.57329 7.00016 8.30449 7.24905 8.30449 7.55572V9.22238L7.14785 11.9003C7.11905 11.9659 7.10449 12.0365 7.10449 12.1076V13.1113H7.70449V15.889C7.70449 16.4963 8.24865 17.0002 8.90449 17.0002H17.3045C17.9603 17.0002 18.5045 16.4963 18.5045 15.889V13.1113H19.1045V12.1076C19.1045 12.037 19.0899 11.967 19.0611 11.9014L17.9045 9.22238V7.55572C17.9045 7.24905 17.6357 7.00016 17.3045 7.00016H8.90449ZM10.1045 8.11127C10.4357 8.11127 10.7045 8.36016 10.7045 8.66683C10.7045 8.97349 10.4357 9.22238 10.1045 9.22238C9.77329 9.22238 9.50449 8.97349 9.50449 8.66683C9.50449 8.36016 9.77329 8.11127 10.1045 8.11127ZM11.9045 8.11127C12.2357 8.11127 12.5045 8.36016 12.5045 8.66683C12.5045 8.97349 12.2357 9.22238 11.9045 9.22238C11.5733 9.22238 11.3045 8.97349 11.3045 8.66683C11.3045 8.36016 11.5733 8.11127 11.9045 8.11127ZM8.90449 13.1113H17.3045V15.889H8.90449V13.1113Z" fill="#3A8195"></path></svg> 