<?xml version="1.0" encoding="UTF-8"?> <svg xmlns="http://www.w3.org/2000/svg" width="25" height="24" viewBox="0 0 25 24" fill="none"><rect width="24.7363" height="24.0003" rx="3" fill="#6FE68B" fill-opacity="0.17"></rect><path d="M10.2682 5.00016C7.57026 5.00016 5.36817 7.20226 5.36817 9.90016C5.36817 12.5981 7.57026 14.8002 10.2682 14.8002C11.4918 14.8002 12.6097 14.3438 13.4701 13.597L13.7682 13.8951V14.8002L17.9682 19.0002L19.3682 17.6002L15.1682 13.4002H14.2631L13.965 13.1021C14.7118 12.2417 15.1682 11.1238 15.1682 9.90016C15.1682 7.20226 12.9661 5.00016 10.2682 5.00016ZM10.2682 6.40016C12.2095 6.40016 13.7682 7.95887 13.7682 9.90016C13.7682 11.8414 12.2095 13.4002 10.2682 13.4002C8.32688 13.4002 6.76817 11.8414 6.76817 9.90016C6.76817 7.95887 8.32688 6.40016 10.2682 6.40016Z" fill="#3C8F50"></path></svg> 