<?xml version="1.0" encoding="UTF-8"?> <svg xmlns="http://www.w3.org/2000/svg" width="26" height="24" viewBox="0 0 26 24" fill="none"><rect x="0.736328" width="24.7363" height="24.0003" rx="3" fill="#FFD4AF" fill-opacity="0.5"></rect><path d="M16.9934 6.50015H9.2156C8.60171 6.50015 8.10449 7.0471 8.10449 7.72237V16.2779C8.10449 16.9532 8.60171 17.5002 9.2156 17.5002H13.4495V13.2462H12.1478V11.5809H13.4495V10.3557C13.4495 8.93543 14.2389 8.16115 15.3912 8.16115C15.7795 8.15993 16.1673 8.18193 16.5534 8.22532V9.71032H15.76C15.1323 9.71032 15.01 10.0367 15.01 10.5182V11.5785H16.51L16.315 13.2438H15.0012V17.5002H16.9934C17.6073 17.5002 18.1045 16.9532 18.1045 16.2779V7.72237C18.1045 7.0471 17.6073 6.50015 16.9934 6.50015Z" fill="#D87928"></path></svg> 