<?xml version="1.0"?>
<svg xmlns="http://www.w3.org/2000/svg" width="193" height="35" viewBox="0 0 193 35" fill="none"><path d="M16.0111 3.33586C16.3522 2.28587 17.8377 2.28587 18.1788 3.33585L20.6771 11.0248C20.8297 11.4944 21.2673 11.8123 21.761 11.8123H29.8457C30.9497 11.8123 31.4087 13.2251 30.5156 13.874L23.9749 18.626C23.5755 18.9163 23.4084 19.4307 23.5609 19.9002L26.0592 27.5892C26.4004 28.6392 25.1986 29.5123 24.3055 28.8634L17.7648 24.1113C17.3654 23.8211 16.8245 23.8211 16.4251 24.1113L9.88444 28.8634C8.99127 29.5123 7.78952 28.6392 8.13068 27.5892L10.629 19.9002C10.7815 19.4307 10.6144 18.9163 10.215 18.626L3.67434 13.874C2.78117 13.2251 3.24019 11.8123 4.34421 11.8123H12.4289C12.9226 11.8123 13.3602 11.4944 13.5128 11.0248L16.0111 3.33586Z" fill="#F5D74D"/><path d="M55.6712 3.33561C56.0124 2.28563 57.4978 2.28562 57.839 3.33561L60.3373 11.0246C60.4899 11.4942 60.9274 11.8121 61.4212 11.8121H69.5058C70.6099 11.8121 71.0689 13.2248 70.1757 13.8737L63.6351 18.6258C63.2357 18.916 63.0685 19.4304 63.2211 19.9L65.7194 27.589C66.0605 28.6389 64.8588 29.5121 63.9656 28.8631L57.425 24.1111C57.0256 23.8209 56.4847 23.8209 56.0852 24.1111L49.5446 28.8631C48.6514 29.5121 47.4497 28.6389 47.7908 27.589L50.2891 19.9C50.4417 19.4304 50.2746 18.916 49.8751 18.6258L43.3345 13.8738C42.4413 13.2248 42.9003 11.8121 44.0044 11.8121H52.089C52.5828 11.8121 53.0204 11.4942 53.1729 11.0246L55.6712 3.33561Z" fill="#F5D74D"/><path d="M95.3316 3.33586C95.6728 2.28587 97.1582 2.28587 97.4994 3.33585L99.9977 11.0248C100.15 11.4944 100.588 11.8123 101.082 11.8123H109.166C110.27 11.8123 110.729 13.2251 109.836 13.874L103.295 18.626C102.896 18.9163 102.729 19.4307 102.881 19.9002L105.38 27.5892C105.721 28.6392 104.519 29.5123 103.626 28.8634L97.0854 24.1113C96.686 23.8211 96.1451 23.8211 95.7456 24.1113L89.205 28.8634C88.3118 29.5123 87.1101 28.6392 87.4512 27.5892L89.9495 19.9002C90.1021 19.4307 89.935 18.9163 89.5355 18.626L82.9949 13.874C82.1017 13.2251 82.5607 11.8123 83.6648 11.8123H91.7494C92.2432 11.8123 92.6808 11.4944 92.8333 11.0248L95.3316 3.33586Z" fill="#F5D74D"/><path d="M134.992 3.33561C135.333 2.28563 136.819 2.28562 137.16 3.33561L139.658 11.0246C139.811 11.4942 140.248 11.8121 140.742 11.8121H148.827C149.931 11.8121 150.39 13.2248 149.497 13.8737L142.956 18.6258C142.556 18.916 142.389 19.4304 142.542 19.9L145.04 27.589C145.381 28.6389 144.18 29.5121 143.286 28.8631L136.746 24.1111C136.346 23.8209 135.805 23.8209 135.406 24.1111L128.865 28.8631C127.972 29.5121 126.77 28.6389 127.112 27.589L129.61 19.9C129.763 19.4304 129.595 18.916 129.196 18.6258L122.655 13.8738C121.762 13.2248 122.221 11.8121 123.325 11.8121H131.41C131.904 11.8121 132.341 11.4942 132.494 11.0246L134.992 3.33561Z" fill="#F5D74D"/><path d="M174.652 3.33561C174.993 2.28563 176.479 2.28562 176.82 3.33561L179.318 11.0246C179.471 11.4942 179.908 11.8121 180.402 11.8121H188.487C189.591 11.8121 190.05 13.2248 189.157 13.8737L182.616 18.6258C182.217 18.916 182.049 19.4304 182.202 19.9L184.7 27.589C185.042 28.6389 183.84 29.5121 182.947 28.8631L176.406 24.1111C176.007 23.8209 175.466 23.8209 175.066 24.1111L168.526 28.8631C167.632 29.5121 166.431 28.6389 166.772 27.589L169.27 19.9C169.423 19.4304 169.256 18.916 168.856 18.6258L162.315 13.8738C161.422 13.2248 161.881 11.8121 162.985 11.8121H171.07C171.564 11.8121 172.001 11.4942 172.154 11.0246L174.652 3.33561Z" fill="#F5D74D"/></svg>
