<?xml version="1.0"?>
<svg xmlns="http://www.w3.org/2000/svg" width="69" height="12" viewBox="0 0 69 12" fill="none"><path d="M5.5987 1.16647C5.718 0.799315 6.23742 0.799315 6.35672 1.16647L7.23032 3.85513C7.28367 4.01933 7.43668 4.1305 7.60933 4.1305H10.4364C10.8224 4.1305 10.9829 4.6245 10.6706 4.85141L8.38348 6.5131C8.24381 6.61458 8.18536 6.79445 8.23871 6.95865L9.11231 9.64731C9.23161 10.0145 8.81138 10.3198 8.49906 10.0929L6.21195 8.43118C6.07228 8.3297 5.88314 8.3297 5.74347 8.43118L3.45636 10.0929C3.14404 10.3198 2.72381 10.0145 2.84311 9.64731L3.71671 6.95865C3.77006 6.79445 3.71161 6.61458 3.57194 6.5131L1.28483 4.85141C0.972508 4.6245 1.13302 4.1305 1.51907 4.1305H4.34609C4.51874 4.1305 4.67175 4.01933 4.7251 3.85513L5.5987 1.16647Z" fill="#F5D74D"/><path d="M19.4671 1.16647C19.5864 0.799315 20.1058 0.799315 20.2251 1.16647L21.0987 3.85513C21.1521 4.01933 21.3051 4.1305 21.4777 4.1305H24.3048C24.6908 4.1305 24.8513 4.6245 24.539 4.85141L22.2519 6.5131C22.1122 6.61458 22.0538 6.79445 22.1071 6.95865L22.9807 9.64731C23.1 10.0145 22.6798 10.3198 22.3675 10.0929L20.0804 8.43118C19.9407 8.3297 19.7516 8.3297 19.6119 8.43118L17.3248 10.0929C17.0124 10.3198 16.5922 10.0145 16.7115 9.64731L17.5851 6.95865C17.6385 6.79445 17.58 6.61458 17.4403 6.5131L15.1532 4.85141C14.8409 4.6245 15.0014 4.1305 15.3875 4.1305H18.2145C18.3871 4.1305 18.5402 4.01933 18.5935 3.85513L19.4671 1.16647Z" fill="#F5D74D"/><path d="M33.3353 1.16647C33.4546 0.799315 33.974 0.799315 34.0933 1.16647L34.9669 3.85513C35.0202 4.01933 35.1733 4.1305 35.3459 4.1305H38.1729C38.559 4.1305 38.7195 4.6245 38.4072 4.85141L36.1201 6.5131C35.9804 6.61458 35.9219 6.79445 35.9753 6.95865L36.8489 9.64731C36.9682 10.0145 36.548 10.3198 36.2356 10.0929L33.9485 8.43118C33.8088 8.3297 33.6197 8.3297 33.48 8.43118L31.1929 10.0929C30.8806 10.3198 30.4604 10.0145 30.5797 9.64731L31.4533 6.95865C31.5066 6.79445 31.4482 6.61458 31.3085 6.5131L29.0214 4.85141C28.7091 4.6245 28.8696 4.1305 29.2556 4.1305H32.0827C32.2553 4.1305 32.4083 4.01933 32.4617 3.85513L33.3353 1.16647Z" fill="#F5D74D"/><path d="M47.2037 1.16647C47.323 0.799315 47.8424 0.799315 47.9617 1.16647L48.8353 3.85513C48.8886 4.01933 49.0417 4.1305 49.2143 4.1305H52.0413C52.4274 4.1305 52.5879 4.6245 52.2756 4.85141L49.9885 6.5131C49.8488 6.61458 49.7903 6.79445 49.8437 6.95865L50.7173 9.64731C50.8366 10.0145 50.4164 10.3198 50.104 10.0929L47.8169 8.43118C47.6773 8.3297 47.4881 8.3297 47.3485 8.43118L45.0613 10.0929C44.749 10.3198 44.3288 10.0145 44.4481 9.64731L45.3217 6.95865C45.375 6.79445 45.3166 6.61458 45.1769 6.5131L42.8898 4.85141C42.5775 4.6245 42.738 4.1305 43.1241 4.1305H45.9511C46.1237 4.1305 46.2767 4.01933 46.3301 3.85513L47.2037 1.16647Z" fill="#F5D74D"/><path d="M61.0718 1.16647C61.1911 0.799315 61.7106 0.799315 61.8299 1.16647L62.7035 3.85513C62.7568 4.01933 62.9098 4.1305 63.0825 4.1305H65.9095C66.2955 4.1305 66.4561 4.6245 66.1437 4.85141L63.8566 6.5131C63.717 6.61458 63.6585 6.79445 63.7119 6.95865L64.5855 9.64731C64.7048 10.0145 64.2845 10.3198 63.9722 10.0929L61.6851 8.43118C61.5454 8.3297 61.3563 8.3297 61.2166 8.43118L58.9295 10.0929C58.6172 10.3198 58.197 10.0145 58.3163 9.64731L59.1899 6.95865C59.2432 6.79445 59.1848 6.61458 59.0451 6.5131L56.758 4.85141C56.4457 4.6245 56.6062 4.1305 56.9922 4.1305H59.8192C59.9919 4.1305 60.1449 4.01933 60.1982 3.85513L61.0718 1.16647Z" fill="#F5D74D"/></svg>
