<?xml version="1.0"?>
<svg xmlns="http://www.w3.org/2000/svg" width="48" height="48" viewBox="0 0 48 48" fill="none">
<rect width="48" height="48" fill="white"/>
<path d="M16.0972 31.9061L13.9309 35.717L8.43303 26.875L8 26.1514H12.964L13.1419 26.4689L16.0972 31.9061Z" fill="#443F34"/>
<path d="M28.7094 18.1535L16.503 39.9998C16.011 39.1985 15.3116 38.0596 14.3163 36.4389L25.2361 16.896L28.7094 18.1535Z" fill="#698037"/>
<path d="M39.3889 10.8984L37.1864 14.8398L33.4909 21.4542L31.7452 24.5779L29.0518 21.926L30.7975 18.8013L33.7176 13.5759L35.7841 9.87626L39.033 8L39.3889 10.8984Z" fill="#698037"/>
<path d="M33.4909 21.4544L31.7451 24.5782L29.0517 21.9262L27.4704 20.3703L27.4636 20.363L24.777 17.7174L24.769 17.7101L26.5148 14.5854L29.2093 17.2383L30.7975 18.8016L33.4909 21.4544Z" fill="#698037"/>
<path d="M39.9999 15.8646L37.1863 14.8398L33.7176 13.5759L31.0559 12.6067L35.7841 9.87626L39.033 8L39.3889 10.8984L39.9999 15.8646Z" fill="#698037"/>
</svg>
