<?xml version="1.0"?>
<svg xmlns="http://www.w3.org/2000/svg" width="48" height="48" viewBox="0 0 48 48" fill="none">
<rect width="48" height="48" fill="white"/>
<path d="M34.6602 14.7031C33.3454 13.5409 31.8553 12.6077 30.2285 11.9281C28.5333 11.2202 26.74 10.81 24.8993 10.7096L24.4961 10.6885V15.9638L24.8485 15.9902C25.9879 16.0782 27.0976 16.3459 28.1477 16.7843C29.1539 17.2051 30.083 17.7721 30.914 18.4729L31.1822 18.6983L34.96 14.9672L34.6602 14.7013V14.7031Z" fill="#FFAA00"/>
<path d="M17.7714 11.9307C16.1463 12.6104 14.6545 13.5436 13.3397 14.7057L13.0399 14.9716L16.8177 18.7026L17.0859 18.4773C17.9151 17.7782 18.846 17.2095 19.8522 16.7887C20.9023 16.3502 22.012 16.0826 23.1514 15.9946L23.5038 15.9682V10.6929L23.1006 10.714C21.2599 10.8144 19.4666 11.2246 17.7714 11.9325V11.9307Z" fill="#FFE800"/>
<path d="M12.067 15.9604C10.8908 17.2581 9.94587 18.7301 9.25693 20.3359C8.53993 22.0104 8.12446 23.78 8.02279 25.5989L8 25.9968H13.3415L13.3695 25.6499C13.459 24.5248 13.7289 23.4278 14.1724 22.3907C14.5984 21.3976 15.1734 20.4785 15.8817 19.6598L16.1113 19.3956L12.3335 15.6646L12.0653 15.9604H12.067Z" fill="#DEDC00"/>
<path d="M33.824 22.3907C34.2675 23.4278 34.5393 24.5248 34.6269 25.6499L34.655 25.9968H39.9965L39.9737 25.5989C39.872 23.7817 39.4565 22.0104 38.7395 20.3359C38.0524 18.7301 37.1075 17.2581 35.9294 15.9604L35.6612 15.6646L31.8834 19.3956L32.1131 19.6598C32.8213 20.4785 33.3963 21.3976 33.8223 22.3907H33.824Z" fill="#FF8400"/>
<path d="M34.6549 26.979L34.6269 27.3259C34.5375 28.451 34.2675 29.548 33.824 30.5851C33.398 31.5782 32.823 32.4973 32.1148 33.316L31.8851 33.5802L35.6629 37.3112L35.9311 37.0154C37.1074 35.7177 38.0523 34.2457 38.7413 32.6399C39.4583 30.9654 39.8737 29.1958 39.9754 27.3769L39.9982 26.979H34.6567H34.6549Z" fill="#FF0000"/>
<path d="M14.176 30.5851C13.7325 29.548 13.4607 28.451 13.3731 27.3259L13.345 26.979H8.00354L8.02633 27.3769C8.128 29.1941 8.54347 30.9654 9.26047 32.6399C9.94766 34.2457 10.8925 35.7177 12.0706 37.0154L12.3388 37.3112L16.1166 33.5802L15.8869 33.316C15.1787 32.4973 14.6037 31.5782 14.1777 30.5851H14.176Z" fill="#75C500"/>
<path d="M13.3397 14.7031C14.6545 13.5409 16.1445 12.6077 17.7714 11.9281C19.4666 11.2202 21.2599 10.81 23.1006 10.7096L23.5038 10.6885V15.9638L23.1514 15.9902C22.012 16.0782 20.9023 16.3459 19.8522 16.7843C18.846 17.2051 17.9169 17.7721 17.0859 18.4729L16.8177 18.6983L13.0399 14.9672L13.3397 14.7013V14.7031Z" fill="#3D6396"/>
<path d="M30.2285 11.9307C31.8536 12.6104 33.3454 13.5436 34.6602 14.7057L34.96 14.9716L31.1822 18.7026L30.914 18.4773C30.0848 17.7782 29.1539 17.2095 28.1477 16.7887C27.0976 16.3502 25.9879 16.0826 24.8485 15.9946L24.4961 15.9682V10.6929L24.8993 10.714C26.74 10.8144 28.5333 11.2246 30.2285 11.9325V11.9307Z" fill="#3A8195"/>
<path d="M35.9329 15.9604C37.1092 17.2581 38.0541 18.7301 38.743 20.3359C39.46 22.0104 39.8755 23.78 39.9772 25.5989L40 25.9968H34.6585L34.6304 25.6499C34.541 24.5248 34.271 23.4278 33.8275 22.3907C33.4015 21.3976 32.8265 20.4785 32.1183 19.6598L31.8887 19.3956L35.6665 15.6646L35.9347 15.9604H35.9329Z" fill="#3C9379"/>
<path d="M14.176 22.3907C13.7325 23.4278 13.4607 24.5248 13.3731 25.6499L13.345 25.9968H8.00354L8.02633 25.5989C8.128 23.7817 8.54347 22.0104 9.26047 20.3359C9.94766 18.7301 10.8925 17.2581 12.0706 15.9604L12.3388 15.6646L16.1166 19.3956L15.8869 19.6598C15.1787 20.4785 14.6037 21.3976 14.1777 22.3907H14.176Z" fill="#F5D74D"/>
<path d="M13.345 26.979L13.373 27.3259C13.4624 28.451 13.7324 29.548 14.1759 30.5851C14.6019 31.5782 15.1769 32.4973 15.8851 33.316L16.1148 33.5802L12.337 37.3112L12.0688 37.0154C10.8925 35.7177 9.94758 34.2457 9.25864 32.6399C8.54164 30.9654 8.12618 29.1958 8.0245 27.3769L8.00171 26.979H13.3432H13.345Z" fill="#D87928"/>
<path d="M33.824 30.5851C34.2675 29.548 34.5393 28.451 34.6269 27.3259L34.655 26.979H39.9965L39.9737 27.3769C39.872 29.1941 39.4565 30.9654 38.7395 32.6399C38.0524 34.2457 37.1075 35.7177 35.9294 37.0154L35.6612 37.3112L31.8834 33.5802L32.1131 33.316C32.8213 32.4973 33.3963 31.5782 33.8223 30.5851H33.824Z" fill="#7D963D"/>
<path d="M36.2222 31.3587C36.0259 31.8342 35.7366 32.174 35.5631 32.1353L25.2815 29.8093L27.3203 24.8896L36.3028 30.3498C36.4536 30.4414 36.4185 30.8851 36.2222 31.3605V31.3587Z" fill="#443F34"/>
<path opacity="0.15" d="M36.2222 31.3594C36.0259 31.8348 35.7366 32.1746 35.5631 32.1359L25.2815 29.8099L26.3 27.3501L36.2222 31.3594Z" fill="#443F34"/>
<path d="M24 31.2338C26.6538 31.2338 28.8051 29.1092 28.8051 26.4885C28.8051 23.8677 26.6538 21.7432 24 21.7432C21.3463 21.7432 19.1949 23.8677 19.1949 26.4885C19.1949 29.1092 21.3463 31.2338 24 31.2338Z" fill="#443F34"/>
<path d="M21.4512 23.9726C22.8588 22.5834 25.1395 22.5834 26.5472 23.9726C27.9549 25.3619 27.9549 27.6157 26.5472 29.0049C25.1395 30.3942 22.8588 30.3942 21.4512 29.0049C20.0435 27.6157 20.0435 25.3619 21.4512 23.9726Z" fill="#443F34"/>
</svg>
