<svg width="180" height="51" viewBox="0 0 180 51" fill="none" xmlns="http://www.w3.org/2000/svg">
<g clip-path="url(#clip0_222_17925)">
<path d="M150.714 0.142046C153.444 0.157251 156.174 0.153227 158.903 0.129883L158.905 11.2887C158.905 13.6086 158.945 16.1327 158.838 18.4383C161.781 16.3016 163.019 15.7455 166.834 15.64C172.675 15.4783 177.328 19.1148 178.582 24.7034C179.522 28.8882 179.29 33.1986 179.286 37.4647V49.6216L174.122 49.6105C173.198 49.6106 171.959 49.5771 171.061 49.6587L171.043 33.7872C171.036 32.658 171.045 31.5288 171.07 30.3999C171.113 26.957 171.086 22.8113 166.364 22.9334C157.819 23.1544 158.888 30.9293 158.895 36.804L158.892 50.0339C156.166 50.0069 153.438 50.006 150.712 50.0311L150.714 0.142046Z" fill="#17313C"/>
<path d="M22.2196 1.97335C22.7321 1.92925 23.0825 1.93578 23.5873 1.93444C31.2652 1.91414 37.0986 4.58337 42.4259 9.98133C41.2929 11.0302 37.9983 14.1807 37.1383 15.2592C34.2852 12.4184 31.4038 10.2525 27.3282 9.53975C18.1594 7.93613 10.5538 13.203 8.8266 22.094C5.8613 37.3588 20.795 48.1296 34.1378 39.008C34.922 38.4498 36.0773 37.3458 36.7191 36.6441C38.5232 38.3532 40.2596 40.1976 42.0653 41.9269C41.0234 42.9685 40.0183 44.0134 38.8613 44.9326C34.8679 48.0554 29.9509 49.8202 24.8493 49.962C2.55638 50.6757 -6.82035 23.6215 7.32916 8.57833C10.9828 4.69384 16.8244 2.10402 22.2196 1.97335Z" fill="#17313C"/>
<path d="M61.4185 16.2711C64.0032 16.1828 66.9926 16.2529 69.6078 16.254C69.5339 18.5624 69.5829 21.1245 69.5824 23.4521L69.5773 34.5411C69.595 38.4959 70.2403 42.6642 75.4559 42.6683C79.2493 42.6714 82.8754 40.5243 83.6166 36.6895C84.0887 34.2477 83.9042 31.2593 83.9044 28.7235L83.8881 16.2456L92.0939 16.2465C92.0457 19.6283 92.0821 23.0877 92.0812 26.4754L92.0885 50.0166C89.5551 49.977 86.4384 49.9671 83.9253 50.04C83.9161 49.095 83.8831 48.0604 83.9585 47.1255C80.8357 49.3861 79.0239 49.8961 75.0517 49.9816C68.9228 50.1135 63.7631 46.4131 62.1273 40.5973C61.5792 38.6484 61.3926 36.725 61.4083 34.6699C61.4548 28.5439 61.3455 22.3983 61.4185 16.2711Z" fill="#17313C"/>
<path d="M132.282 15.6462C132.515 15.6153 132.842 15.6384 133.084 15.6389C136.653 15.6464 140.252 16.6525 143.218 18.6233C144.388 19.4006 145.584 20.3502 146.715 21.2015C144.976 22.9049 142.86 24.7882 141.042 26.4377C138.472 23.9658 136.906 22.9193 133.125 22.9372C127.36 22.9646 123.482 26.8662 123.547 32.5213C123.659 42.1683 134.458 45.4884 141.061 38.807L142.812 40.5422C144.121 41.8162 145.422 43.0987 146.714 44.3898C145.724 45.0731 144.75 45.8979 143.752 46.6131C141.035 48.5597 138.057 49.5988 134.71 49.9064C130.035 50.3349 125.377 48.9366 121.744 46.0142C113.365 39.1885 113.727 25.1616 122.557 18.9505C125.691 16.7462 128.511 15.981 132.282 15.6462Z" fill="#17313C"/>
<path d="M99.9972 4.00138C102.728 4.0436 105.459 4.04119 108.19 3.99414C108.131 8.03498 108.181 12.2451 108.2 16.2924C109.677 16.1609 112.613 16.2493 114.228 16.2514L114.242 23.9894C112.205 23.9665 110.17 23.9638 108.134 23.9813C108.227 25.0377 108.183 26.6737 108.183 27.7563L108.179 34.2544C108.177 39.324 108.312 45.0085 108.163 50.0351C107.29 49.9981 106.227 50.0216 105.34 50.0172L99.9371 50.0263C100.019 49.2628 99.9772 47.8327 99.9753 47.0373L99.9672 41.8047L99.9826 23.9813C98.5152 23.9105 95.3856 23.9201 93.9301 24.0047L93.9219 16.2559C95.889 16.2353 98.0073 16.2223 99.9644 16.2797C99.979 12.2325 99.9025 8.03149 99.9972 4.00138Z" fill="#17313C"/>
<path d="M47.1094 0.144445L55.2888 0.140869C55.1906 1.79144 55.2603 4.10443 55.2619 5.79051L55.2671 16.1841L55.2624 50.0026C54.8761 50.1344 48.1273 50.0067 47.1229 50.0314L47.1094 0.144445Z" fill="#17313C"/>
<path d="M131.821 27.2806C134.924 26.7348 137.889 28.764 138.444 31.8126C138.998 34.8611 136.933 37.7743 133.83 38.319C130.728 38.8635 127.764 36.8344 127.209 33.7867C126.655 30.7388 128.719 27.8262 131.821 27.2806Z" fill="#EF4236"/>
</g>
<defs>
<clipPath id="clip0_222_17925">
<rect width="180" height="50.3571" fill="white"/>
</clipPath>
</defs>
</svg>
