<?xml version="1.0" encoding="UTF-8"?> <svg xmlns="http://www.w3.org/2000/svg" width="25" height="24" viewBox="0 0 25 24" fill="none"><rect width="24.7363" height="24.0003" rx="3" fill="#FFD4AF" fill-opacity="0.5"></rect><path d="M10.6479 4.15031C10.1131 4.18142 9.61067 4.60931 9.63421 5.25485C9.66005 5.94884 9.02576 6.4825 8.34653 6.33632C7.33582 6.11926 6.63959 7.32555 7.33284 8.09263C7.79869 8.60721 7.65511 9.42171 7.04012 9.74656C6.12612 10.2301 6.36796 11.6019 7.39196 11.7437C8.08004 11.8389 8.49397 12.557 8.23262 13.2001C8.0965 13.5347 8.14568 13.8568 8.29462 14.1171L6.36816 17.438H8.95216V17.4394L10.0524 19.8518L12.3682 15.9917L14.684 19.8518L15.7842 17.438H18.3682L16.4547 14.1373C16.6126 13.8741 16.6645 13.5426 16.5253 13.2001C16.264 12.557 16.6779 11.8389 17.366 11.7437C18.39 11.6019 18.6318 10.2301 17.7178 9.74656C17.1043 9.42245 16.9607 8.60795 17.4266 8.09263C18.1198 7.32555 17.4236 6.11926 16.4129 6.33632C15.7344 6.48176 15.0994 5.94884 15.1252 5.25485C15.1636 4.22199 13.8553 3.7469 13.2204 4.56271C12.7936 5.11125 11.9658 5.11125 11.539 4.56271C11.3012 4.25678 10.9688 4.13164 10.6479 4.15031ZM10.2499 14.3435C10.6715 14.3037 11.0895 14.5246 11.2925 14.9174L10.2081 16.7242C9.94712 16.2705 9.48332 15.9614 8.95216 15.9614H8.93197L9.77552 14.5065C9.77883 14.5044 9.7823 14.5042 9.78561 14.5021C9.93271 14.4099 10.0909 14.3585 10.2499 14.3435ZM14.508 14.3435C14.6606 14.3579 14.8116 14.4082 14.9536 14.4935L15.8044 15.9614H15.7842C15.2536 15.9614 14.7893 16.2695 14.5282 16.7242L13.4568 14.9376C13.6557 14.5324 14.0795 14.3031 14.508 14.3435Z" fill="#D87928"></path></svg> 