<?xml version="1.0" encoding="UTF-8"?> <svg xmlns="http://www.w3.org/2000/svg" width="25" height="24" viewBox="0 0 25 24" fill="none"><rect width="24.7363" height="24.0003" rx="3" fill="#67D1EF" fill-opacity="0.17"></rect><path d="M10.1863 6.27295V6.8184H7.45906C6.85634 6.8184 6.36816 7.30657 6.36816 7.90929V11.182C6.36816 11.7836 6.85743 12.2729 7.45906 12.2729H12.7932C13.0926 11.9407 13.5228 11.7274 14.0044 11.7274H14.4178L14.4838 11.6614C14.7926 11.3521 15.2039 11.182 15.6408 11.182C16.0777 11.182 16.489 11.3521 16.7977 11.6614L16.8638 11.7274H17.1248C17.2191 11.5665 17.2771 11.3816 17.2771 11.182V7.90929C17.2771 7.30657 16.7889 6.8184 16.1862 6.8184H13.459V6.27295H10.1863ZM11.8226 10.0911C12.1237 10.0911 12.3681 10.3354 12.3681 10.6365C12.3681 10.9376 12.1237 11.182 11.8226 11.182C11.5216 11.182 11.2772 10.9376 11.2772 10.6365C11.2772 10.3354 11.5216 10.0911 11.8226 10.0911ZM15.6408 12.2729C15.5013 12.2729 15.3618 12.326 15.2551 12.4327L14.8695 12.8183H14.0044C13.7028 12.8183 13.459 13.0621 13.459 13.3638V14.2288L13.0733 14.6145C12.8601 14.8277 12.8601 15.1725 13.0733 15.3858L13.459 15.7714V16.6365C13.459 16.9381 13.7028 17.1819 14.0044 17.1819H14.8695L15.2551 17.5675C15.3615 17.6739 15.5011 17.7273 15.6408 17.7273C15.7804 17.7273 15.9201 17.6739 16.0264 17.5675L16.4121 17.1819H17.2771C17.5787 17.1819 17.8226 16.9381 17.8226 16.6365V15.7714L18.2082 15.3858C18.4215 15.1725 18.4215 14.8277 18.2082 14.6145L17.8226 14.2288V13.3638C17.8226 13.0621 17.5787 12.8183 17.2771 12.8183H16.4121L16.0264 12.4327C15.9198 12.326 15.7803 12.2729 15.6408 12.2729ZM6.36816 13.0601V14.4547C6.36816 15.0574 6.85634 15.5456 7.45906 15.5456H11.9217C11.8601 15.3721 11.8226 15.1894 11.8226 15.0001C11.8226 14.5632 11.9928 14.1519 12.302 13.8432L12.3681 13.7771V13.3638H7.45906C7.05979 13.3638 6.69052 13.2478 6.36816 13.0601Z" fill="#3A8195"></path></svg> 