<svg width="25" height="24" viewBox="0 0 25 24" fill="none" xmlns="http://www.w3.org/2000/svg">
<rect width="24.7363" height="24.0003" rx="3" fill="#51CAA7" fill-opacity="0.17"/>
<path d="M16.8681 5.25021C15.9333 5.25021 15.1806 6.00283 15.1806 6.9377V17.0626C15.1806 17.9975 15.9333 18.7501 16.8681 18.7501H17.9931C18.928 18.7501 19.6806 17.9975 19.6806 17.0626V6.9377C19.6806 6.00283 18.928 5.25021 17.9931 5.25021H16.8681ZM11.8057 8.62519C10.8708 8.62519 10.1182 9.3778 10.1182 10.3127V17.0626C10.1182 17.9975 10.8708 18.7501 11.8057 18.7501H12.9307C13.8655 18.7501 14.6181 17.9975 14.6181 17.0626V10.3127C14.6181 9.3778 13.8655 8.62519 12.9307 8.62519H11.8057ZM6.74321 12.0002C5.80835 12.0002 5.05573 12.7528 5.05573 13.6876V17.0626C5.05573 17.9975 5.80835 18.7501 6.74321 18.7501H7.8682C8.80307 18.7501 9.55569 17.9975 9.55569 17.0626V13.6876C9.55569 12.7528 8.80307 12.0002 7.8682 12.0002H6.74321Z" fill="#3C9379"/>
</svg>
