<?xml version="1.0" encoding="UTF-8"?> <svg xmlns="http://www.w3.org/2000/svg" width="25" height="24" viewBox="0 0 25 24" fill="none"><rect width="24.7363" height="24.0003" rx="3" fill="#BDE25F" fill-opacity="0.17"></rect><path d="M12.9834 6.00015C11.9808 6.00015 11.1682 6.81279 11.1682 7.81539C11.1682 9.3004 14.4682 11.9404 14.4682 11.9404C14.4682 11.9404 17.7682 9.3004 17.7682 7.81539C17.7682 6.81279 16.9556 6.00015 15.953 6.00015C14.9978 6.00015 14.4682 6.68922 14.4682 6.68922C14.4682 6.68922 13.9386 6.00015 12.9834 6.00015ZM17.5198 12.0002C17.3026 12.0002 17.0854 12.083 16.9198 12.2486L14.1682 15.0002H11.7682C11.6026 15.0002 11.4682 14.8658 11.4682 14.7002C11.4682 14.5346 11.6026 14.4002 11.7682 14.4002H12.9682C13.6312 14.4002 14.1682 13.8632 14.1682 13.2002V12.6002H10.3619C9.72532 12.6002 9.11505 12.8527 8.66505 13.3033L6.36816 15.6002L8.76817 18.0002L9.96818 16.8002H14.2713C14.5893 16.8002 14.8948 16.6736 15.1198 16.4486L18.1198 13.4486C18.451 13.1174 18.451 12.5798 18.1198 12.2486C17.9542 12.083 17.737 12.0002 17.5198 12.0002Z" fill="#7D963D"></path></svg> 