<?xml version="1.0"?>
<svg xmlns="http://www.w3.org/2000/svg" width="25" height="24" viewBox="0 0 25 24" fill="none">
<rect width="24.7363" height="24.0003" fill="#F4FAE4"/>
<path d="M18.4449 5.2041C19.3806 3.85283 21.5353 4.9395 20.8266 6.42242C20.8111 6.4547 20.7949 6.48685 20.7779 6.51883C20.7306 6.60759 20.6782 6.69279 20.6216 6.77449C19.6859 8.12576 17.5312 7.03909 18.24 5.55617C18.2554 5.52388 18.2716 5.49174 18.2887 5.45976C18.336 5.37099 18.3884 5.2858 18.4449 5.2041Z" fill="url(#paint0_linear_1366_8)"/>
<path d="M18.5822 9.31449C19.4893 8.49633 20.712 9.14029 20.8292 10.3425C20.992 12.0217 21.0034 15.8112 20.8149 17.4718C20.3792 21.3027 15.1883 21.6182 14.087 17.9387L10.4717 9.41587L8.40048 14.2705C9.38038 14.0949 10.9802 13.1697 11.7516 14.1335C12.2044 14.6989 12.2072 15.2743 11.7516 15.8369C11.3387 16.3452 10.0503 16.4651 9.36181 16.7322C7.14776 17.586 7.11776 18.477 5.83219 20.0576C4.83515 21.2813 3.1239 20.109 3.60957 18.6926L8.86186 6.52448C9.58893 5.38077 11.0159 5.19515 11.893 6.2846L16.8924 17.7059C17.4252 18.23 18.1452 17.9101 18.2494 17.1933C18.5594 15.0544 18.0066 12.243 18.2494 10.0541C18.2737 9.83423 18.4294 9.45585 18.5837 9.31735L18.5822 9.31449Z" fill="url(#paint1_linear_1366_8)"/>
<defs>
<linearGradient id="paint0_linear_1366_8">
<stop/>
<stop/>
<stop/>
</linearGradient>
<linearGradient id="paint1_linear_1366_8">
<stop/>
<stop/>
<stop/>
</linearGradient>
</defs>
</svg>
