<?xml version="1.0" encoding="UTF-8"?> <svg xmlns="http://www.w3.org/2000/svg" width="25" height="24" viewBox="0 0 25 24" fill="none"><rect width="24.7363" height="24.0003" rx="3" fill="#94C1FF" fill-opacity="0.17"></rect><path d="M12.3682 7.09106C9.05453 7.09106 6.36816 9.77743 6.36816 13.0911C6.36816 14.5414 6.88307 15.8718 7.73998 16.9092H16.9969C17.8533 15.8718 18.3682 14.5414 18.3682 13.0911C18.3682 9.77743 15.6818 7.09106 12.3682 7.09106ZM14.0776 9.03943C14.2282 8.7787 14.562 8.68925 14.8227 8.83979C15.0834 8.99034 15.1729 9.32416 15.0223 9.58488C14.8718 9.84561 14.538 9.93506 14.2773 9.78452C14.0165 9.63397 13.9271 9.30016 14.0776 9.03943ZM12.3682 8.18197C12.6693 8.18197 12.9136 8.42634 12.9136 8.72743C12.9136 9.02852 12.6693 9.27288 12.3682 9.27288C12.0671 9.27288 11.8227 9.02852 11.8227 8.72743C11.8227 8.42634 12.0671 8.18197 12.3682 8.18197ZM7.45907 13.0911C7.45907 12.79 7.70344 12.5456 8.00453 12.5456C8.30562 12.5456 8.54998 12.79 8.54998 13.0911C8.54998 13.3922 8.30562 13.6365 8.00453 13.6365C7.70344 13.6365 7.45907 13.3922 7.45907 13.0911ZM8.86198 15.7452C8.60126 15.8958 8.26744 15.8063 8.11689 15.5456C7.96635 15.2849 8.0558 14.9511 8.31653 14.8005C8.57726 14.65 8.91107 14.7394 9.06162 15.0002C9.21216 15.2609 9.12271 15.5947 8.86198 15.7452ZM9.06162 11.182C8.91107 11.4427 8.57726 11.5322 8.31653 11.3816C8.0558 11.2311 7.96635 10.8972 8.11689 10.6365C8.26744 10.3758 8.60126 10.2863 8.86198 10.4369C9.12271 10.5874 9.21216 10.9212 9.06162 11.182ZM10.4591 9.78452C10.1983 9.93506 9.86453 9.84561 9.71398 9.58488C9.56344 9.32416 9.65289 8.99034 9.91362 8.83979C10.1743 8.68925 10.5082 8.7787 10.6587 9.03943C10.8093 9.30016 10.7198 9.63397 10.4591 9.78452ZM12.3682 13.9092C11.9165 13.9092 11.55 13.5427 11.55 13.0911C11.55 12.6394 11.9165 12.2729 12.3682 12.2729C12.4565 12.2729 12.5394 12.2903 12.6191 12.316L15.8749 10.4363L16.4203 11.3811L13.1683 13.258C13.0914 13.63 12.7625 13.9092 12.3682 13.9092ZM16.6194 15.5456C16.4689 15.8063 16.1351 15.8958 15.8743 15.7452C15.6136 15.5947 15.5242 15.2609 15.6747 15.0002C15.8253 14.7394 16.1591 14.65 16.4198 14.8005C16.6805 14.9511 16.77 15.2849 16.6194 15.5456ZM16.7318 13.6365C16.4307 13.6365 16.1863 13.3922 16.1863 13.0911C16.1863 12.79 16.4307 12.5456 16.7318 12.5456C17.0329 12.5456 17.2773 12.79 17.2773 13.0911C17.2773 13.3922 17.0329 13.6365 16.7318 13.6365Z" fill="#3D6396"></path></svg> 