<?xml version="1.0" encoding="UTF-8"?> <svg xmlns="http://www.w3.org/2000/svg" width="25" height="24" viewBox="0 0 25 24" fill="none"><rect width="24.7363" height="24.0003" rx="3" fill="#94C1FF" fill-opacity="0.17"></rect><path d="M17.1682 6.00015H7.56816C6.90816 6.00015 6.37416 6.54015 6.37416 7.20015L6.36816 18.0002L8.76816 15.6002H17.1682C17.8282 15.6002 18.3682 15.0602 18.3682 14.4002V7.20015C18.3682 6.54015 17.8282 6.00015 17.1682 6.00015ZM12.9682 14.4002H11.7682V13.2002H12.9682V14.4002ZM12.9682 12.0002H11.7682C11.7682 11.4152 12.9682 10.2326 12.9682 9.60015C12.9682 9.59415 12.9616 9.00015 12.3682 9.00015C11.8726 9.00015 11.7682 9.50115 11.7682 9.60015H10.5682C10.5682 8.87415 11.1406 7.80015 12.3682 7.80015C13.495 7.80015 14.1682 8.71515 14.1682 9.60015C14.1682 10.4534 12.9682 11.4086 12.9682 12.0002Z" fill="#3D6396"></path></svg> 