<svg width="55" height="55" viewBox="0 0 55 55" fill="none" xmlns="http://www.w3.org/2000/svg">
<g clip-path="url(#clip0_226_1823)">
<path d="M27.417 54.834C34.6885 54.834 41.6621 51.9455 46.8038 46.8038C51.9455 41.6621 54.834 34.6885 54.834 27.417C54.834 20.1456 51.9455 13.1719 46.8038 8.03026C41.6621 2.88857 34.6885 0 27.417 0C20.1456 0 13.172 2.88857 8.03026 8.03026C2.88857 13.1719 0 20.1456 0 27.417C0 34.6885 2.88857 41.6621 8.03026 46.8038C13.172 51.9455 20.1456 54.834 27.417 54.834Z" fill="white"/>
<path d="M27 12C25.6182 12 24.5 13.1182 24.5 14.5V15.125H18.875C17.813 15.125 17 15.938 17 17V40.125C17 41.187 17.813 42 18.875 42H35.125C36.187 42 37 41.187 37 40.125V17C37 15.938 36.187 15.125 35.125 15.125H29.5V14.5C29.5 13.1182 28.3818 12 27 12ZM27 13.25C27.7446 13.25 28.25 13.7554 28.25 14.5V17H25.75V14.5C25.75 13.7554 26.2554 13.25 27 13.25ZM27 13.875C26.6558 13.875 26.375 14.1558 26.375 14.5C26.375 14.8442 26.6558 15.125 27 15.125C27.3442 15.125 27.625 14.8442 27.625 14.5C27.625 14.1558 27.3442 13.875 27 13.875ZM32.1831 24.6831L33.0669 25.5669L25.125 33.5088L20.9331 29.3169L21.8169 28.4331L25.125 31.7412L32.1831 24.6831Z" fill="#3D6396"/>
</g>
<defs>
<clipPath id="clip0_226_1823">
<rect width="54.834" height="54.834" fill="white"/>
</clipPath>
</defs>
</svg>
