<svg width="55" height="56" viewBox="0 0 55 56" fill="none" xmlns="http://www.w3.org/2000/svg">
<g clip-path="url(#clip0_226_1790)">
<path d="M27.417 55.336C34.6885 55.336 41.6621 52.4474 46.8038 47.3057C51.9455 42.1641 54.834 35.1904 54.834 27.919C54.834 20.6475 51.9455 13.6739 46.8038 8.53221C41.6621 3.39052 34.6885 0.501953 27.417 0.501953C20.1456 0.501953 13.172 3.39052 8.03026 8.53221C2.88857 13.6739 0 20.6475 0 27.919C0 35.1904 2.88857 42.1641 8.03026 47.3057C13.172 52.4474 20.1456 55.336 27.417 55.336Z" fill="white"/>
<path d="M27.8521 12.9648C23.6919 12.9648 19.111 14.5415 18.1575 19.6552C18.0217 20.2012 18.4345 20.4595 18.7754 20.5288L22.9941 20.9336C23.4043 20.9336 23.6893 20.5341 23.8251 20.1239C24.166 18.3501 25.6628 17.4606 27.2981 17.4606C28.185 17.4606 29.2024 17.8148 29.7484 18.6325C30.361 19.5194 30.2385 20.7418 30.2385 21.7646V22.3825C27.7163 22.6541 24.443 22.8512 22.0566 23.8739C19.3294 25.0325 17.4117 27.4242 17.4117 30.9691C17.4117 35.4702 20.2749 37.7234 23.889 37.7234C26.9572 37.7234 28.6617 36.9616 31.0481 34.506C31.8658 35.6646 32.1294 36.2186 33.5623 37.4464C33.9032 37.6515 34.3134 37.5689 34.585 37.2972V37.3825C35.4719 36.6314 37.0433 35.1932 37.9302 34.4421C38.2711 34.237 38.2019 33.7603 37.9302 33.4194C37.1126 32.3274 36.2896 31.4379 36.2896 29.3924V22.6381C36.2896 19.775 36.508 17.1143 34.3933 15.1381C32.6887 13.5028 29.9668 12.9648 27.8521 12.9648ZM29.0027 25.9194H30.1532V26.8782C30.1532 28.5135 30.2251 29.9384 29.4075 31.4379C28.7257 32.6657 27.631 33.4194 26.4032 33.4194C24.7679 33.4194 23.7612 32.1969 23.7612 30.2873C23.7612 27.0833 26.2754 26.1245 29.0027 25.9194ZM40.9984 35.8697C39.9064 35.8697 38.6067 36.1467 37.6532 36.8285C37.3816 37.0336 37.3975 37.2972 37.7385 37.2972C38.8304 37.1614 41.2674 36.8338 41.7441 37.4464C42.1543 37.9924 41.2807 40.2962 40.8706 41.3881C40.7347 41.729 41.0037 41.8063 41.2754 41.6012C43.1158 40.0325 43.5978 36.8338 43.2569 36.4237C43.0518 36.0827 42.0904 35.8697 40.9984 35.8697ZM12.085 36.4876C11.88 36.4876 11.7495 36.8365 12.0211 37.0415C16.112 40.7223 21.508 42.9648 27.5751 42.9648C31.8711 42.9648 36.8382 41.6092 40.3166 39.087C40.8626 38.6768 40.3938 37.9844 39.8478 38.256C35.962 39.8913 31.7992 40.7063 27.9799 40.7063C22.3203 40.7063 16.8578 39.1376 12.426 36.6154C12.2901 36.4796 12.1543 36.4876 12.085 36.4876Z" fill="#3D6396"/>
</g>
<defs>
<clipPath id="clip0_226_1790">
<rect width="54.834" height="54.834" fill="white" transform="translate(0 0.501953)"/>
</clipPath>
</defs>
</svg>
