<svg width="56" height="56" viewBox="0 0 56 56" fill="none" xmlns="http://www.w3.org/2000/svg">
<g clip-path="url(#clip0_226_1838)">
<path d="M28.251 55.502C35.5225 55.502 42.4961 52.6134 47.6378 47.4718C52.7795 42.3301 55.668 35.3564 55.668 28.085C55.668 20.8135 52.7795 13.8399 47.6378 8.69823C42.4961 3.55654 35.5225 0.667969 28.251 0.667969C20.9796 0.667969 14.0059 3.55654 8.86425 8.69823C3.72256 13.8399 0.833984 20.8135 0.833984 28.085C0.833984 35.3564 3.72256 42.3301 8.86425 47.4718C14.0059 52.6134 20.9796 55.502 28.251 55.502Z" fill="white"/>
<path d="M24.4249 12.668C18.0233 12.668 12.834 17.8573 12.834 24.2589C12.834 30.6605 18.0233 35.8498 24.4249 35.8498C26.9599 35.8498 29.2954 35.0259 31.2005 33.6445L40.1653 42.6094L42.0936 40.6811L33.2113 31.7988C34.8097 29.9323 35.8286 27.5541 35.9812 24.9407H33.5708L29.1976 29.3139L21.0158 21.1321L17.2072 24.9407H14.2322C14.2172 24.7143 14.1976 24.4893 14.1976 24.2589C14.1976 24.0284 14.2172 23.8034 14.2322 23.5771H16.6426L21.0158 19.2038L29.1976 27.3857L33.0062 23.5771H35.9812C35.626 17.4946 30.596 12.668 24.4249 12.668ZM35.9812 23.5771C35.9941 23.8041 36.0158 24.0284 36.0158 24.2589C36.0158 24.4893 35.9941 24.7137 35.9812 24.9407H42.834V23.5771H35.9812Z" fill="#D87928"/>
</g>
<defs>
<clipPath id="clip0_226_1838">
<rect width="54.834" height="54.834" fill="white" transform="translate(0.833984 0.667969)"/>
</clipPath>
</defs>
</svg>
