<svg width="56" height="55" viewBox="0 0 56 55" fill="none" xmlns="http://www.w3.org/2000/svg">
<g clip-path="url(#clip0_226_1826)">
<path d="M28.251 54.834C35.5225 54.834 42.4961 51.9455 47.6378 46.8038C52.7795 41.6621 55.668 34.6885 55.668 27.417C55.668 20.1456 52.7795 13.1719 47.6378 8.03026C42.4961 2.88857 35.5225 0 28.251 0C20.9796 0 14.0059 2.88857 8.86425 8.03026C3.72256 13.1719 0.833984 20.1456 0.833984 27.417C0.833984 34.6885 3.72256 41.6621 8.86425 46.8038C14.0059 51.9455 20.9796 54.834 28.251 54.834Z" fill="white"/>
<path d="M16.8101 42.7139C18.8478 42.7139 20.4893 41.0724 20.4893 39.0346C20.4893 36.9969 18.8478 35.3554 16.8101 35.3554C14.7724 35.3554 13.1309 36.9969 13.1309 39.0346C13.1309 41.0724 14.7724 42.7139 16.8101 42.7139ZM16.8101 37.0535C17.2912 37.0535 17.7441 37.2233 18.0837 37.5063C18.112 37.5629 18.1403 37.5912 18.1969 37.6195C18.2252 37.6478 18.2818 37.7044 18.3384 37.7327C18.6214 38.0724 18.8195 38.5252 18.8195 39.0063C18.8195 40.1101 17.9422 40.9875 16.8384 40.9875C15.7346 40.9875 14.8573 40.1101 14.8573 39.0063C14.8573 37.9025 15.7063 37.0535 16.8101 37.0535ZM13.1309 16.3931C13.1309 18.4308 14.7724 20.0724 16.8101 20.0724C18.8478 20.0724 20.4893 18.4308 20.4893 16.3931C20.4893 14.3554 18.8478 12.7139 16.8101 12.7139C14.7724 12.7139 13.1309 14.3554 13.1309 16.3931ZM16.8101 14.412C17.9139 14.412 18.7912 15.2893 18.7912 16.3931C18.7912 17.4969 17.9139 18.3742 16.8101 18.3742C15.7063 18.3742 14.829 17.4969 14.829 16.3931C14.829 15.2893 15.7063 14.412 16.8101 14.412ZM39.4516 42.7139C41.4893 42.7139 43.1309 41.0724 43.1309 39.0346C43.1309 36.9969 41.4893 35.3554 39.4516 35.3554C37.4139 35.3554 35.7724 36.9969 35.7724 39.0346C35.7724 41.0724 37.4139 42.7139 39.4516 42.7139ZM39.4516 37.0535C40.5554 37.0535 41.4327 37.9308 41.4327 39.0346C41.4327 40.1384 40.5554 41.0158 39.4516 41.0158C38.3478 41.0158 37.4705 40.1384 37.4705 39.0346C37.4705 37.9308 38.3478 37.0535 39.4516 37.0535ZM36.5931 19.2516C36.7629 19.4214 36.9893 19.5063 37.1875 19.5063C37.3856 19.5063 37.612 19.4214 37.7818 19.2516L39.4516 17.5818L41.1214 19.2516C41.2912 19.4214 41.5177 19.5063 41.7158 19.5063C41.9139 19.5063 42.1403 19.4214 42.3101 19.2516C42.6497 18.912 42.6497 18.3742 42.3101 18.0629L40.6403 16.3931L42.3101 14.7233C42.6497 14.3837 42.6497 13.8459 42.3101 13.5346C41.9705 13.195 41.4327 13.195 41.1214 13.5346L39.4516 15.2044L37.7818 13.5346C37.4422 13.195 36.9044 13.195 36.5931 13.5346C36.2535 13.8742 36.2535 14.412 36.5931 14.7233L38.2629 16.3931L36.5931 18.0629C36.2535 18.4025 36.2535 18.912 36.5931 19.2516ZM22.1592 32.4969L21.3101 33.3459C20.9705 33.6856 20.9705 34.2233 21.3101 34.5346C21.4799 34.7044 21.7063 34.7893 21.9044 34.7893C22.1026 34.7893 22.329 34.7044 22.4988 34.5346L23.3478 33.6856C23.6875 33.3459 23.6875 32.8082 23.3478 32.4969C23.0082 32.1573 22.4988 32.1573 22.1592 32.4969ZM25.8384 28.8176L24.9894 29.6667C24.6497 30.0063 24.6497 30.5441 24.9894 30.8554C25.1592 31.0252 25.3856 31.1101 25.5837 31.1101C25.7818 31.1101 26.0082 31.0252 26.178 30.8554L27.0271 30.0063C27.3667 29.6667 27.3667 29.129 27.0271 28.8176C26.6875 28.478 26.178 28.478 25.8384 28.8176ZM29.5177 25.1384L28.6686 25.9875C28.329 26.3271 28.329 26.8648 28.6686 27.1761C28.8384 27.3459 29.0648 27.4308 29.2629 27.4308C29.461 27.4308 29.6875 27.3459 29.8573 27.1761L30.7063 26.3271C31.046 25.9875 31.046 25.4497 30.7063 25.1384C30.3667 24.7988 29.8573 24.7988 29.5177 25.1384ZM33.1969 21.4592L32.3478 22.3082C32.0082 22.6478 32.0082 23.1856 32.3478 23.4969C32.5177 23.6667 32.7441 23.7516 32.9422 23.7516C33.1403 23.7516 33.3667 23.6667 33.5365 23.4969L34.3856 22.6478C34.7252 22.3082 34.7252 21.7705 34.3856 21.4592C34.046 21.1195 33.5365 21.1195 33.1969 21.4592Z" fill="#3A8195"/>
</g>
<defs>
<clipPath id="clip0_226_1826">
<rect width="54.834" height="54.834" fill="white" transform="translate(0.833984)"/>
</clipPath>
</defs>
</svg>
