<svg width="56" height="56" viewBox="0 0 56 56" fill="none" xmlns="http://www.w3.org/2000/svg">
<g clip-path="url(#clip0_226_1801)">
<path d="M28.251 55.17C35.5225 55.17 42.4961 52.2814 47.6378 47.1397C52.7795 41.998 55.668 35.0244 55.668 27.753C55.668 20.4815 52.7795 13.5079 47.6378 8.3662C42.4961 3.22451 35.5225 0.335938 28.251 0.335938C20.9796 0.335938 14.0059 3.22451 8.86425 8.3662C3.72256 13.5079 0.833984 20.4815 0.833984 27.753C0.833984 35.0244 3.72256 41.998 8.86425 47.1397C14.0059 52.2814 20.9796 55.17 28.251 55.17Z" fill="white"/>
<path d="M19.2501 42.7988C19.1241 42.7988 18.998 42.7358 18.872 42.6728C18.6829 42.5467 18.5569 42.2316 18.6199 41.9795L21.393 31.6434L13.0737 24.8997C12.8216 24.7736 12.7585 24.4585 12.8216 24.2064C12.8846 23.9543 13.1367 23.7652 13.3888 23.7652L24.1031 23.198L27.9476 13.177C28.0737 12.9879 28.3258 12.7988 28.5779 12.7988C28.83 12.7988 29.0821 12.9879 29.1451 13.177L32.9896 23.198L43.7039 23.7652C43.956 23.7652 44.2081 23.9543 44.2711 24.2064C44.3342 24.4585 44.2711 24.7106 44.0821 24.8997L35.7627 31.6434L38.5358 41.9795C38.5989 42.2316 38.5358 42.4837 38.2837 42.6728C38.0947 42.7988 37.7795 42.8619 37.5905 42.6728L28.5779 36.8745L19.5653 42.6728C19.4392 42.7988 19.3762 42.7988 19.2501 42.7988Z" fill="#7D963D"/>
</g>
<defs>
<clipPath id="clip0_226_1801">
<rect width="54.834" height="54.834" fill="white" transform="translate(0.833984 0.335938)"/>
</clipPath>
</defs>
</svg>
