<svg width="56" height="56" viewBox="0 0 56 56" fill="none" xmlns="http://www.w3.org/2000/svg">
<g clip-path="url(#clip0_226_1779)">
<path d="M28.251 55.668C35.5225 55.668 42.4961 52.7795 47.6378 47.6378C52.7795 42.4961 55.668 35.5225 55.668 28.251C55.668 20.9796 52.7795 14.0059 47.6378 8.86424C42.4961 3.72255 35.5225 0.833984 28.251 0.833984C20.9796 0.833984 14.0059 3.72255 8.86425 8.86424C3.72256 14.0059 0.833984 20.9796 0.833984 28.251C0.833984 35.5225 3.72256 42.4961 8.86425 47.6378C14.0059 52.7795 20.9796 55.668 28.251 55.668Z" fill="white"/>
<path d="M13.5215 13.4004V43.4004H43.5215V13.4004H13.5215ZM38.9061 30.7081H18.1369V28.4004H38.9061V30.7081ZM22.7523 24.9389V22.6312H34.2907V24.9389H22.7523ZM38.9061 19.1696H18.1369V16.8619H38.9061V19.1696Z" fill="#7D963D"/>
</g>
<defs>
<clipPath id="clip0_226_1779">
<rect width="54.834" height="54.834" fill="white" transform="translate(0.833984 0.833984)"/>
</clipPath>
</defs>
</svg>
