<svg width="56" height="55" viewBox="0 0 56 55" fill="none" xmlns="http://www.w3.org/2000/svg">
<g clip-path="url(#clip0_226_1808)">
<path d="M28.251 55.004C35.5225 55.004 42.4961 52.1154 47.6378 46.9737C52.7795 41.832 55.668 34.8584 55.668 27.5869C55.668 20.3155 52.7795 13.3419 47.6378 8.20018C42.4961 3.05849 35.5225 0.169922 28.251 0.169922C20.9796 0.169922 14.0059 3.05849 8.86425 8.20018C3.72256 13.3419 0.833984 20.3155 0.833984 27.5869C0.833984 34.8584 3.72256 41.832 8.86425 46.9737C14.0059 52.1154 20.9796 55.004 28.251 55.004Z" fill="white"/>
<path d="M20.0079 12.6328C19.6472 12.6328 19.3557 12.925 19.3557 13.285V14.3728L17.5291 16.807C17.4443 16.9198 17.3992 17.0572 17.3992 17.198C17.3992 18.4098 18.2333 19.4222 19.3557 19.7137V27.6328C19.3557 27.9928 19.6472 28.285 20.0079 28.285H35.6601C36.0207 28.285 36.3122 27.9928 36.3122 27.6328V19.7137C37.4346 19.4222 38.2688 18.4098 38.2688 17.198C38.2688 17.0572 38.2236 16.9198 38.1388 16.807L36.3122 14.3728V13.285C36.3122 12.925 36.0207 12.6328 35.6601 12.6328H20.0079ZM21.9644 18.9049C22.4431 19.4527 23.1377 19.8067 23.9209 19.8067C24.7042 19.8067 25.3988 19.4527 25.8775 18.9049C26.3562 19.4527 27.0507 19.8067 27.834 19.8067C28.6172 19.8067 29.3118 19.4527 29.7905 18.9049C30.2692 19.4527 30.9638 19.8067 31.747 19.8067C32.5303 19.8067 33.2249 19.4527 33.7036 18.9049C34.0433 19.2942 34.4927 19.58 35.0079 19.7137V26.9806H20.6601V19.7137C21.1753 19.58 21.6246 19.2942 21.9644 18.9049ZM24.5731 29.5893C24.4001 29.5893 24.2343 29.658 24.112 29.7804C23.9897 29.9027 23.9209 30.0685 23.9209 30.2415C23.9209 30.4145 23.9897 30.5804 24.112 30.7027C24.2343 30.825 24.4001 30.8937 24.5731 30.8937C24.7461 30.8937 24.912 30.825 25.0343 30.7027C25.1566 30.5804 25.2253 30.4145 25.2253 30.2415C25.2253 30.0685 25.1566 29.9027 25.0343 29.7804C24.912 29.658 24.7461 29.5893 24.5731 29.5893ZM31.0949 29.5893C30.9219 29.5893 30.756 29.658 30.6337 29.7804C30.5114 29.9027 30.4427 30.0685 30.4427 30.2415C30.4427 30.4145 30.5114 30.5804 30.6337 30.7027C30.756 30.825 30.9219 30.8937 31.0949 30.8937C31.2678 30.8937 31.4337 30.825 31.556 30.7027C31.6783 30.5804 31.747 30.4145 31.747 30.2415C31.747 30.0685 31.6783 29.9027 31.556 29.7804C31.4337 29.658 31.2678 29.5893 31.0949 29.5893ZM17.3992 30.8937C14.8825 30.8937 12.834 32.9403 12.834 35.4564C12.834 38.2718 15.4373 40.9169 16.8362 42.3373L16.9343 42.4379C17.0569 42.5625 17.2238 42.6328 17.3992 42.6328C17.5746 42.6328 17.7415 42.5625 17.8641 42.4379L17.9622 42.3373C19.3611 40.9169 21.9644 38.2724 21.9644 35.4564C21.9644 32.9403 19.9159 30.8937 17.3992 30.8937ZM38.2688 30.8937C35.752 30.8937 33.7036 32.9403 33.7036 35.4564C33.7036 38.2718 36.3068 40.9169 37.7058 42.3373L37.8038 42.4379C37.9264 42.5625 38.0933 42.6328 38.2688 42.6328C38.4442 42.6328 38.6111 42.5625 38.7337 42.4379L38.8318 42.3373C40.2307 40.9169 42.834 38.2724 42.834 35.4564C42.834 32.9403 40.7855 30.8937 38.2688 30.8937ZM23.2688 31.5459C23.0958 31.5459 22.9299 31.6146 22.8076 31.7369C22.6853 31.8592 22.6166 32.0251 22.6166 32.198C22.6166 32.371 22.6853 32.5369 22.8076 32.6592C22.9299 32.7815 23.0958 32.8502 23.2688 32.8502C23.4417 32.8502 23.6076 32.7815 23.7299 32.6592C23.8522 32.5369 23.9209 32.371 23.9209 32.198C23.9209 32.0251 23.8522 31.8592 23.7299 31.7369C23.6076 31.6146 23.4417 31.5459 23.2688 31.5459ZM32.3992 31.5459C32.2262 31.5459 32.0604 31.6146 31.938 31.7369C31.8157 31.8592 31.747 32.0251 31.747 32.198C31.747 32.371 31.8157 32.5369 31.938 32.6592C32.0604 32.7815 32.2262 32.8502 32.3992 32.8502C32.5722 32.8502 32.7381 32.7815 32.8604 32.6592C32.9827 32.5369 33.0514 32.371 33.0514 32.198C33.0514 32.0251 32.9827 31.8592 32.8604 31.7369C32.7381 31.6146 32.5722 31.5459 32.3992 31.5459Z" fill="#F5D74D"/>
</g>
<defs>
<clipPath id="clip0_226_1808">
<rect width="54.834" height="54.834" fill="white" transform="translate(0.833984 0.169922)"/>
</clipPath>
</defs>
</svg>
