<svg width="55" height="56" viewBox="0 0 55 56" fill="none" xmlns="http://www.w3.org/2000/svg">
<g clip-path="url(#clip0_226_1798)">
<path d="M27.417 55.17C34.6885 55.17 41.6621 52.2814 46.8038 47.1397C51.9455 41.998 54.834 35.0244 54.834 27.753C54.834 20.4815 51.9455 13.5079 46.8038 8.3662C41.6621 3.22451 34.6885 0.335938 27.417 0.335938C20.1456 0.335938 13.172 3.22451 8.03026 8.3662C2.88857 13.5079 0 20.4815 0 27.753C0 35.0244 2.88857 41.998 8.03026 47.1397C13.172 52.2814 20.1456 55.17 27.417 55.17Z" fill="white"/>
<path d="M35.0261 12.6758C33.1247 12.767 31.2963 13.5969 29.8828 15.0104L24.3383 20.5549C25.2091 19.6795 28.4419 20.2813 29.2262 21.0656L32.5821 17.7097C33.3253 16.9665 34.2555 16.5105 35.2084 16.4695C35.8559 16.4376 36.7724 16.5743 37.5795 17.3814C38.3318 18.1337 38.4914 19.0092 38.4914 19.6065C38.4914 20.6051 38.0354 21.5991 37.2512 22.3788L31.4148 28.2516C29.9466 29.7198 27.7124 29.8384 26.4174 28.5434C25.6788 27.8048 24.4614 27.8002 23.7181 28.5434C22.9749 29.2866 22.9749 30.4995 23.7181 31.2427C25.0496 32.5742 26.8005 33.249 28.6061 33.249C30.5576 33.249 32.5502 32.451 34.0777 30.9144L39.9505 25.0781C41.4415 23.5916 42.285 21.6036 42.285 19.6065C42.285 17.7507 41.5828 15.9862 40.2788 14.6821C38.8835 13.2868 37.0095 12.5847 35.0261 12.6758ZM25.9797 22.087C24.0282 22.087 22.0037 22.8895 20.4717 24.4215L14.6353 30.2578C13.1443 31.7443 12.3008 33.7323 12.3008 35.7294C12.3008 37.5852 13.003 39.3498 14.307 40.6538C15.7023 42.0491 17.5763 42.7513 19.5597 42.6601C21.4611 42.5689 23.2895 41.739 24.703 40.3256L30.2476 34.781C29.3721 35.6565 26.1439 35.0546 25.3596 34.2703L22.0037 37.6262C21.2605 38.3695 20.3303 38.8209 19.3774 38.8665C18.7299 38.8984 17.8134 38.7616 17.0063 37.9545C16.254 37.2022 16.0944 36.3222 16.0944 35.7294C16.0944 34.7309 16.5504 33.7369 17.3346 32.9572L23.171 27.0843C24.6392 25.6161 26.8734 25.5021 28.1684 26.7925C28.9116 27.5357 30.129 27.5357 30.8677 26.7925C31.6109 26.0493 31.6109 24.8364 30.8677 24.0932C29.5362 22.7618 27.7808 22.087 25.9797 22.087Z" fill="#489A81"/>
</g>
<defs>
<clipPath id="clip0_226_1798">
<rect width="54.834" height="54.834" fill="white" transform="translate(0 0.335938)"/>
</clipPath>
</defs>
</svg>
