<svg width="55" height="56" viewBox="0 0 55 56" fill="none" xmlns="http://www.w3.org/2000/svg">
<g clip-path="url(#clip0_226_1782)">
<path d="M27.417 55.502C34.6885 55.502 41.6621 52.6134 46.8038 47.4718C51.9455 42.3301 54.834 35.3564 54.834 28.085C54.834 20.8135 51.9455 13.8399 46.8038 8.69823C41.6621 3.55654 34.6885 0.667969 27.417 0.667969C20.1456 0.667969 13.172 3.55654 8.03026 8.69823C2.88857 13.8399 0 20.8135 0 28.085C0 35.3564 2.88857 42.3301 8.03026 47.4718C13.172 52.6134 20.1456 55.502 27.417 55.502Z" fill="white"/>
<g clip-path="url(#clip1_226_1782)">
<path d="M35.3063 13.4626C35.0603 13.4954 34.861 13.6759 34.8024 13.9173C34.7438 14.1564 34.8399 14.4095 35.0438 14.5501C37.9595 16.7415 40.0079 20.0017 40.6126 23.7564C40.629 23.9814 40.772 24.1782 40.9806 24.265C41.1892 24.3517 41.4306 24.3142 41.6017 24.1665C41.7728 24.0189 41.8478 23.7892 41.7938 23.5689C41.1399 19.5001 38.9157 15.947 35.7563 13.5751C35.6274 13.479 35.4657 13.4392 35.3063 13.4626ZM26.4001 15.2626C20.4446 15.2626 15.6001 20.1071 15.6001 26.0626V32.6626C15.6001 38.6181 20.4446 43.4626 26.4001 43.4626C32.3556 43.4626 37.2001 38.6181 37.2001 32.6626V26.0626C37.2001 20.1071 32.3556 15.2626 26.4001 15.2626ZM34.2376 15.6376C33.9868 15.6564 33.7735 15.8321 33.7056 16.0759C33.6399 16.3196 33.7313 16.5798 33.9376 16.7251C36.1009 18.4689 37.629 20.9415 38.1751 23.7751C38.2384 24.1009 38.5524 24.3165 38.8782 24.2532C39.204 24.19 39.4196 23.8759 39.3563 23.5501C38.754 20.4306 37.0665 17.7048 34.6876 15.7876C34.5798 15.6915 34.4392 15.6376 34.2938 15.6376C34.2751 15.6376 34.2563 15.6376 34.2376 15.6376ZM25.8001 16.5001V29.0626H16.8001V26.0626C16.8001 20.972 20.7868 16.8118 25.8001 16.5001ZM16.8001 30.2626H36.0001V32.6626C36.0001 37.9548 31.6923 42.2626 26.4001 42.2626C21.1079 42.2626 16.8001 37.9548 16.8001 32.6626V30.2626Z" fill="#D87928"/>
</g>
</g>
<defs>
<clipPath id="clip0_226_1782">
<rect width="54.834" height="54.834" fill="white" transform="translate(0 0.667969)"/>
</clipPath>
<clipPath id="clip1_226_1782">
<rect width="30" height="30" fill="white" transform="translate(12 13.4629)"/>
</clipPath>
</defs>
</svg>
