<svg width="56" height="56" viewBox="0 0 56 56" fill="none" xmlns="http://www.w3.org/2000/svg">
<g clip-path="url(#clip0_226_1794)">
<path d="M28.251 55.336C35.5225 55.336 42.4961 52.4474 47.6378 47.3057C52.7795 42.1641 55.668 35.1904 55.668 27.919C55.668 20.6475 52.7795 13.6739 47.6378 8.53221C42.4961 3.39052 35.5225 0.501953 28.251 0.501953C20.9796 0.501953 14.0059 3.39052 8.86425 8.53221C3.72256 13.6739 0.833984 20.6475 0.833984 27.919C0.833984 35.1904 3.72256 42.1641 8.86425 47.3057C14.0059 52.4474 20.9796 55.336 28.251 55.336Z" fill="white"/>
<path d="M42.834 22.251V18.9176C42.834 17.9976 42.0873 17.251 41.1673 17.251H37.834V13.9176C37.834 12.9976 37.0873 12.251 36.1673 12.251H32.834C31.914 12.251 31.1673 12.9976 31.1673 13.9176V17.251H24.5007V13.9176C24.5007 12.9976 23.754 12.251 22.834 12.251H19.5007C18.5807 12.251 17.834 12.9976 17.834 13.9176V17.251H14.5007C13.5807 17.251 12.834 17.9976 12.834 18.9176V22.251C12.834 23.171 13.5807 23.9176 14.5007 23.9176H17.834V30.5843H14.5007C13.5807 30.5843 12.834 31.331 12.834 32.251V35.5843C12.834 36.5043 13.5807 37.251 14.5007 37.251H17.834V40.5843C17.834 41.5043 18.5807 42.251 19.5007 42.251H22.834C23.754 42.251 24.5007 41.5043 24.5007 40.5843V37.251H31.1673V40.5843C31.1673 41.5043 31.914 42.251 32.834 42.251H36.1673C37.0873 42.251 37.834 41.5043 37.834 40.5843V37.251H41.1673C42.0873 37.251 42.834 36.5043 42.834 35.5843V32.251C42.834 31.331 42.0873 30.5843 41.1673 30.5843H37.834V23.9176H41.1673C42.0873 23.9176 42.834 23.171 42.834 22.251ZM31.1673 30.5843H24.5007V23.9176H31.1673V30.5843Z" fill="#5290A2"/>
</g>
<defs>
<clipPath id="clip0_226_1794">
<rect width="54.834" height="54.834" fill="white" transform="translate(0.833984 0.501953)"/>
</clipPath>
</defs>
</svg>
