<svg width="56" height="56" viewBox="0 0 56 56" fill="none" xmlns="http://www.w3.org/2000/svg">
<g clip-path="url(#clip0_226_1832)">
<path d="M28.251 55.668C35.5225 55.668 42.4961 52.7795 47.6378 47.6378C52.7795 42.4961 55.668 35.5225 55.668 28.251C55.668 20.9796 52.7795 14.0059 47.6378 8.86424C42.4961 3.72255 35.5225 0.833984 28.251 0.833984C20.9796 0.833984 14.0059 3.72255 8.86425 8.86424C3.72256 14.0059 0.833984 20.9796 0.833984 28.251C0.833984 35.5225 3.72256 42.4961 8.86425 47.6378C14.0059 52.7795 20.9796 55.668 28.251 55.668Z" fill="white"/>
<path d="M16.9057 12.834C13.6453 12.834 11.834 20.2972 11.834 27.3246C11.834 34.3519 13.6453 41.8151 16.9057 41.8151C20.1661 41.8151 21.9774 34.3519 21.9774 27.3246C21.9774 20.2972 20.1661 12.834 16.9057 12.834ZM22.7019 12.9019C22.0057 12.9472 21.3264 13.3547 20.7547 13.9887C21.2613 14.8576 21.7566 15.9529 22.0453 17.1132L22.2038 16.8189C22.4217 16.4566 22.6283 16.1708 22.7019 16.0264C23.4264 17.1868 24.5189 20.8661 24.083 27.4604C23.7944 31.3717 23.1321 34.2019 22.4076 36.0868C21.901 38.2604 21.1849 40.2161 20.0981 41.5208C20.3161 41.6651 20.6019 41.7472 20.8906 41.7472H21.0264C24.2132 41.7472 26.4746 34.5755 26.9812 27.6189C27.5613 20.6623 26.3302 13.1198 22.9962 12.9019C22.8972 12.8934 22.801 12.8962 22.7019 12.9019ZM28.634 13.1736C27.9859 13.2529 27.3519 13.6179 26.7547 14.2151C27.1906 15.084 27.5529 16.1566 27.8415 17.317L28 17.1132C28.2887 16.6774 28.5802 16.3746 28.7246 16.2302C29.3755 17.4613 30.0236 21.7491 28.7925 28.3434C28.5746 29.5038 28.2859 30.5906 28.0679 31.6038C27.3434 35.951 25.9 40.734 23.2906 42.4717C23.4349 42.5453 23.5764 42.6076 23.7208 42.6076C23.8651 42.6076 24.0066 42.6755 24.151 42.6755C25.6 42.6755 27.0547 41.317 28.4302 38.7812C29.8057 36.2453 30.9661 32.6764 31.6906 28.9095C32.9953 21.8085 32.6246 13.8472 29.2906 13.1962C29.0727 13.1595 28.8491 13.1481 28.634 13.1736ZM16.9057 16.0264C17.8481 17.3312 19.0793 21.4547 19.0793 27.3246C19.0793 33.1944 17.8481 37.3915 16.9057 38.6227C15.9632 37.3915 14.7321 33.2651 14.7321 27.3246C14.7321 21.384 15.9632 17.2576 16.9057 16.0264ZM36.7623 16.5698C35.8453 16.6038 34.7783 17.2349 33.6378 18.2679C33.7821 19.5727 33.8698 21.0302 33.7962 22.4793L34.2264 21.8906C35.0246 20.8774 35.5991 20.3057 36.1057 19.9434C36.1057 20.3793 36.0236 21.0246 35.8793 21.8227C35.4434 24.2849 34.4359 27.401 32.9132 30.517C32.7689 30.7349 32.6953 31.0236 32.551 31.2415C31.8264 34.3576 30.8161 37.2415 29.5849 39.4151C28.7868 40.9378 27.9179 42.0359 27.0491 42.834C27.9915 42.4717 29.0812 41.6057 30.2415 40.2302C32.0529 38.1302 33.9236 35.1444 35.517 31.7396C37.1104 28.3349 38.2736 25.0066 38.7095 22.2529C39.2896 19.2812 38.8538 17.3312 37.6227 16.751C37.351 16.6236 37.0679 16.5585 36.7623 16.5698ZM43.0566 20.7359C42.2755 20.75 41.3585 21.1208 40.317 21.7547C40.317 22.0434 40.2321 22.3264 40.1585 22.6151C39.9406 23.7019 39.6604 24.9387 39.2981 26.1698L39.9547 25.5812C40.8972 24.7123 41.6161 24.217 42.1962 23.9283C41.9076 25.5217 40.6793 28.7821 37.4189 33.3472C37.2746 33.5651 37.1245 33.8453 37.1245 34.2076C37.1245 35.0057 37.7755 35.6566 38.5736 35.6566C39.0802 35.6566 39.5783 35.3679 39.7962 34.9321C43.7812 29.3538 46.6934 22.8359 44.3019 21.0981C43.9481 20.8547 43.5236 20.7274 43.0566 20.7359ZM17.4038 23.0453C17.1859 24.35 17.0472 25.6576 16.9736 26.9623C16.7557 29.3538 16.7529 31.7396 17.0415 33.9132C17.3302 32.1755 17.6302 30.0047 17.6302 27.3246C17.6302 25.7312 17.5481 24.2764 17.4038 23.0453Z" fill="#7D963D"/>
</g>
<defs>
<clipPath id="clip0_226_1832">
<rect width="54.834" height="54.834" fill="white" transform="translate(0.833984 0.833984)"/>
</clipPath>
</defs>
</svg>
