<svg width="55" height="56" viewBox="0 0 55 56" fill="none" xmlns="http://www.w3.org/2000/svg">
<g clip-path="url(#clip0_226_1829)">
<path d="M27.417 55.668C34.6885 55.668 41.6621 52.7795 46.8038 47.6378C51.9455 42.4961 54.834 35.5225 54.834 28.251C54.834 20.9796 51.9455 14.0059 46.8038 8.86424C41.6621 3.72255 34.6885 0.833984 27.417 0.833984C20.1456 0.833984 13.172 3.72255 8.03026 8.86424C2.88857 14.0059 0 20.9796 0 28.251C0 35.5225 2.88857 42.4961 8.03026 47.6378C13.172 52.7795 20.1456 55.668 27.417 55.668Z" fill="white"/>
<path d="M14.8571 13.251C13.6757 13.251 12.7143 14.2124 12.7143 15.3938V18.1882C12.6875 18.3186 12 21.679 12 23.6081C12 24.5929 12.19 25.5356 12.7115 26.2881C12.7124 26.2895 12.7133 26.2909 12.7143 26.2923V41.1081C12.7143 42.2917 13.6736 43.251 14.8571 43.251H40.5714C41.755 43.251 42.7143 42.2917 42.7143 41.1081V26.2923C42.7152 26.2909 42.7161 26.2895 42.7171 26.2881C43.2385 25.5356 43.4286 24.5929 43.4286 23.6081C43.4286 21.679 42.741 18.3186 42.7143 18.1882V15.3938C42.7143 14.2124 41.7529 13.251 40.5714 13.251H14.8571ZM15.5714 15.3938C15.9657 15.3938 16.2857 15.7138 16.2857 16.1081C16.2857 16.5024 15.9657 16.8224 15.5714 16.8224C15.1771 16.8224 14.8571 16.5024 14.8571 16.1081C14.8571 15.7138 15.1771 15.3938 15.5714 15.3938ZM17.7143 15.3938C18.1086 15.3938 18.4286 15.7138 18.4286 16.1081C18.4286 16.5024 18.1086 16.8224 17.7143 16.8224C17.32 16.8224 17 16.5024 17 16.1081C17 15.7138 17.32 15.3938 17.7143 15.3938ZM19.8571 15.3938C20.2514 15.3938 20.5714 15.7138 20.5714 16.1081C20.5714 16.5024 20.2514 16.8224 19.8571 16.8224C19.4629 16.8224 19.1429 16.5024 19.1429 16.1081C19.1429 15.7138 19.4629 15.3938 19.8571 15.3938ZM14.0522 18.9653H17V25.3129C16.5439 25.796 15.9262 26.1081 15.2143 26.1081C14.5198 26.1081 14.171 25.8843 13.8862 25.4734C13.6014 25.0624 13.4286 24.3984 13.4286 23.6081C13.4286 22.1992 13.93 19.6163 14.0522 18.9653ZM18.4286 18.9653H22V25.3129C21.5439 25.796 20.9262 26.1081 20.2143 26.1081C19.5035 26.1081 18.885 25.7984 18.4286 25.3171V18.9653ZM23.4286 18.9653H27V25.3129C26.5439 25.796 25.9262 26.1081 25.2143 26.1081C24.5035 26.1081 23.885 25.7984 23.4286 25.3171V18.9653ZM28.4286 18.9653H32V25.3129C31.5446 25.7955 30.926 26.1081 30.2143 26.1081C29.5035 26.1081 28.885 25.7984 28.4286 25.3171V18.9653ZM33.4286 18.9653H37V25.3171C36.5442 25.798 35.925 26.1081 35.2143 26.1081C34.5035 26.1081 33.8844 25.798 33.4286 25.3171V18.9653ZM38.4286 18.9653H41.3764C41.4986 19.6163 42 22.1992 42 23.6081C42 24.3984 41.8272 25.0624 41.5424 25.4734C41.2576 25.8843 40.9087 26.1081 40.2143 26.1081C39.5035 26.1081 38.8844 25.798 38.4286 25.3171V18.9653ZM17 30.3938H23.4286V41.8224H17V30.3938ZM27 30.3938H38.4286V38.9653H27V30.3938Z" fill="#60A792"/>
</g>
<defs>
<clipPath id="clip0_226_1829">
<rect width="54.834" height="54.834" fill="white" transform="translate(0 0.833984)"/>
</clipPath>
</defs>
</svg>
