<svg width="55" height="56" viewBox="0 0 55 56" fill="none" xmlns="http://www.w3.org/2000/svg">
<g clip-path="url(#clip0_226_1835)">
<path d="M27.417 55.502C34.6885 55.502 41.6621 52.6134 46.8038 47.4718C51.9455 42.3301 54.834 35.3564 54.834 28.085C54.834 20.8135 51.9455 13.8399 46.8038 8.69823C41.6621 3.55654 34.6885 0.667969 27.417 0.667969C20.1456 0.667969 13.172 3.55654 8.03026 8.69823C2.88857 13.8399 0 20.8135 0 28.085C0 35.3564 2.88857 42.3301 8.03026 47.4718C13.172 52.6134 20.1456 55.502 27.417 55.502Z" fill="white"/>
<path d="M13.9463 14.668C12.8729 14.668 12 15.5408 12 16.6143V18.581H42V16.6143C42 15.5408 41.1271 14.668 40.0537 14.668H13.9463ZM14.6087 15.9723C14.9687 15.9723 15.2609 16.2645 15.2609 16.6245C15.2609 16.9845 14.9687 17.2767 14.6087 17.2767C14.2487 17.2767 13.9565 16.9845 13.9565 16.6245C13.9565 16.2645 14.2487 15.9723 14.6087 15.9723ZM16.5652 15.9723C16.9252 15.9723 17.2174 16.2645 17.2174 16.6245C17.2174 16.9845 16.9252 17.2767 16.5652 17.2767C16.2052 17.2767 15.913 16.9845 15.913 16.6245C15.913 16.2645 16.2052 15.9723 16.5652 15.9723ZM18.5217 15.9723C18.8817 15.9723 19.1739 16.2645 19.1739 16.6245C19.1739 16.9845 18.8817 17.2767 18.5217 17.2767C18.1617 17.2767 17.8696 16.9845 17.8696 16.6245C17.8696 16.2645 18.1617 15.9723 18.5217 15.9723ZM12 19.8854V38.8086C12 39.8821 12.8729 40.7549 13.9463 40.7549H40.0537C41.1271 40.7549 42 39.8821 42 38.8086V19.8854H12ZM22.4348 21.1897C22.7948 21.1897 23.087 21.4819 23.087 21.8419C23.087 22.2019 22.7948 22.4941 22.4348 22.4941C22.0748 22.4941 21.7826 22.2019 21.7826 21.8419C21.7826 21.4819 22.0748 21.1897 22.4348 21.1897ZM27.0471 22.4941H28.2967L30.3004 30.3201H28.9565L28.647 29.0158H26.6841L26.3873 30.3201H25.0435L27.0471 22.4941ZM30.913 22.4941H31.5652C33.2152 22.4941 34.8261 22.796 34.8261 26.4071C34.8261 30.0182 33.2152 30.3201 31.5652 30.3201H30.913V22.4941ZM37.4348 22.4941C38.4046 22.4941 39.0534 23.089 39.2843 23.4405L38.194 24.1563C38.1894 24.1505 37.933 23.7984 37.4348 23.7984C37.1413 23.8062 36.7826 23.9249 36.7826 24.4506C36.7826 24.8334 37.399 25.4503 37.8946 25.946C38.6316 26.6829 39.3913 27.4414 39.3913 28.3636C39.3913 29.7991 38.2213 30.3201 37.4348 30.3201C36.465 30.3201 35.8161 29.7252 35.5853 29.3737L36.6692 28.6489C36.6803 28.6639 36.9365 29.0158 37.4348 29.0158C37.7283 29.008 38.087 28.8893 38.087 28.3636C38.087 27.9821 37.4706 27.3651 36.975 26.8695C36.2386 26.1332 35.4783 25.3741 35.4783 24.4506C35.4783 23.0151 36.6483 22.4941 37.4348 22.4941ZM22.4348 23.1462C22.7948 23.1462 23.087 23.4384 23.087 23.7984C23.087 24.1584 22.7948 24.4506 22.4348 24.4506C22.0748 24.4506 21.7826 24.1584 21.7826 23.7984C21.7826 23.4384 22.0748 23.1462 22.4348 23.1462ZM32.2174 23.8175V28.9967C33.043 28.9184 33.5217 28.5097 33.5217 26.4058C33.5217 24.3019 33.043 23.8958 32.2174 23.8175ZM27.6445 24.7945L26.9809 27.7114H28.3375L27.6445 24.7945ZM22.4348 25.1028C22.7948 25.1028 23.087 25.3949 23.087 25.7549C23.087 26.1149 22.7948 26.4071 22.4348 26.4071C22.0748 26.4071 21.7826 26.1149 21.7826 25.7549C21.7826 25.3949 22.0748 25.1028 22.4348 25.1028ZM22.4348 27.0593C22.7948 27.0593 23.087 27.3514 23.087 27.7114C23.087 28.0714 22.7948 28.3636 22.4348 28.3636C22.0748 28.3636 21.7826 28.0714 21.7826 27.7114C21.7826 27.3514 22.0748 27.0593 22.4348 27.0593ZM22.4348 29.0158C22.7948 29.0158 23.087 29.308 23.087 29.668C23.087 30.028 22.7948 30.3201 22.4348 30.3201C22.0748 30.3201 21.7826 30.028 21.7826 29.668C21.7826 29.308 22.0748 29.0158 22.4348 29.0158ZM22.4348 30.9723C22.7948 30.9723 23.087 31.2645 23.087 31.6245C23.087 31.9845 22.7948 32.2767 22.4348 32.2767C22.0748 32.2767 21.7826 31.9845 21.7826 31.6245C21.7826 31.2645 22.0748 30.9723 22.4348 30.9723ZM22.4348 32.9288C22.7948 32.9288 23.087 33.221 23.087 33.581C23.087 33.941 22.7948 34.2332 22.4348 34.2332C22.0748 34.2332 21.7826 33.941 21.7826 33.581C21.7826 33.221 22.0748 32.9288 22.4348 32.9288ZM24.3913 32.9288C24.7513 32.9288 25.0435 33.221 25.0435 33.581C25.0435 33.941 24.7513 34.2332 24.3913 34.2332C24.0313 34.2332 23.7391 33.941 23.7391 33.581C23.7391 33.221 24.0313 32.9288 24.3913 32.9288ZM26.3478 32.9288C26.7078 32.9288 27 33.221 27 33.581C27 33.941 26.7078 34.2332 26.3478 34.2332C25.9878 34.2332 25.6957 33.941 25.6957 33.581C25.6957 33.221 25.9878 32.9288 26.3478 32.9288ZM28.3043 32.9288C28.6643 32.9288 28.9565 33.221 28.9565 33.581C28.9565 33.941 28.6643 34.2332 28.3043 34.2332C27.9443 34.2332 27.6522 33.941 27.6522 33.581C27.6522 33.221 27.9443 32.9288 28.3043 32.9288ZM30.2609 32.9288C30.6209 32.9288 30.913 33.221 30.913 33.581C30.913 33.941 30.6209 34.2332 30.2609 34.2332C29.9009 34.2332 29.6087 33.941 29.6087 33.581C29.6087 33.221 29.9009 32.9288 30.2609 32.9288ZM32.2174 32.9288C32.5774 32.9288 32.8696 33.221 32.8696 33.581C32.8696 33.941 32.5774 34.2332 32.2174 34.2332C31.8574 34.2332 31.5652 33.941 31.5652 33.581C31.5652 33.221 31.8574 32.9288 32.2174 32.9288ZM34.1739 32.9288C34.5339 32.9288 34.8261 33.221 34.8261 33.581C34.8261 33.941 34.5339 34.2332 34.1739 34.2332C33.8139 34.2332 33.5217 33.941 33.5217 33.581C33.5217 33.221 33.8139 32.9288 34.1739 32.9288ZM36.1304 32.9288C36.4904 32.9288 36.7826 33.221 36.7826 33.581C36.7826 33.941 36.4904 34.2332 36.1304 34.2332C35.7704 34.2332 35.4783 33.941 35.4783 33.581C35.4783 33.221 35.7704 32.9288 36.1304 32.9288ZM38.087 32.9288C38.447 32.9288 38.7391 33.221 38.7391 33.581C38.7391 33.941 38.447 34.2332 38.087 34.2332C37.727 34.2332 37.4348 33.941 37.4348 33.581C37.4348 33.221 37.727 32.9288 38.087 32.9288ZM40.0435 32.9288C40.4035 32.9288 40.6957 33.221 40.6957 33.581C40.6957 33.941 40.4035 34.2332 40.0435 34.2332C39.6835 34.2332 39.3913 33.941 39.3913 33.581C39.3913 33.221 39.6835 32.9288 40.0435 32.9288Z" fill="#3C8F50"/>
</g>
<defs>
<clipPath id="clip0_226_1835">
<rect width="54.834" height="54.834" fill="white" transform="translate(0 0.667969)"/>
</clipPath>
</defs>
</svg>
