<svg width="55" height="55" viewBox="0 0 55 55" fill="none" xmlns="http://www.w3.org/2000/svg">
<g clip-path="url(#clip0_226_1804)">
<path d="M27.417 55.004C34.6885 55.004 41.6621 52.1154 46.8038 46.9737C51.9455 41.832 54.834 34.8584 54.834 27.5869C54.834 20.3155 51.9455 13.3419 46.8038 8.20018C41.6621 3.05849 34.6885 0.169922 27.417 0.169922C20.1456 0.169922 13.172 3.05849 8.03026 8.20018C2.88857 13.3419 0 20.3155 0 27.5869C0 34.8584 2.88857 41.832 8.03026 46.9737C13.172 52.1154 20.1456 55.004 27.417 55.004Z" fill="white"/>
<path d="M34.8262 36.7886C34.3073 36.7886 33.8097 36.9948 33.4427 37.3617C33.0758 37.7286 32.8697 38.2263 32.8697 38.7452C32.8697 39.2641 33.0758 39.7617 33.4427 40.1286C33.8097 40.4956 34.3073 40.7017 34.8262 40.7017C35.3451 40.7017 35.8428 40.4956 36.2097 40.1286C36.5766 39.7617 36.7827 39.2641 36.7827 38.7452C36.7827 38.2263 36.5766 37.7286 36.2097 37.3617C35.8428 36.9948 35.3451 36.7886 34.8262 36.7886ZM23.087 36.7886C22.5681 36.7886 22.0705 36.9948 21.7035 37.3617C21.3366 37.7286 21.1305 38.2263 21.1305 38.7452C21.1305 39.2641 21.3366 39.7617 21.7035 40.1286C22.0705 40.4956 22.5681 40.7017 23.087 40.7017C23.6059 40.7017 24.1036 40.4956 24.4705 40.1286C24.8374 39.7617 25.0436 39.2641 25.0436 38.7452C25.0436 38.2263 24.8374 37.7286 24.4705 37.3617C24.1036 36.9948 23.6059 36.7886 23.087 36.7886ZM41.781 17.5846C41.5958 17.3563 41.3167 17.2233 41.0219 17.2233H16.1152C15.5805 16.4329 14.6791 15.9189 13.6865 15.9189H12.9783C12.4383 15.9189 12 16.3572 12 16.8972C12 17.4372 12.4383 17.8755 12.9783 17.8755H13.6878C14.1444 17.8755 14.5448 18.199 14.6426 18.645L17.7209 32.6656C18.0796 34.2986 19.5522 35.4843 21.2244 35.4843H37.1088C37.6488 35.4843 38.0871 35.046 38.0871 34.506C38.0871 33.966 37.6488 33.5277 37.1088 33.5277H21.2244C20.4522 33.5277 19.7974 33.0021 19.6318 32.2469L19.4844 31.5712H36.2962C37.9841 31.5712 39.4606 30.3738 39.8062 28.7225L41.9793 18.4024C42.0393 18.1155 41.9676 17.8142 41.781 17.5846Z" fill="#D87928"/>
</g>
<defs>
<clipPath id="clip0_226_1804">
<rect width="54.834" height="54.834" fill="white" transform="translate(0 0.169922)"/>
</clipPath>
</defs>
</svg>
