<svg width="56" height="56" viewBox="0 0 56 56" fill="none" xmlns="http://www.w3.org/2000/svg">
<g clip-path="url(#clip0_226_1786)">
<path d="M28.251 55.502C35.5225 55.502 42.4961 52.6134 47.6378 47.4718C52.7795 42.3301 55.668 35.3564 55.668 28.085C55.668 20.8135 52.7795 13.8399 47.6378 8.69823C42.4961 3.55654 35.5225 0.667969 28.251 0.667969C20.9796 0.667969 14.0059 3.55654 8.86425 8.69823C3.72256 13.8399 0.833984 20.8135 0.833984 28.085C0.833984 35.3564 3.72256 42.3301 8.86425 47.4718C14.0059 52.6134 20.9796 55.502 28.251 55.502Z" fill="white"/>
<path d="M13.834 22.0844V35.5841C13.834 35.9981 14.17 36.3341 14.584 36.3341H19.8339V21.3344H14.584C14.17 21.3344 13.834 21.6704 13.834 22.0844ZM42.0139 13.9711C41.8144 13.8286 41.5549 13.7956 41.3284 13.8796L21.3338 21.1154V36.5456L20.5899 38.5166C20.3754 39.0821 20.3949 39.6971 20.6439 40.2476C20.8928 40.7995 21.3413 41.2195 21.9068 41.434L26.0287 42.9925C26.2897 43.09 26.5597 43.1395 26.8297 43.1395C27.1462 43.1395 27.4627 43.072 27.7597 42.9385C28.3102 42.6895 28.7317 42.241 28.9447 41.6755L29.7307 39.5936L41.327 43.7905C41.4109 43.819 41.4964 43.834 41.5834 43.834C41.7364 43.834 41.8864 43.7875 42.0139 43.6975C42.2149 43.558 42.3334 43.3285 42.3334 43.084V14.5846C42.3334 14.3401 42.2149 14.1106 42.0139 13.9711ZM27.5422 41.1445C27.4702 41.335 27.3277 41.4865 27.1432 41.569C26.9557 41.653 26.7502 41.659 26.5582 41.587L22.4363 40.0286C22.2458 39.9566 22.0928 39.8141 22.0103 39.6296C21.9263 39.4436 21.9203 39.2366 21.9923 39.0461L22.7408 37.0616L28.3192 39.0806L27.5422 41.1445Z" fill="#F5D74D"/>
</g>
<defs>
<clipPath id="clip0_226_1786">
<rect width="54.834" height="54.834" fill="white" transform="translate(0.833984 0.667969)"/>
</clipPath>
</defs>
</svg>
