<svg width="30" height="31" viewBox="0 0 30 31" fill="none" xmlns="http://www.w3.org/2000/svg">
<g clip-path="url(#clip0_226_1500)">
<path d="M14.7678 2.64062L8.25215 9.55938L9.70762 2.64062H14.7678ZM20.2592 2.64062L21.7428 9.55938L15.2975 2.64062H20.2592ZM21.4451 11.0336H8.54981L14.9998 4.09844L21.4451 11.0336ZM6.72637 11.0336H0.754492L8.41621 2.97344L6.72637 11.0336ZM6.79668 12.2336L12.635 27.6273L0.709961 12.2336H6.79668ZM8.0998 12.2336H21.8998L14.9998 30.1234L8.0998 12.2336ZM23.2686 11.0336L21.5482 2.94063L29.1959 11.0336H23.2686ZM17.3693 27.6156L23.2053 12.2336H29.2686L17.3693 27.6156Z" fill="white"/>
</g>
<defs>
<clipPath id="clip0_226_1500">
<rect width="30" height="30" fill="white" transform="translate(0 0.833984)"/>
</clipPath>
</defs>
</svg>
