<svg width="31" height="31" viewBox="0 0 31 31" fill="none" xmlns="http://www.w3.org/2000/svg">
<path d="M15.834 3.83398C11.4275 3.83398 7.83398 7.42755 7.83398 11.834C7.83398 11.8617 7.83761 11.8884 7.83789 11.916C5.44952 13.3026 3.83398 15.8829 3.83398 18.834C3.83398 23.2404 7.42755 26.834 11.834 26.834C13.2912 26.834 14.6551 26.4335 15.834 25.748C17.0128 26.4335 18.3767 26.834 19.834 26.834C24.2404 26.834 27.834 23.2404 27.834 18.834C27.834 15.8829 26.2185 13.3026 23.8301 11.916C23.8304 11.8884 23.834 11.8617 23.834 11.834C23.834 7.42755 20.2404 3.83398 15.834 3.83398ZM15.834 5.83398C18.9049 5.83398 21.4159 8.11615 21.7832 11.084C21.158 10.9262 20.507 10.834 19.834 10.834C18.3767 10.834 17.0128 11.2345 15.834 11.9199C14.6551 11.2345 13.2912 10.834 11.834 10.834C11.161 10.834 10.5099 10.9262 9.88477 11.084C10.2521 8.11615 12.7631 5.83398 15.834 5.83398ZM11.834 12.834C12.6358 12.834 13.3979 12.9928 14.0957 13.2754C13.2056 14.1939 12.535 15.3226 12.1641 16.5801C11.0723 15.7364 10.282 14.5279 9.97656 13.1289C10.5612 12.94 11.1846 12.834 11.834 12.834ZM19.834 12.834C20.4834 12.834 21.1067 12.94 21.6914 13.1289C21.386 14.5279 20.5957 15.7364 19.5039 16.5801C19.1329 15.3226 18.4624 14.1939 17.5723 13.2754C18.27 12.9928 19.0322 12.834 19.834 12.834ZM8.16406 14.0879C8.74911 16.0711 10.0829 17.7331 11.8379 18.752C11.8376 18.7796 11.834 18.8063 11.834 18.834C11.834 20.9916 12.6989 22.9512 14.0957 24.3926C13.3979 24.6752 12.6358 24.834 11.834 24.834C8.50842 24.834 5.83398 22.1595 5.83398 18.834C5.83398 16.8951 6.74681 15.1831 8.16406 14.0879ZM23.5039 14.0879C24.9212 15.1831 25.834 16.8951 25.834 18.834C25.834 22.1595 23.1595 24.834 19.834 24.834C19.0322 24.834 18.27 24.6752 17.5723 24.3926C18.969 22.9512 19.834 20.9916 19.834 18.834C19.834 18.8063 19.8304 18.7796 19.8301 18.752C21.585 17.7331 22.9189 16.0711 23.5039 14.0879ZM15.834 14.3613C16.7546 15.1844 17.4177 16.2852 17.6914 17.5391C17.1067 17.728 16.4834 17.834 15.834 17.834C15.1846 17.834 14.5612 17.728 13.9766 17.5391C14.2503 16.2852 14.9133 15.1844 15.834 14.3613ZM13.8848 19.584C14.5099 19.7417 15.161 19.834 15.834 19.834C16.507 19.834 17.158 19.7417 17.7832 19.584C17.6003 21.062 16.8857 22.3664 15.834 23.3066C14.7822 22.3664 14.0677 21.062 13.8848 19.584Z" fill="white"/>
</svg>
