<svg width="31" height="30" viewBox="0 0 31 30" fill="none" xmlns="http://www.w3.org/2000/svg">
<path d="M15.1387 2.5C8.24992 2.5 2.63867 8.11125 2.63867 15C2.63867 21.8888 8.24992 27.5 15.1387 27.5C22.0274 27.5 27.6387 21.8888 27.6387 15C27.6387 8.11125 22.0274 2.5 15.1387 2.5ZM15.1387 5C20.6763 5 25.1387 9.46235 25.1387 15C25.1387 17.3163 24.3502 19.4382 23.0366 21.1304L9.0083 7.10205C10.7005 5.78842 12.8223 5 15.1387 5ZM7.24072 8.86963L21.269 22.8979C19.5769 24.2116 17.455 25 15.1387 25C9.60102 25 5.13867 20.5377 5.13867 15C5.13867 12.6837 5.92709 10.5618 7.24072 8.86963Z" fill="white"/>
</svg>
