<svg width="30" height="30" viewBox="0 0 30 30" fill="none" xmlns="http://www.w3.org/2000/svg">
<path d="M10 6.25C9.00544 6.25 8.05161 6.64509 7.34835 7.34835C6.64509 8.05161 6.25 9.00544 6.25 10C6.25 10.9946 6.64509 11.9484 7.34835 12.6517C8.05161 13.3549 9.00544 13.75 10 13.75C10.9946 13.75 11.9484 13.3549 12.6517 12.6517C13.3549 11.9484 13.75 10.9946 13.75 10C13.75 9.00544 13.3549 8.05161 12.6517 7.34835C11.9484 6.64509 10.9946 6.25 10 6.25ZM20 6.25C19.0054 6.25 18.0516 6.64509 17.3483 7.34835C16.6451 8.05161 16.25 9.00544 16.25 10C16.25 10.9946 16.6451 11.9484 17.3483 12.6517C18.0516 13.3549 19.0054 13.75 20 13.75C20.9946 13.75 21.9484 13.3549 22.6517 12.6517C23.3549 11.9484 23.75 10.9946 23.75 10C23.75 9.00544 23.3549 8.05161 22.6517 7.34835C21.9484 6.64509 20.9946 6.25 20 6.25ZM4.70459 11.2524C4.15691 11.2735 2.96525 11.4146 2.18994 12.1899C1.15619 13.2237 1.25244 14.9976 1.25244 14.9976C1.25244 14.9976 3.02631 15.0938 4.06006 14.0601C5.09381 13.0263 4.99756 11.2524 4.99756 11.2524C4.99756 11.2524 4.88715 11.2454 4.70459 11.2524ZM10 16.25C6.25 16.25 1.25 18.08 1.25 20.625V22.5C1.25 23.19 1.81 23.75 2.5 23.75H17.5C18.19 23.75 18.75 23.19 18.75 22.5V20.625C18.75 18.08 13.75 16.25 10 16.25ZM20 16.25C19.6038 16.25 19.1919 16.2747 18.7769 16.3135C20.2544 17.3947 21.25 18.8237 21.25 20.625V22.5C21.25 23.19 21.81 23.75 22.5 23.75H27.5C28.19 23.75 28.75 23.19 28.75 22.5V20.625C28.75 18.08 23.75 16.25 20 16.25Z" fill="white"/>
</svg>
