<svg width="31" height="30" viewBox="0 0 31 30" fill="none" xmlns="http://www.w3.org/2000/svg">
<g clip-path="url(#clip0_144_209)">
<path d="M29.7969 0.234375H1.67188C1.27344 0.234375 0.96875 0.539062 0.96875 0.9375V29.0625C0.96875 29.4609 1.27344 29.7656 1.67188 29.7656H7.17969C7.55469 29.7656 7.8125 29.4141 7.71875 29.0625V29.0391C7.625 28.7109 7.76562 28.3359 8.07031 28.1953C8.46875 27.9844 8.96094 28.2188 9.05469 28.6406C9.125 28.875 9.19531 29.1094 9.24219 29.3438C9.3125 29.5781 9.52344 29.7656 9.78125 29.7656H29.7969C30.1953 29.7656 30.5 29.4609 30.5 29.0625V0.9375C30.5 0.539062 30.1953 0.234375 29.7969 0.234375ZM5.86719 7.71094L7.71875 5.85938L5.86719 4.00781C5.58594 3.72656 5.58594 3.28125 5.86719 3.02344C6.14844 2.74219 6.59375 2.74219 6.85156 3.02344L8.70312 4.875L10.5547 3.02344C10.8359 2.74219 11.2812 2.74219 11.5391 3.02344C11.8203 3.30469 11.8203 3.75 11.5391 4.00781L9.6875 5.85938L11.5391 7.71094C11.8203 7.99219 11.8203 8.4375 11.5391 8.69531C11.3984 8.83594 11.2344 8.90625 11.0469 8.90625C10.8594 8.90625 10.6953 8.83594 10.5547 8.69531L8.70312 6.84375L6.85156 8.69531C6.71094 8.83594 6.54688 8.90625 6.35938 8.90625C6.17188 8.90625 6.00781 8.83594 5.86719 8.69531C5.58594 8.41406 5.58594 7.99219 5.86719 7.71094ZM25.6016 26.2266C25.8828 26.5078 25.8828 26.9531 25.6016 27.2109C25.4609 27.3516 25.2734 27.4219 25.1094 27.4219C24.9453 27.4219 24.7578 27.3516 24.6172 27.2109L22.7656 25.3594L20.9141 27.2109C20.7734 27.3516 20.5859 27.4219 20.4219 27.4219C20.2578 27.4219 20.0703 27.3516 19.9297 27.2109C19.6484 26.9297 19.6484 26.4844 19.9297 26.2266L21.7812 24.375L19.9297 22.5234C19.6484 22.2422 19.6484 21.7969 19.9297 21.5391C20.2109 21.2578 20.6562 21.2578 20.9141 21.5391L22.7656 23.3906L24.6172 21.5391C24.8984 21.2578 25.3438 21.2578 25.6016 21.5391C25.8828 21.8203 25.8828 22.2656 25.6016 22.5234L23.75 24.375L25.6016 26.2266ZM27.7812 5.48438C27.5938 5.83594 27.1719 5.95312 26.8203 5.76562L23.9609 4.24219C24.2422 5.15625 24.5469 6.375 24.7578 7.6875C25.3906 11.4844 24.875 14.0625 23.1875 15.3281C21.4297 16.6406 18.3125 16.7109 15.2656 16.7812C12.7812 16.8281 10.2031 16.8984 9.10156 17.6953C7.50781 18.8438 6.92188 19.5234 8.16406 25.1719C8.25781 25.5469 8 25.9219 7.625 26.0156C7.57812 26.0156 7.53125 26.0391 7.46094 26.0391C7.13281 26.0391 6.85156 25.8047 6.78125 25.4766C5.49219 19.6406 5.98437 18.1875 8.25781 16.5469C9.71094 15.4922 12.3828 15.4453 15.2188 15.375C18.0312 15.3047 20.9141 15.2578 22.3203 14.2031C24.4297 12.6094 23.4922 7.61719 22.6016 4.59375L21.0312 7.52344C20.9141 7.75781 20.6562 7.89844 20.3984 7.89844C20.2812 7.89844 20.1641 7.875 20.0703 7.80469C19.7188 7.61719 19.6016 7.19531 19.7891 6.84375L22.1328 2.46094C22.1328 2.4375 22.1562 2.4375 22.1562 2.4375C22.1797 2.41406 22.1797 2.39062 22.2031 2.36719C22.2266 2.34375 22.2266 2.34375 22.25 2.32031C22.2734 2.32031 22.2969 2.29688 22.2969 2.29688C22.3203 2.27344 22.3438 2.27344 22.3438 2.25C22.3672 2.22656 22.3906 2.22656 22.3906 2.20312C22.4141 2.17969 22.4375 2.17969 22.4609 2.17969C22.4844 2.17969 22.4844 2.15625 22.5078 2.15625H22.5312C22.5547 2.15625 22.5781 2.13281 22.6016 2.13281C22.625 2.13281 22.6484 2.13281 22.6719 2.10938C22.6953 2.10938 22.7188 2.10938 22.7422 2.10938C22.7656 2.10938 22.7891 2.10938 22.8125 2.10938C22.8359 2.10938 22.8594 2.10938 22.8828 2.10938C22.9062 2.10938 22.9297 2.10938 22.9531 2.13281C22.9766 2.13281 23 2.15625 23.0234 2.15625C23.0469 2.15625 23.0703 2.17969 23.0938 2.17969H23.1172L27.5 4.52344C27.8281 4.71094 27.9688 5.13281 27.7812 5.48438Z" fill="white"/>
</g>
<defs>
<clipPath id="clip0_144_209">
<rect width="30" height="30" fill="white" transform="translate(0.5)"/>
</clipPath>
</defs>
</svg>
