<svg width="30" height="30" viewBox="0 0 30 30" fill="none" xmlns="http://www.w3.org/2000/svg">
<path d="M15 0C14.6685 0 14.3505 0.131696 14.1161 0.366116C13.8817 0.600537 13.75 0.918479 13.75 1.25C13.75 1.58152 13.8817 1.89946 14.1161 2.13388C14.3505 2.3683 14.6685 2.5 15 2.5C15.3315 2.5 15.6495 2.3683 15.8839 2.13388C16.1183 1.89946 16.25 1.58152 16.25 1.25C16.25 0.918479 16.1183 0.600537 15.8839 0.366116C15.6495 0.131696 15.3315 0 15 0ZM5.27832 4.02832C4.9468 4.02832 4.62886 4.16002 4.39444 4.39444C4.16002 4.62886 4.02832 4.9468 4.02832 5.27832C4.02832 5.60984 4.16002 5.92778 4.39444 6.1622C4.62886 6.39662 4.9468 6.52832 5.27832 6.52832C5.60984 6.52832 5.92778 6.39662 6.1622 6.1622C6.39662 5.92778 6.52832 5.60984 6.52832 5.27832C6.52832 4.9468 6.39662 4.62886 6.1622 4.39444C5.92778 4.16002 5.60984 4.02832 5.27832 4.02832ZM24.7217 4.02832C24.3902 4.02832 24.0722 4.16002 23.8378 4.39444C23.6034 4.62886 23.4717 4.9468 23.4717 5.27832C23.4717 5.60984 23.6034 5.92778 23.8378 6.1622C24.0722 6.39662 24.3902 6.52832 24.7217 6.52832C25.0532 6.52832 25.3711 6.39662 25.6056 6.1622C25.84 5.92778 25.9717 5.60984 25.9717 5.27832C25.9717 4.9468 25.84 4.62886 25.6056 4.39444C25.3711 4.16002 25.0532 4.02832 24.7217 4.02832ZM15 6.25C10.175 6.25 6.25 10.175 6.25 15C6.25 18.4812 8.29875 21.4856 11.25 22.8931V26.25C11.25 27.6287 12.3713 28.75 13.75 28.75H16.25C17.6287 28.75 18.75 27.6287 18.75 26.25V22.8931C21.7013 21.4856 23.75 18.4812 23.75 15C23.75 10.175 19.825 6.25 15 6.25ZM1.25 13.75C0.918479 13.75 0.600537 13.8817 0.366117 14.1161C0.131696 14.3505 0 14.6685 0 15C0 15.3315 0.131696 15.6495 0.366117 15.8839C0.600537 16.1183 0.918479 16.25 1.25 16.25C1.58152 16.25 1.89946 16.1183 2.13388 15.8839C2.3683 15.6495 2.5 15.3315 2.5 15C2.5 14.6685 2.3683 14.3505 2.13388 14.1161C1.89946 13.8817 1.58152 13.75 1.25 13.75ZM28.75 13.75C28.4185 13.75 28.1005 13.8817 27.8661 14.1161C27.6317 14.3505 27.5 14.6685 27.5 15C27.5 15.3315 27.6317 15.6495 27.8661 15.8839C28.1005 16.1183 28.4185 16.25 28.75 16.25C29.0815 16.25 29.3995 16.1183 29.6339 15.8839C29.8683 15.6495 30 15.3315 30 15C30 14.6685 29.8683 14.3505 29.6339 14.1161C29.3995 13.8817 29.0815 13.75 28.75 13.75ZM5.27832 23.4717C4.9468 23.4717 4.62886 23.6034 4.39444 23.8378C4.16002 24.0722 4.02832 24.3902 4.02832 24.7217C4.02832 25.0532 4.16002 25.3711 4.39444 25.6056C4.62886 25.84 4.9468 25.9717 5.27832 25.9717C5.60984 25.9717 5.92778 25.84 6.1622 25.6056C6.39662 25.3711 6.52832 25.0532 6.52832 24.7217C6.52832 24.3902 6.39662 24.0722 6.1622 23.8378C5.92778 23.6034 5.60984 23.4717 5.27832 23.4717ZM24.7217 23.4717C24.3902 23.4717 24.0722 23.6034 23.8378 23.8378C23.6034 24.0722 23.4717 24.3902 23.4717 24.7217C23.4717 25.0532 23.6034 25.3711 23.8378 25.6056C24.0722 25.84 24.3902 25.9717 24.7217 25.9717C25.0532 25.9717 25.3711 25.84 25.6056 25.6056C25.84 25.3711 25.9717 25.0532 25.9717 24.7217C25.9717 24.3902 25.84 24.0722 25.6056 23.8378C25.3711 23.6034 25.0532 23.4717 24.7217 23.4717Z" fill="white"/>
</svg>
