<svg width="31" height="30" viewBox="0 0 31 30" fill="none" xmlns="http://www.w3.org/2000/svg">
<path d="M16.0988 0.599976C12.7988 0.599976 10.1 3.29998 10.1 6.59998C10.1 9.69598 12.482 12.2635 15.5 12.5695V16.9265C14.942 16.0925 14.1324 15.2274 12.9804 14.5734C12.9864 14.5314 12.9863 14.4842 12.9863 14.4422C12.9803 12.6302 11.5581 11.2675 10.2441 10.7695C7.91012 9.89351 4.98835 11.3285 3.28435 14.1785C3.17035 14.3705 3.17035 14.6101 3.28435 14.7961C4.66435 17.0581 6.80602 18.4078 8.79802 18.4078C9.30802 18.4078 9.80542 18.3243 10.2734 18.1383C10.9094 17.8923 11.5636 17.4422 12.0676 16.8422C11.7676 16.5782 11.4382 16.3442 11.0902 16.1402C11.0542 16.1162 11.0184 16.0914 10.9824 16.0734C9.6744 15.3354 8.4017 15.2035 7.5617 15.2215C7.2317 15.2395 6.95598 14.9702 6.94998 14.6402C6.94398 14.4602 7.02217 14.2982 7.14216 14.1902C7.24416 14.0942 7.38226 14.0285 7.53826 14.0285C8.52226 13.9985 10.0275 14.1544 11.5695 15.0304L11.6961 15.1019C12.0501 15.3119 12.3859 15.5456 12.7039 15.8156C12.7159 15.8156 12.7225 15.8223 12.7285 15.8343C14.6785 17.1003 15.3204 19.14 15.4824 19.8H10.1C9.76998 19.8 9.49998 20.07 9.49998 20.4V22.8C9.49998 23.13 9.76998 23.4 10.1 23.4H22.1C22.43 23.4 22.7 23.13 22.7 22.8V20.4C22.7 20.07 22.43 19.8 22.1 19.8H16.7304C16.9524 19.08 17.4076 18.1084 18.3137 17.2324C18.3556 17.1964 18.3924 17.1594 18.4344 17.1234C18.4884 17.0694 18.5478 17.0156 18.6078 16.9676C18.6078 16.9616 18.6019 16.9618 18.6019 16.9558C18.6799 16.8778 18.764 16.8005 18.848 16.7285C19.076 16.5245 19.31 16.3318 19.55 16.1578C20.12 15.7258 20.738 15.3599 21.398 15.0539C21.632 14.9459 21.9015 14.9994 22.0695 15.1734C22.1235 15.2214 22.1661 15.282 22.1961 15.348C22.3341 15.648 22.2019 16.0081 21.9019 16.1461C21.3499 16.3981 20.8339 16.7038 20.3539 17.0578C20.1079 17.2318 19.8739 17.4175 19.6519 17.6215C19.5679 17.6995 19.4781 17.7778 19.3941 17.8558C19.4061 17.8618 19.4114 17.8744 19.4234 17.8804C19.5434 17.9704 19.6699 18.0544 19.8019 18.1324C19.8079 18.1384 19.8135 18.1383 19.8195 18.1383L19.8734 18.1734C19.9454 18.2154 20.0182 18.2524 20.0902 18.2824C20.1082 18.2884 20.1261 18.2998 20.1441 18.3058C20.2461 18.3538 20.3537 18.3964 20.4617 18.4324C20.5637 18.4684 20.6716 18.4975 20.7676 18.5215C20.8156 18.5335 20.8644 18.5459 20.9058 18.5519C20.9958 18.5699 21.0855 18.5821 21.1695 18.5941C21.2955 18.6061 21.4151 18.6117 21.5351 18.6117C23.3771 18.6117 25.1654 17.0099 25.8734 14.6519C25.934 14.4419 25.8736 14.2079 25.7176 14.0519C23.8516 12.2159 21.3204 11.7118 19.7058 12.8578C18.9618 13.3798 18.2351 14.4241 18.2351 15.5941V15.7019C18.2351 15.7139 18.235 15.7263 18.241 15.7383C17.983 15.9183 17.7311 16.1276 17.4851 16.3676C17.1851 16.6616 16.9208 16.9617 16.6988 17.2617V12.5695C19.7168 12.2635 22.0988 9.69598 22.0988 6.59998C22.0988 3.29998 19.3988 0.599976 16.0988 0.599976ZM15.9195 2.64021H16.5804V3.54021C17.0004 3.60021 18.1402 3.89974 18.1402 5.45974H16.9402C16.9402 5.09974 16.8797 4.44021 16.1597 4.44021C15.4997 4.50021 15.5 5.09951 15.5 5.21951C15.5 6.47951 18.2 5.99998 18.2 8.09998C18.2 9.59997 16.7595 9.78044 16.5195 9.78044V10.6195H15.8597V9.78044C15.6197 9.78044 14.0597 9.59997 14.0597 7.79998H15.2597C15.2597 7.97998 15.2597 8.81951 16.1597 8.81951C16.9397 8.81951 16.9402 8.21997 16.9402 8.09998C16.9402 6.77998 14.2402 7.31951 14.2402 5.21951C14.2402 3.95951 15.3795 3.54021 15.9195 3.54021V2.64021ZM10.448 24.6L11.3117 28.9195C11.3657 29.1955 11.612 29.4 11.9 29.4H20.3C20.588 29.4 20.8343 29.1955 20.8883 28.9195L21.7519 24.6H10.448Z" fill="white"/>
</svg>
