<svg width="129" height="175" viewBox="0 0 129 175" fill="none" xmlns="http://www.w3.org/2000/svg">
<path d="M-115.709 278.666C-115.709 278.666 -123.359 194.429 -72.7205 135.315C-22.0817 76.2012 66.4717 64.8188 66.4717 64.8188C66.4717 64.8188 74.1218 149.056 23.483 208.17C-26.5395 266.662 -115.709 278.666 -115.709 278.666Z" fill="url(#paint0_linear_370_831)"/>
<path d="M-157.165 243.608C-157.165 243.608 -169.413 159.916 -122.085 98.1192C-74.7576 36.3227 13.0402 20.1112 13.0402 20.1112C13.0402 20.1112 25.2887 103.803 -22.0391 165.6C-68.7857 226.742 -157.165 243.608 -157.165 243.608Z" fill="url(#paint1_linear_370_831)"/>
<path d="M-140.024 270.22C-140.024 270.22 -118.109 188.525 -50.169 150.539C17.7707 112.553 104.806 132.457 104.806 132.457C104.806 132.457 82.8906 214.152 14.9508 252.138C-52.1958 289.753 -140.024 270.22 -140.024 270.22Z" fill="url(#paint2_linear_370_831)"/>
<defs>
<linearGradient id="paint0_linear_370_831" x1="-136.86" y1="247.236" x2="87.5855" y2="96.1935" gradientUnits="userSpaceOnUse">
<stop stop-color="#4E7200"/>
<stop offset="1" stop-color="#BDE25F" stop-opacity="0.1"/>
</linearGradient>
<linearGradient id="paint1_linear_370_831" x1="-180.004" y1="213.382" x2="35.8393" y2="50.2835" gradientUnits="userSpaceOnUse">
<stop stop-color="#4E7200"/>
<stop offset="1" stop-color="#BDE25F" stop-opacity="0.1"/>
</linearGradient>
<linearGradient id="paint2_linear_370_831" x1="-149.018" y1="233.419" x2="113.784" y2="169.193" gradientUnits="userSpaceOnUse">
<stop stop-color="#4E7200"/>
<stop offset="1" stop-color="#DFF1B2" stop-opacity="0.1"/>
</linearGradient>
</defs>
</svg>
