<svg width="135" height="143" viewBox="0 0 135 143" fill="none" xmlns="http://www.w3.org/2000/svg">
<path d="M220.8 -109.161C220.8 -109.161 227.71 -33.0751 181.971 20.3186C136.233 73.7124 56.248 83.9934 56.248 83.9934C56.248 83.9934 49.3382 7.90744 95.077 -45.4863C140.259 -98.3186 220.8 -109.161 220.8 -109.161Z" fill="url(#paint0_linear_370_835)"/>
<path d="M258.244 -77.4955C258.244 -77.4955 269.308 -1.90163 226.56 53.9152C183.811 109.732 104.509 124.375 104.509 124.375C104.509 124.375 93.4458 48.7811 136.194 -7.03577C178.417 -62.2615 258.244 -77.4955 258.244 -77.4955Z" fill="url(#paint1_linear_370_835)"/>
<path d="M242.763 -101.533C242.763 -101.533 222.968 -27.7423 161.603 6.56787C100.237 40.8781 21.6237 22.9006 21.6237 22.9006C21.6237 22.9006 41.4183 -50.8896 102.784 -85.1998C163.433 -119.175 242.763 -101.533 242.763 -101.533Z" fill="url(#paint2_linear_370_835)"/>
<defs>
<linearGradient id="paint0_linear_370_835" x1="239.905" y1="-80.7722" x2="37.1773" y2="55.6546" gradientUnits="userSpaceOnUse">
<stop stop-color="#4E7200"/>
<stop offset="1" stop-color="#B4E549" stop-opacity="0.1"/>
</linearGradient>
<linearGradient id="paint1_linear_370_835" x1="278.874" y1="-50.1946" x2="83.9161" y2="97.1222" gradientUnits="userSpaceOnUse">
<stop stop-color="#4E7200"/>
<stop offset="1" stop-color="#B4E549" stop-opacity="0.1"/>
</linearGradient>
<linearGradient id="paint2_linear_370_835" x1="250.886" y1="-68.2922" x2="13.5144" y2="-10.2811" gradientUnits="userSpaceOnUse">
<stop stop-color="#4E7200"/>
<stop offset="1" stop-color="#B4E549" stop-opacity="0.1"/>
</linearGradient>
</defs>
</svg>
